Primae-Uc Cursive Bold.ufo
<glyph name="exclam" format="2">
	<unicode hex="0021"/>
	<advance width="840"/>
	<outline>
		<contour>
			<point x="391" y="481" type="curve" smooth="yes"/>
			<point x="435" y="481"/>
			<point x="456" y="512"/>
			<point x="487" y="602" type="curve" smooth="yes"/>
			<point x="567" y="833"/>
			<point x="704" y="1235"/>
			<point x="759" y="1390" type="curve" smooth="yes"/>
			<point x="782" y="1455"/>
			<point x="790" y="1476"/>
			<point x="790" y="1502" type="curve" smooth="yes"/>
			<point x="790" y="1557"/>
			<point x="721" y="1600"/>
			<point x="648" y="1600" type="curve" smooth="yes"/>
			<point x="601" y="1600"/>
			<point x="566" y="1582"/>
			<point x="550" y="1532" type="curve" smooth="yes"/>
			<point x="472" y="1285"/>
			<point x="362" y="887"/>
			<point x="311" y="690" type="curve" smooth="yes"/>
			<point x="292" y="615"/>
			<point x="286" y="589"/>
			<point x="286" y="557" type="curve" smooth="yes"/>
			<point x="286" y="512"/>
			<point x="331" y="481"/>
		</contour>
		<contour>
			<point x="240" y="-11" type="curve" smooth="yes"/>
			<point x="330" y="-11"/>
			<point x="417" y="74"/>
			<point x="417" y="172" type="curve" smooth="yes"/>
			<point x="417" y="240"/>
			<point x="366" y="292"/>
			<point x="295" y="292" type="curve" smooth="yes"/>
			<point x="207" y="292"/>
			<point x="130" y="214"/>
			<point x="130" y="116" type="curve" smooth="yes"/>
			<point x="130" y="37"/>
			<point x="181" y="-11"/>
		</contour>
	</outline>
</glyph>
<glyph name="numbersign" format="2">
	<unicode hex="0023"/>
	<advance width="1279"/>
	<outline>
		<contour>
			<point x="494" y="1296" type="curve" smooth="yes"/>
			<point x="180" y="145" type="line" smooth="yes"/>
			<point x="166" y="95"/>
			<point x="160" y="68"/>
			<point x="160" y="48" type="curve" smooth="yes"/>
			<point x="160" y="3"/>
			<point x="215" y="-29"/>
			<point x="274" y="-29" type="curve" smooth="yes"/>
			<point x="320" y="-29"/>
			<point x="349" y="-19"/>
			<point x="366" y="44" type="curve" smooth="yes"/>
			<point x="686" y="1223" type="line" smooth="yes"/>
			<point x="700" y="1273"/>
			<point x="706" y="1300"/>
			<point x="706" y="1320" type="curve" smooth="yes"/>
			<point x="706" y="1367"/>
			<point x="646" y="1400"/>
			<point x="582" y="1400" type="curve" smooth="yes"/>
			<point x="541" y="1400"/>
			<point x="519" y="1387"/>
		</contour>
		<contour>
			<point x="894" y="1296" type="curve" smooth="yes"/>
			<point x="580" y="145" type="line" smooth="yes"/>
			<point x="566" y="95"/>
			<point x="560" y="68"/>
			<point x="560" y="48" type="curve" smooth="yes"/>
			<point x="560" y="3"/>
			<point x="615" y="-29"/>
			<point x="674" y="-29" type="curve" smooth="yes"/>
			<point x="720" y="-29"/>
			<point x="749" y="-19"/>
			<point x="766" y="44" type="curve" smooth="yes"/>
			<point x="1086" y="1223" type="line" smooth="yes"/>
			<point x="1100" y="1273"/>
			<point x="1106" y="1300"/>
			<point x="1106" y="1320" type="curve" smooth="yes"/>
			<point x="1106" y="1367"/>
			<point x="1046" y="1400"/>
			<point x="982" y="1400" type="curve" smooth="yes"/>
			<point x="941" y="1400"/>
			<point x="919" y="1387"/>
		</contour>
		<contour>
			<point x="275" y="850" type="curve" smooth="yes"/>
			<point x="361" y="850"/>
			<point x="835" y="856"/>
			<point x="1126" y="859" type="curve" smooth="yes"/>
			<point x="1193" y="861"/>
			<point x="1229" y="898"/>
			<point x="1229" y="964" type="curve" smooth="yes"/>
			<point x="1229" y="1011"/>
			<point x="1198" y="1055"/>
			<point x="1131" y="1055" type="curve" smooth="yes"/>
			<point x="285" y="1055" type="line" smooth="yes"/>
			<point x="224" y="1055"/>
			<point x="190" y="1002"/>
			<point x="190" y="937" type="curve" smooth="yes"/>
			<point x="190" y="888"/>
			<point x="220" y="850"/>
		</contour>
		<contour>
			<point x="135" y="350" type="curve" smooth="yes"/>
			<point x="221" y="350"/>
			<point x="695" y="356"/>
			<point x="986" y="359" type="curve" smooth="yes"/>
			<point x="1053" y="361"/>
			<point x="1089" y="398"/>
			<point x="1089" y="464" type="curve" smooth="yes"/>
			<point x="1089" y="511"/>
			<point x="1058" y="555"/>
			<point x="991" y="555" type="curve" smooth="yes"/>
			<point x="145" y="555" type="line" smooth="yes"/>
			<point x="84" y="555"/>
			<point x="50" y="502"/>
			<point x="50" y="437" type="curve" smooth="yes"/>
			<point x="50" y="388"/>
			<point x="80" y="350"/>
		</contour>
	</outline>
</glyph>
<glyph name="dollar" format="2">
	<unicode hex="0024"/>
	<advance width="1200"/>
	<outline>
		<contour>
			<point x="63" y="165" type="curve" smooth="yes"/>
			<point x="63" y="131"/>
			<point x="80" y="111"/>
			<point x="138" y="75" type="curve" smooth="yes"/>
			<point x="207" y="33"/>
			<point x="363" y="-17"/>
			<point x="507" y="-17" type="curve" smooth="yes"/>
			<point x="771" y="-17"/>
			<point x="1012" y="171"/>
			<point x="1012" y="439" type="curve" smooth="yes"/>
			<point x="1012" y="597"/>
			<point x="913" y="737"/>
			<point x="714" y="817" type="curve"/>
			<point x="594" y="858" type="line"/>
			<point x="499" y="876"/>
			<point x="440" y="919"/>
			<point x="440" y="1006" type="curve" smooth="yes"/>
			<point x="440" y="1118"/>
			<point x="555" y="1213"/>
			<point x="714" y="1213" type="curve" smooth="yes"/>
			<point x="803" y="1213"/>
			<point x="862" y="1195"/>
			<point x="926" y="1171" type="curve" smooth="yes"/>
			<point x="962" y="1157"/>
			<point x="995" y="1145"/>
			<point x="1020" y="1145" type="curve" smooth="yes"/>
			<point x="1069" y="1145"/>
			<point x="1105" y="1212"/>
			<point x="1105" y="1255" type="curve" smooth="yes"/>
			<point x="1105" y="1298"/>
			<point x="1067" y="1330"/>
			<point x="999" y="1363" type="curve" smooth="yes"/>
			<point x="916" y="1403"/>
			<point x="832" y="1428"/>
			<point x="726" y="1428" type="curve" smooth="yes"/>
			<point x="419" y="1428"/>
			<point x="215" y="1211"/>
			<point x="215" y="984" type="curve" smooth="yes"/>
			<point x="215" y="799"/>
			<point x="330" y="696"/>
			<point x="507" y="622" type="curve"/>
			<point x="634" y="580" type="line"/>
			<point x="741" y="556"/>
			<point x="787" y="494"/>
			<point x="787" y="417" type="curve" smooth="yes"/>
			<point x="787" y="282"/>
			<point x="690" y="198"/>
			<point x="520" y="198" type="curve" smooth="yes"/>
			<point x="403" y="198"/>
			<point x="325" y="227"/>
			<point x="252" y="256" type="curve" smooth="yes"/>
			<point x="211" y="272"/>
			<point x="184" y="282"/>
			<point x="160" y="282" type="curve" smooth="yes"/>
			<point x="102" y="282"/>
			<point x="63" y="213"/>
		</contour>
		<contour>
			<point x="404" y="-189" type="curve" smooth="yes"/>
			<point x="449" y="-189"/>
			<point x="472" y="-173"/>
			<point x="486" y="-121" type="curve" smooth="yes"/>
			<point x="928" y="1483" type="line" smooth="yes"/>
			<point x="935" y="1509"/>
			<point x="942" y="1534"/>
			<point x="942" y="1561" type="curve" smooth="yes"/>
			<point x="942" y="1596"/>
			<point x="889" y="1625"/>
			<point x="815" y="1625" type="curve" smooth="yes"/>
			<point x="775" y="1625"/>
			<point x="755" y="1608"/>
			<point x="739" y="1549" type="curve" smooth="yes"/>
			<point x="299" y="-45" type="line" smooth="yes"/>
			<point x="290" y="-78"/>
			<point x="285" y="-98"/>
			<point x="285" y="-114" type="curve" smooth="yes"/>
			<point x="285" y="-153"/>
			<point x="344" y="-189"/>
		</contour>
	</outline>
</glyph>
<glyph name="quotesingle" format="2">
	<unicode hex="0027"/>
	<advance width="530"/>
	<outline>
		<contour>
			<point x="325" y="1050" type="curve" smooth="yes"/>
			<point x="361" y="1050"/>
			<point x="391" y="1071"/>
			<point x="413" y="1127" type="curve" smooth="yes"/>
			<point x="449" y="1217"/>
			<point x="498" y="1351"/>
			<point x="527" y="1438" type="curve" smooth="yes"/>
			<point x="545" y="1493"/>
			<point x="550" y="1512"/>
			<point x="550" y="1533" type="curve" smooth="yes"/>
			<point x="550" y="1588"/>
			<point x="464" y="1625"/>
			<point x="396" y="1625" type="curve" smooth="yes"/>
			<point x="325" y="1625"/>
			<point x="302" y="1584"/>
			<point x="254" y="1369" type="curve" smooth="yes"/>
			<point x="225" y="1241"/>
			<point x="213" y="1166"/>
			<point x="213" y="1136" type="curve" smooth="yes"/>
			<point x="213" y="1087"/>
			<point x="241" y="1050"/>
		</contour>
	</outline>
</glyph>
<glyph name="parenleft" format="2">
	<unicode hex="0028"/>
	<advance width="728"/>
	<outline>
		<contour>
			<point x="370" y="-366" type="curve" smooth="yes"/>
			<point x="415" y="-366"/>
			<point x="472" y="-319"/>
			<point x="472" y="-276" type="curve" smooth="yes"/>
			<point x="472" y="-259"/>
			<point x="463" y="-242"/>
			<point x="454" y="-226" type="curve" smooth="yes"/>
			<point x="436" y="-196"/>
			<point x="426" y="-178"/>
			<point x="395" y="-114" type="curve" smooth="yes"/>
			<point x="331" y="18"/>
			<point x="280" y="209"/>
			<point x="280" y="360" type="curve" smooth="yes"/>
			<point x="280" y="782"/>
			<point x="455" y="1137"/>
			<point x="790" y="1486" type="curve" smooth="yes"/>
			<point x="852" y="1550"/>
			<point x="858" y="1577"/>
			<point x="858" y="1591" type="curve" smooth="yes"/>
			<point x="858" y="1669"/>
			<point x="778" y="1727"/>
			<point x="729" y="1727" type="curve" smooth="yes"/>
			<point x="690" y="1727"/>
			<point x="657" y="1711"/>
			<point x="582" y="1630" type="curve" smooth="yes"/>
			<point x="273" y="1298"/>
			<point x="80" y="879"/>
			<point x="80" y="408" type="curve" smooth="yes"/>
			<point x="80" y="168"/>
			<point x="156" y="-86"/>
			<point x="253" y="-254" type="curve" smooth="yes"/>
			<point x="307" y="-348"/>
			<point x="334" y="-366"/>
		</contour>
	</outline>
</glyph>
<glyph name="asterisk" format="2">
	<unicode hex="002A"/>
	<advance width="995"/>
	<outline>
		<contour>
			<point x="449" y="1666" type="curve" smooth="yes"/>
			<point x="425" y="1720"/>
			<point x="404" y="1737"/>
			<point x="370" y="1737" type="curve" smooth="yes"/>
			<point x="323" y="1737"/>
			<point x="256" y="1704"/>
			<point x="256" y="1637" type="curve" smooth="yes"/>
			<point x="256" y="1616"/>
			<point x="263" y="1596"/>
			<point x="295" y="1529" type="curve" smooth="yes"/>
			<point x="384" y="1342"/>
			<point x="485" y="1108"/>
			<point x="556" y="942" type="curve" smooth="yes"/>
			<point x="579" y="888"/>
			<point x="600" y="868"/>
			<point x="631" y="868" type="curve" smooth="yes"/>
			<point x="664" y="868"/>
			<point x="719" y="886"/>
			<point x="719" y="937" type="curve" smooth="yes"/>
			<point x="719" y="952"/>
			<point x="713" y="983"/>
			<point x="690" y="1049" type="curve" smooth="yes"/>
			<point x="635" y="1206"/>
			<point x="541" y="1458"/>
		</contour>
		<contour>
			<point x="735" y="1471" type="curve" smooth="yes"/>
			<point x="806" y="1570"/>
			<point x="816" y="1590"/>
			<point x="816" y="1620" type="curve" smooth="yes"/>
			<point x="816" y="1677"/>
			<point x="755" y="1714"/>
			<point x="721" y="1714" type="curve" smooth="yes"/>
			<point x="682" y="1714"/>
			<point x="663" y="1702"/>
			<point x="609" y="1615" type="curve" smooth="yes"/>
			<point x="478" y="1405"/>
			<point x="339" y="1255"/>
			<point x="219" y="1117" type="curve" smooth="yes"/>
			<point x="177" y="1064"/>
			<point x="169" y="1042"/>
			<point x="169" y="1018" type="curve" smooth="yes"/>
			<point x="169" y="971"/>
			<point x="212" y="945"/>
			<point x="250" y="945" type="curve" smooth="yes"/>
			<point x="278" y="945"/>
			<point x="312" y="963"/>
			<point x="354" y="1007" type="curve" smooth="yes"/>
			<point x="474" y="1135"/>
			<point x="636" y="1335"/>
		</contour>
		<contour>
			<point x="228" y="1449" type="curve" smooth="yes"/>
			<point x="185" y="1455"/>
			<point x="145" y="1458"/>
			<point x="134" y="1458" type="curve" smooth="yes"/>
			<point x="83" y="1458"/>
			<point x="50" y="1416"/>
			<point x="50" y="1354" type="curve" smooth="yes"/>
			<point x="50" y="1307"/>
			<point x="76" y="1279"/>
			<point x="133" y="1272" type="curve" smooth="yes"/>
			<point x="348" y="1246"/>
			<point x="648" y="1194"/>
			<point x="754" y="1172" type="curve" smooth="yes"/>
			<point x="839" y="1154"/>
			<point x="863" y="1151"/>
			<point x="883" y="1151" type="curve" smooth="yes"/>
			<point x="929" y="1151"/>
			<point x="945" y="1190"/>
			<point x="945" y="1240" type="curve" smooth="yes"/>
			<point x="945" y="1278"/>
			<point x="919" y="1301"/>
			<point x="802" y="1335" type="curve" smooth="yes"/>
			<point x="648" y="1379"/>
			<point x="397" y="1427"/>
		</contour>
	</outline>
</glyph>
<glyph name="comma" format="2">
	<unicode hex="002C"/>
	<advance width="633"/>
	<outline>
		<contour>
			<point x="62" y="-396" type="curve" smooth="yes"/>
			<point x="86" y="-396"/>
			<point x="114" y="-380"/>
			<point x="167" y="-329" type="curve" smooth="yes"/>
			<point x="289" y="-210"/>
			<point x="444" y="39"/>
			<point x="444" y="188" type="curve" smooth="yes"/>
			<point x="444" y="244"/>
			<point x="384" y="286"/>
			<point x="294" y="286" type="curve" smooth="yes"/>
			<point x="237" y="286"/>
			<point x="210" y="262"/>
			<point x="186" y="178" type="curve" smooth="yes"/>
			<point x="141" y="21"/>
			<point x="90" y="-96"/>
			<point x="-10" y="-229" type="curve" smooth="yes"/>
			<point x="-32" y="-258"/>
			<point x="-38" y="-275"/>
			<point x="-38" y="-294" type="curve" smooth="yes"/>
			<point x="-38" y="-349"/>
			<point x="17" y="-396"/>
		</contour>
	</outline>
</glyph>
<glyph name="hyphen" format="2">
	<unicode hex="002D"/>
	<advance width="986"/>
	<outline>
		<contour>
			<point x="251" y="560" type="curve" smooth="yes"/>
			<point x="391" y="560"/>
			<point x="582" y="568"/>
			<point x="700" y="580" type="curve" smooth="yes"/>
			<point x="807" y="590"/>
			<point x="836" y="638"/>
			<point x="836" y="705" type="curve" smooth="yes"/>
			<point x="836" y="742"/>
			<point x="821" y="774"/>
			<point x="791" y="774" type="curve" smooth="yes"/>
			<point x="772" y="774"/>
			<point x="745" y="773"/>
			<point x="690" y="769" type="curve" smooth="yes"/>
			<point x="614" y="764"/>
			<point x="421" y="760"/>
			<point x="263" y="760" type="curve" smooth="yes"/>
			<point x="183" y="760"/>
			<point x="150" y="708"/>
			<point x="150" y="644" type="curve" smooth="yes"/>
			<point x="150" y="596"/>
			<point x="177" y="560"/>
		</contour>
	</outline>
</glyph>
<glyph name="period" format="2">
	<unicode hex="002E"/>
	<advance width="615"/>
	<outline>
		<contour>
			<point x="281" y="-12" type="curve" smooth="yes"/>
			<point x="381" y="-12"/>
			<point x="465" y="73"/>
			<point x="465" y="182" type="curve" smooth="yes"/>
			<point x="465" y="263"/>
			<point x="411" y="318"/>
			<point x="332" y="318" type="curve" smooth="yes"/>
			<point x="234" y="318"/>
			<point x="150" y="233"/>
			<point x="150" y="124" type="curve" smooth="yes"/>
			<point x="150" y="43"/>
			<point x="204" y="-12"/>
		</contour>
	</outline>
</glyph>
<glyph name="slash" format="2">
	<unicode hex="002F"/>
	<advance width="967"/>
	<outline>
		<contour>
			<point x="49" y="-155" type="curve" smooth="yes"/>
			<point x="88" y="-155"/>
			<point x="107" y="-133"/>
			<point x="128" y="-96" type="curve" smooth="yes"/>
			<point x="906" y="1282" type="line" smooth="yes"/>
			<point x="937" y="1337"/>
			<point x="939" y="1352"/>
			<point x="939" y="1368" type="curve" smooth="yes"/>
			<point x="939" y="1419"/>
			<point x="877" y="1476"/>
			<point x="808" y="1476" type="curve" smooth="yes"/>
			<point x="774" y="1476"/>
			<point x="751" y="1459"/>
			<point x="719" y="1403" type="curve" smooth="yes"/>
			<point x="-61" y="25" type="line" smooth="yes"/>
			<point x="-75" y="1"/>
			<point x="-90" y="-25"/>
			<point x="-90" y="-54" type="curve" smooth="yes"/>
			<point x="-90" y="-107"/>
			<point x="-13" y="-155"/>
		</contour>
	</outline>
</glyph>
<glyph name="zero" format="2">
	<unicode hex="0030"/>
	<advance width="1206"/>
	<outline>
		<contour>
			<point x="448" y="-17" type="curve" smooth="yes"/>
			<point x="821" y="-17"/>
			<point x="1126" y="457"/>
			<point x="1126" y="952" type="curve" smooth="yes"/>
			<point x="1126" y="1252"/>
			<point x="963" y="1419"/>
			<point x="778" y="1419" type="curve" smooth="yes"/>
			<point x="405" y="1419"/>
			<point x="100" y="945"/>
			<point x="100" y="450" type="curve" smooth="yes"/>
			<point x="100" y="150"/>
			<point x="263" y="-17"/>
		</contour>
		<contour>
			<point x="503" y="203" type="curve" smooth="yes"/>
			<point x="418" y="203"/>
			<point x="350" y="262"/>
			<point x="350" y="494" type="curve" smooth="yes"/>
			<point x="350" y="859"/>
			<point x="552" y="1199"/>
			<point x="723" y="1199" type="curve" smooth="yes"/>
			<point x="808" y="1199"/>
			<point x="876" y="1140"/>
			<point x="876" y="908" type="curve" smooth="yes"/>
			<point x="876" y="543"/>
			<point x="673" y="203"/>
		</contour>
	</outline>
</glyph>
<glyph name="one" format="2">
	<unicode hex="0031"/>
	<advance width="911"/>
	<outline>
		<contour>
			<point x="412" y="-12" type="curve" smooth="yes"/>
			<point x="468" y="-12"/>
			<point x="512" y="-4"/>
			<point x="531" y="77" type="curve" smooth="yes"/>
			<point x="624" y="471"/>
			<point x="717" y="851"/>
			<point x="837" y="1251" type="curve" smooth="yes"/>
			<point x="857" y="1318"/>
			<point x="861" y="1335"/>
			<point x="861" y="1347" type="curve" smooth="yes"/>
			<point x="861" y="1387"/>
			<point x="818" y="1419"/>
			<point x="773" y="1419" type="curve" smooth="yes"/>
			<point x="751" y="1419"/>
			<point x="739" y="1415"/>
			<point x="677" y="1378" type="curve" smooth="yes"/>
			<point x="565" y="1311"/>
			<point x="383" y="1210"/>
			<point x="186" y="1111" type="curve" smooth="yes"/>
			<point x="128" y="1082"/>
			<point x="120" y="1058"/>
			<point x="120" y="1027" type="curve" smooth="yes"/>
			<point x="120" y="962"/>
			<point x="167" y="900"/>
			<point x="219" y="900" type="curve" smooth="yes"/>
			<point x="245" y="900"/>
			<point x="263" y="904"/>
			<point x="309" y="926" type="curve" smooth="yes"/>
			<point x="379" y="960"/>
			<point x="535" y="1036"/>
			<point x="610" y="1079" type="curve"/>
			<point x="556" y="1096" type="line"/>
			<point x="495" y="899"/>
			<point x="404" y="543"/>
			<point x="304" y="148" type="curve" smooth="yes"/>
			<point x="294" y="110"/>
			<point x="292" y="97"/>
			<point x="292" y="83" type="curve" smooth="yes"/>
			<point x="292" y="23"/>
			<point x="348" y="-12"/>
		</contour>
	</outline>
</glyph>
<glyph name="two" format="2">
	<unicode hex="0032"/>
	<advance width="1265"/>
	<outline>
		<contour>
			<point x="800" y="-5" type="curve" smooth="yes"/>
			<point x="910" y="-5"/>
			<point x="995" y="29"/>
			<point x="1061" y="112" type="curve" smooth="yes"/>
			<point x="1103" y="165"/>
			<point x="1113" y="201"/>
			<point x="1113" y="227" type="curve" smooth="yes"/>
			<point x="1113" y="287"/>
			<point x="1060" y="327"/>
			<point x="1017" y="327" type="curve" smooth="yes"/>
			<point x="997" y="327"/>
			<point x="987" y="320"/>
			<point x="960" y="295" type="curve" smooth="yes"/>
			<point x="908" y="248"/>
			<point x="845" y="224"/>
			<point x="756" y="224" type="curve" smooth="yes"/>
			<point x="694" y="224"/>
			<point x="623" y="236"/>
			<point x="544" y="276" type="curve" smooth="yes"/>
			<point x="442" y="328"/>
			<point x="341" y="368"/>
			<point x="242" y="368" type="curve" smooth="yes"/>
			<point x="106" y="368"/>
			<point x="0" y="273"/>
			<point x="0" y="172" type="curve" smooth="yes"/>
			<point x="0" y="70"/>
			<point x="102" y="-6"/>
			<point x="188" y="-6" type="curve" smooth="yes"/>
			<point x="461" y="-6"/>
			<point x="1145" y="616"/>
			<point x="1145" y="1062" type="curve" smooth="yes"/>
			<point x="1145" y="1272"/>
			<point x="1002" y="1414"/>
			<point x="763" y="1414" type="curve" smooth="yes"/>
			<point x="583" y="1414"/>
			<point x="425" y="1343"/>
			<point x="305" y="1233" type="curve" smooth="yes"/>
			<point x="256" y="1188"/>
			<point x="247" y="1161"/>
			<point x="247" y="1137" type="curve" smooth="yes"/>
			<point x="247" y="1084"/>
			<point x="295" y="1033"/>
			<point x="354" y="1033" type="curve" smooth="yes"/>
			<point x="385" y="1033"/>
			<point x="409" y="1043"/>
			<point x="439" y="1066" type="curve" smooth="yes"/>
			<point x="537" y="1141"/>
			<point x="610" y="1184"/>
			<point x="701" y="1184" type="curve" smooth="yes"/>
			<point x="811" y="1184"/>
			<point x="885" y="1113"/>
			<point x="885" y="987" type="curve" smooth="yes"/>
			<point x="885" y="676"/>
			<point x="393" y="156"/>
			<point x="205" y="156" type="curve" smooth="yes"/>
			<point x="185" y="156"/>
			<point x="166" y="170"/>
			<point x="166" y="187" type="curve" smooth="yes"/>
			<point x="166" y="203"/>
			<point x="188" y="215"/>
			<point x="221" y="215" type="curve" smooth="yes"/>
			<point x="263" y="215"/>
			<point x="301" y="194"/>
			<point x="420" y="121" type="curve" smooth="yes"/>
			<point x="561" y="35"/>
			<point x="717" y="-5"/>
		</contour>
	</outline>
</glyph>
<glyph name="three" format="2">
	<unicode hex="0033"/>
	<advance width="1148"/>
	<outline>
		<contour>
			<point x="455" y="-13" type="curve" smooth="yes"/>
			<point x="751" y="-13"/>
			<point x="971" y="166"/>
			<point x="971" y="400" type="curve" smooth="yes"/>
			<point x="971" y="554"/>
			<point x="882" y="671"/>
			<point x="725" y="739" type="curve"/>
			<point x="722" y="705" type="line"/>
			<point x="927" y="770"/>
			<point x="1058" y="911"/>
			<point x="1058" y="1097" type="curve" smooth="yes"/>
			<point x="1058" y="1277"/>
			<point x="902" y="1417"/>
			<point x="685" y="1417" type="curve" smooth="yes"/>
			<point x="537" y="1417"/>
			<point x="408" y="1377"/>
			<point x="312" y="1321" type="curve" smooth="yes"/>
			<point x="256" y="1288"/>
			<point x="238" y="1260"/>
			<point x="238" y="1225" type="curve" smooth="yes"/>
			<point x="238" y="1161"/>
			<point x="295" y="1112"/>
			<point x="334" y="1112" type="curve" smooth="yes"/>
			<point x="359" y="1112"/>
			<point x="380" y="1119"/>
			<point x="413" y="1134" type="curve" smooth="yes"/>
			<point x="499" y="1173"/>
			<point x="565" y="1195"/>
			<point x="641" y="1195" type="curve" smooth="yes"/>
			<point x="760" y="1195"/>
			<point x="818" y="1133"/>
			<point x="818" y="1050" type="curve" smooth="yes"/>
			<point x="818" y="961"/>
			<point x="768" y="877"/>
			<point x="592" y="816" type="curve"/>
			<point x="527" y="835"/>
			<point x="470" y="845"/>
			<point x="419" y="845" type="curve" smooth="yes"/>
			<point x="342" y="845"/>
			<point x="300" y="807"/>
			<point x="300" y="734" type="curve" smooth="yes"/>
			<point x="300" y="647"/>
			<point x="345" y="603"/>
			<point x="429" y="603" type="curve" smooth="yes"/>
			<point x="466" y="603"/>
			<point x="550" y="626"/>
			<point x="603" y="646" type="curve"/>
			<point x="677" y="607"/>
			<point x="726" y="527"/>
			<point x="726" y="425" type="curve" smooth="yes"/>
			<point x="726" y="291"/>
			<point x="614" y="209"/>
			<point x="456" y="209" type="curve" smooth="yes"/>
			<point x="356" y="209"/>
			<point x="266" y="239"/>
			<point x="187" y="274" type="curve" smooth="yes"/>
			<point x="158" y="287"/>
			<point x="142" y="293"/>
			<point x="122" y="293" type="curve" smooth="yes"/>
			<point x="64" y="293"/>
			<point x="20" y="224"/>
			<point x="20" y="168" type="curve" smooth="yes"/>
			<point x="20" y="136"/>
			<point x="38" y="108"/>
			<point x="92" y="76" type="curve" smooth="yes"/>
			<point x="173" y="28"/>
			<point x="305" y="-13"/>
		</contour>
	</outline>
</glyph>
<glyph name="four" format="2">
	<unicode hex="0034"/>
	<advance width="1221"/>
	<outline>
		<contour>
			<point x="743" y="73" type="curve" smooth="yes"/>
			<point x="789" y="296"/>
			<point x="856" y="603"/>
			<point x="908" y="780" type="curve" smooth="yes"/>
			<point x="928" y="849"/>
			<point x="931" y="862"/>
			<point x="931" y="879" type="curve" smooth="yes"/>
			<point x="931" y="928"/>
			<point x="866" y="962"/>
			<point x="794" y="962" type="curve" smooth="yes"/>
			<point x="751" y="962"/>
			<point x="733" y="951"/>
			<point x="719" y="901" type="curve" smooth="yes"/>
			<point x="653" y="664"/>
			<point x="582" y="365"/>
			<point x="528" y="122" type="curve" smooth="yes"/>
			<point x="520" y="88"/>
			<point x="520" y="78"/>
			<point x="520" y="70" type="curve" smooth="yes"/>
			<point x="520" y="21"/>
			<point x="575" y="-11"/>
			<point x="637" y="-11" type="curve" smooth="yes"/>
			<point x="683" y="-11"/>
			<point x="728" y="2"/>
		</contour>
		<contour>
			<point x="245" y="363" type="curve" smooth="yes"/>
			<point x="298" y="363"/>
			<point x="781" y="366"/>
			<point x="1065" y="378" type="curve" smooth="yes"/>
			<point x="1159" y="382"/>
			<point x="1171" y="460"/>
			<point x="1171" y="514" type="curve" smooth="yes"/>
			<point x="1171" y="562"/>
			<point x="1149" y="596"/>
			<point x="1076" y="596" type="curve" smooth="yes"/>
			<point x="971" y="596"/>
			<point x="421" y="562"/>
			<point x="220" y="552" type="curve"/>
			<point x="234" y="472" type="line"/>
			<point x="427" y="722"/>
			<point x="610" y="1001"/>
			<point x="720" y="1207" type="curve" smooth="yes"/>
			<point x="761" y="1284"/>
			<point x="769" y="1306"/>
			<point x="769" y="1330" type="curve" smooth="yes"/>
			<point x="769" y="1387"/>
			<point x="698" y="1425"/>
			<point x="614" y="1425" type="curve" smooth="yes"/>
			<point x="580" y="1425"/>
			<point x="563" y="1412"/>
			<point x="536" y="1359" type="curve" smooth="yes"/>
			<point x="411" y="1111"/>
			<point x="254" y="828"/>
			<point x="144" y="649" type="curve" smooth="yes"/>
			<point x="96" y="571"/>
			<point x="90" y="548"/>
			<point x="90" y="520" type="curve" smooth="yes"/>
			<point x="90" y="423"/>
			<point x="155" y="363"/>
		</contour>
	</outline>
</glyph>
<glyph name="five" format="2">
	<unicode hex="0035"/>
	<advance width="1158"/>
	<outline>
		<contour>
			<point x="470" y="-11" type="curve" smooth="yes"/>
			<point x="762" y="-11"/>
			<point x="1010" y="188"/>
			<point x="1010" y="523" type="curve" smooth="yes"/>
			<point x="1010" y="747"/>
			<point x="851" y="862"/>
			<point x="680" y="862" type="curve" smooth="yes"/>
			<point x="590" y="862"/>
			<point x="485" y="835"/>
			<point x="390" y="792" type="curve"/>
			<point x="403" y="751" type="line"/>
			<point x="513" y="1183" type="line"/>
			<point x="570" y="1174"/>
			<point x="660" y="1165"/>
			<point x="776" y="1165" type="curve" smooth="yes"/>
			<point x="884" y="1165"/>
			<point x="987" y="1173"/>
			<point x="1031" y="1191" type="curve" smooth="yes"/>
			<point x="1079" y="1211"/>
			<point x="1098" y="1243"/>
			<point x="1098" y="1326" type="curve" smooth="yes"/>
			<point x="1098" y="1390"/>
			<point x="1069" y="1408"/>
			<point x="1042" y="1408" type="curve" smooth="yes"/>
			<point x="1015" y="1408"/>
			<point x="978" y="1405"/>
			<point x="935" y="1401" type="curve" smooth="yes"/>
			<point x="880" y="1396"/>
			<point x="811" y="1393"/>
			<point x="757" y="1393" type="curve" smooth="yes"/>
			<point x="675" y="1393"/>
			<point x="603" y="1396"/>
			<point x="568" y="1399" type="curve" smooth="yes"/>
			<point x="531" y="1402"/>
			<point x="478" y="1405"/>
			<point x="441" y="1405" type="curve" smooth="yes"/>
			<point x="379" y="1405"/>
			<point x="339" y="1371"/>
			<point x="322" y="1307" type="curve" smooth="yes"/>
			<point x="214" y="891" type="line" smooth="yes"/>
			<point x="201" y="842"/>
			<point x="196" y="818"/>
			<point x="196" y="790" type="curve" smooth="yes"/>
			<point x="196" y="703"/>
			<point x="278" y="629"/>
			<point x="335" y="629" type="curve" smooth="yes"/>
			<point x="367" y="629"/>
			<point x="395" y="635"/>
			<point x="437" y="645" type="curve" smooth="yes"/>
			<point x="487" y="657"/>
			<point x="541" y="669"/>
			<point x="598" y="669" type="curve" smooth="yes"/>
			<point x="702" y="669"/>
			<point x="770" y="601"/>
			<point x="770" y="491" type="curve" smooth="yes"/>
			<point x="770" y="321"/>
			<point x="642" y="202"/>
			<point x="488" y="202" type="curve" smooth="yes"/>
			<point x="385" y="202"/>
			<point x="287" y="238"/>
			<point x="206" y="280" type="curve" smooth="yes"/>
			<point x="163" y="302"/>
			<point x="146" y="308"/>
			<point x="123" y="308" type="curve" smooth="yes"/>
			<point x="81" y="308"/>
			<point x="20" y="245"/>
			<point x="20" y="188" type="curve" smooth="yes"/>
			<point x="20" y="170"/>
			<point x="37" y="140"/>
			<point x="78" y="109" type="curve" smooth="yes"/>
			<point x="164" y="44"/>
			<point x="330" y="-11"/>
		</contour>
	</outline>
</glyph>
<glyph name="six" format="2">
	<unicode hex="0036"/>
	<advance width="1163"/>
	<outline>
		<contour>
			<point x="933" y="1173" type="curve" smooth="yes"/>
			<point x="962" y="1158"/>
			<point x="981" y="1149"/>
			<point x="999" y="1149" type="curve" smooth="yes"/>
			<point x="1051" y="1149"/>
			<point x="1103" y="1206"/>
			<point x="1103" y="1262" type="curve" smooth="yes"/>
			<point x="1103" y="1292"/>
			<point x="1085" y="1325"/>
			<point x="1037" y="1358" type="curve" smooth="yes"/>
			<point x="964" y="1409"/>
			<point x="869" y="1424"/>
			<point x="798" y="1424" type="curve" smooth="yes"/>
			<point x="426" y="1424"/>
			<point x="100" y="1003"/>
			<point x="100" y="475" type="curve" smooth="yes"/>
			<point x="100" y="166"/>
			<point x="268" y="-12"/>
			<point x="480" y="-12" type="curve" smooth="yes"/>
			<point x="773" y="-12"/>
			<point x="1037" y="278"/>
			<point x="1037" y="566" type="curve" smooth="yes"/>
			<point x="1037" y="772"/>
			<point x="918" y="894"/>
			<point x="718" y="894" type="curve" smooth="yes"/>
			<point x="581" y="894"/>
			<point x="425" y="824"/>
			<point x="258" y="657" type="curve"/>
			<point x="326" y="555" type="line"/>
			<point x="437" y="644"/>
			<point x="538" y="706"/>
			<point x="648" y="706" type="curve" smooth="yes"/>
			<point x="735" y="706"/>
			<point x="797" y="643"/>
			<point x="797" y="532" type="curve" smooth="yes"/>
			<point x="797" y="362"/>
			<point x="658" y="188"/>
			<point x="506" y="188" type="curve" smooth="yes"/>
			<point x="405" y="188"/>
			<point x="340" y="268"/>
			<point x="340" y="459" type="curve" smooth="yes"/>
			<point x="340" y="843"/>
			<point x="542" y="1205"/>
			<point x="789" y="1205" type="curve" smooth="yes"/>
			<point x="842" y="1205"/>
			<point x="899" y="1191"/>
		</contour>
	</outline>
</glyph>
<glyph name="eight" format="2">
	<unicode hex="0038"/>
	<advance width="1204"/>
	<outline>
		<contour>
			<point x="242" y="1005" type="curve" smooth="yes"/>
			<point x="242" y="875"/>
			<point x="304" y="783"/>
			<point x="481" y="670" type="curve" smooth="yes"/>
			<point x="754" y="496"/>
			<point x="806" y="435"/>
			<point x="806" y="353" type="curve" smooth="yes"/>
			<point x="806" y="251"/>
			<point x="696" y="175"/>
			<point x="526" y="175" type="curve" smooth="yes"/>
			<point x="378" y="175"/>
			<point x="284" y="243"/>
			<point x="284" y="350" type="curve" smooth="yes"/>
			<point x="284" y="449"/>
			<point x="383" y="546"/>
			<point x="591" y="620" type="curve"/>
			<point x="483" y="756" type="line"/>
			<point x="192" y="643"/>
			<point x="65" y="476"/>
			<point x="65" y="313" type="curve" smooth="yes"/>
			<point x="65" y="120"/>
			<point x="228" y="-25"/>
			<point x="493" y="-25" type="curve" smooth="yes"/>
			<point x="795" y="-25"/>
			<point x="1044" y="147"/>
			<point x="1044" y="393" type="curve" smooth="yes"/>
			<point x="1044" y="517"/>
			<point x="965" y="630"/>
			<point x="731" y="778" type="curve" smooth="yes"/>
			<point x="566" y="882"/>
			<point x="479" y="945"/>
			<point x="479" y="1046" type="curve" smooth="yes"/>
			<point x="479" y="1155"/>
			<point x="586" y="1225"/>
			<point x="715" y="1225" type="curve" smooth="yes"/>
			<point x="831" y="1225"/>
			<point x="905" y="1165"/>
			<point x="905" y="1076" type="curve" smooth="yes"/>
			<point x="905" y="976"/>
			<point x="806" y="888"/>
			<point x="658" y="820" type="curve"/>
			<point x="786" y="699" type="line"/>
			<point x="1009" y="813"/>
			<point x="1139" y="958"/>
			<point x="1139" y="1125" type="curve" smooth="yes"/>
			<point x="1139" y="1312"/>
			<point x="994" y="1425"/>
			<point x="771" y="1425" type="curve" smooth="yes"/>
			<point x="466" y="1425"/>
			<point x="242" y="1228"/>
		</contour>
	</outline>
</glyph>
<glyph name="nine" format="2">
	<unicode hex="0039"/>
	<advance width="1128"/>
	<outline>
		<contour>
			<point x="826" y="726" type="curve"/>
			<point x="790" y="760" type="line"/>
			<point x="736" y="724"/>
			<point x="659" y="698"/>
			<point x="582" y="698" type="curve" smooth="yes"/>
			<point x="441" y="698"/>
			<point x="360" y="780"/>
			<point x="360" y="915" type="curve" smooth="yes"/>
			<point x="360" y="1087"/>
			<point x="485" y="1226"/>
			<point x="637" y="1226" type="curve" smooth="yes"/>
			<point x="740" y="1226"/>
			<point x="828" y="1155"/>
			<point x="828" y="996" type="curve" smooth="yes"/>
			<point x="828" y="774"/>
			<point x="764" y="640"/>
			<point x="275" y="174" type="curve" smooth="yes"/>
			<point x="240" y="141"/>
			<point x="223" y="119"/>
			<point x="223" y="84" type="curve" smooth="yes"/>
			<point x="223" y="20"/>
			<point x="286" y="-24"/>
			<point x="325" y="-24" type="curve" smooth="yes"/>
			<point x="360" y="-24"/>
			<point x="388" y="-10"/>
			<point x="456" y="48" type="curve" smooth="yes"/>
			<point x="909" y="434"/>
			<point x="1068" y="746"/>
			<point x="1068" y="1034" type="curve" smooth="yes"/>
			<point x="1068" y="1264"/>
			<point x="906" y="1425"/>
			<point x="666" y="1425" type="curve" smooth="yes"/>
			<point x="359" y="1425"/>
			<point x="120" y="1175"/>
			<point x="120" y="896" type="curve" smooth="yes"/>
			<point x="120" y="675"/>
			<point x="278" y="518"/>
			<point x="467" y="518" type="curve" smooth="yes"/>
			<point x="601" y="518"/>
			<point x="718" y="596"/>
		</contour>
	</outline>
</glyph>
<glyph name="less" format="2">
	<unicode hex="003C"/>
	<advance width="1200"/>
	<outline>
		<contour>
			<point x="748" y="305" type="curve" smooth="yes"/>
			<point x="810" y="305"/>
			<point x="868" y="371"/>
			<point x="868" y="432" type="curve" smooth="yes"/>
			<point x="868" y="468"/>
			<point x="847" y="489"/>
			<point x="787" y="529" type="curve" smooth="yes"/>
			<point x="469" y="741" type="line" smooth="yes"/>
			<point x="433" y="765"/>
			<point x="425" y="772"/>
			<point x="425" y="785" type="curve" smooth="yes"/>
			<point x="425" y="796"/>
			<point x="434" y="803"/>
			<point x="471" y="820" type="curve" smooth="yes"/>
			<point x="961" y="1047" type="line" smooth="yes"/>
			<point x="1030" y="1079"/>
			<point x="1060" y="1112"/>
			<point x="1060" y="1162" type="curve" smooth="yes"/>
			<point x="1060" y="1230"/>
			<point x="1006" y="1286"/>
			<point x="947" y="1286" type="curve" smooth="yes"/>
			<point x="923" y="1286"/>
			<point x="897" y="1277"/>
			<point x="858" y="1256" type="curve" smooth="yes"/>
			<point x="359" y="989" type="line" smooth="yes"/>
			<point x="243" y="927"/>
			<point x="205" y="859"/>
			<point x="205" y="786" type="curve" smooth="yes"/>
			<point x="205" y="727"/>
			<point x="236" y="669"/>
			<point x="328" y="598" type="curve" smooth="yes"/>
			<point x="644" y="354" type="line" smooth="yes"/>
			<point x="692" y="317"/>
			<point x="718" y="305"/>
		</contour>
	</outline>
</glyph>
<glyph name="question" format="2">
	<unicode hex="003F"/>
	<advance width="1089"/>
	<outline>
		<contour>
			<point x="447" y="450" type="curve" smooth="yes"/>
			<point x="541" y="450"/>
			<point x="638" y="491"/>
			<point x="703" y="548" type="curve" smooth="yes"/>
			<point x="734" y="575"/>
			<point x="748" y="598"/>
			<point x="748" y="625" type="curve" smooth="yes"/>
			<point x="748" y="671"/>
			<point x="708" y="712"/>
			<point x="665" y="712" type="curve" smooth="yes"/>
			<point x="651" y="712"/>
			<point x="645" y="710"/>
			<point x="625" y="699" type="curve" smooth="yes"/>
			<point x="587" y="677"/>
			<point x="538" y="650"/>
			<point x="482" y="650" type="curve" smooth="yes"/>
			<point x="435" y="650"/>
			<point x="410" y="672"/>
			<point x="410" y="710" type="curve" smooth="yes"/>
			<point x="410" y="758"/>
			<point x="450" y="795"/>
			<point x="622" y="901" type="curve" smooth="yes"/>
			<point x="866" y="1052"/>
			<point x="1009" y="1166"/>
			<point x="1009" y="1346" type="curve" smooth="yes"/>
			<point x="1009" y="1521"/>
			<point x="871" y="1625"/>
			<point x="680" y="1625" type="curve" smooth="yes"/>
			<point x="545" y="1625"/>
			<point x="395" y="1573"/>
			<point x="302" y="1511" type="curve" smooth="yes"/>
			<point x="259" y="1482"/>
			<point x="244" y="1461"/>
			<point x="244" y="1432" type="curve" smooth="yes"/>
			<point x="244" y="1380"/>
			<point x="293" y="1326"/>
			<point x="341" y="1326" type="curve" smooth="yes"/>
			<point x="364" y="1326"/>
			<point x="386" y="1336"/>
			<point x="432" y="1357" type="curve" smooth="yes"/>
			<point x="498" y="1387"/>
			<point x="575" y="1415"/>
			<point x="652" y="1415" type="curve" smooth="yes"/>
			<point x="738" y="1415"/>
			<point x="779" y="1378"/>
			<point x="779" y="1325" type="curve" smooth="yes"/>
			<point x="779" y="1273"/>
			<point x="755" y="1237"/>
			<point x="504" y="1077" type="curve" smooth="yes"/>
			<point x="264" y="924"/>
			<point x="190" y="831"/>
			<point x="190" y="701" type="curve" smooth="yes"/>
			<point x="190" y="555"/>
			<point x="297" y="450"/>
		</contour>
		<contour>
			<point x="323" y="-12" type="curve" smooth="yes"/>
			<point x="408" y="-12"/>
			<point x="497" y="74"/>
			<point x="497" y="168" type="curve" smooth="yes"/>
			<point x="497" y="240"/>
			<point x="446" y="291"/>
			<point x="375" y="291" type="curve" smooth="yes"/>
			<point x="287" y="291"/>
			<point x="210" y="213"/>
			<point x="210" y="115" type="curve" smooth="yes"/>
			<point x="210" y="36"/>
			<point x="260" y="-12"/>
		</contour>
	</outline>
</glyph>
<glyph name="A" format="2">
	<unicode hex="0041"/>
	<advance width="1493"/>
	<outline>
		<contour>
			<point x="1147" y="1324" type="curve" smooth="yes"/>
			<point x="753" y="930"/>
			<point x="301" y="531"/>
			<point x="-76" y="207" type="curve" smooth="yes"/>
			<point x="-146" y="147"/>
			<point x="-150" y="127"/>
			<point x="-150" y="104" type="curve" smooth="yes"/>
			<point x="-150" y="38"/>
			<point x="-88" y="-12"/>
			<point x="-38" y="-12" type="curve" smooth="yes"/>
			<point x="-7" y="-12"/>
			<point x="13" y="-3"/>
			<point x="43" y="23" type="curve" smooth="yes"/>
			<point x="450" y="376"/>
			<point x="888" y="781"/>
			<point x="1318" y="1245" type="curve"/>
			<point x="1228" y="1297" type="line"/>
			<point x="942" y="114" type="line" smooth="yes"/>
			<point x="936" y="89"/>
			<point x="935" y="77"/>
			<point x="935" y="68" type="curve" smooth="yes"/>
			<point x="935" y="18"/>
			<point x="996" y="-12"/>
			<point x="1066" y="-12" type="curve" smooth="yes"/>
			<point x="1123" y="-12"/>
			<point x="1169" y="-4"/>
			<point x="1183" y="72" type="curve" smooth="yes"/>
			<point x="1404" y="1247" type="line" smooth="yes"/>
			<point x="1413" y="1296"/>
			<point x="1415" y="1306"/>
			<point x="1415" y="1322" type="curve" smooth="yes"/>
			<point x="1415" y="1376"/>
			<point x="1360" y="1420"/>
			<point x="1291" y="1420" type="curve" smooth="yes"/>
			<point x="1253" y="1420"/>
			<point x="1218" y="1395"/>
		</contour>
	</outline>
	<anchor name="bottom" x="511" y="0"/>
	<anchor name="ogonek" x="987" y="0"/>
	<anchor name="top" x="1291" y="1400"/>
</glyph>
<glyph name="B" format="2">
	<unicode hex="0042"/>
	<advance width="1373"/>
	<outline>
		<contour>
			<point x="363" y="56" type="line"/>
			<point x="715" y="1350" type="line"/>
			<point x="475" y="1341" type="line"/>
			<point x="152" y="155" type="line"/>
		</contour>
		<contour>
			<point x="609" y="809" type="curve" smooth="yes"/>
			<point x="508" y="809" type="line"/>
			<point x="463" y="639" type="line"/>
			<point x="773" y="639"/>
			<point x="908" y="570"/>
			<point x="908" y="432" type="curve" smooth="yes"/>
			<point x="908" y="290"/>
			<point x="743" y="187"/>
			<point x="517" y="187" type="curve" smooth="yes"/>
			<point x="359" y="187"/>
			<point x="220" y="237"/>
			<point x="152" y="262" type="curve" smooth="yes"/>
			<point x="124" y="272"/>
			<point x="100" y="280"/>
			<point x="87" y="280" type="curve" smooth="yes"/>
			<point x="48" y="280"/>
			<point x="0" y="222"/>
			<point x="0" y="178" type="curve" smooth="yes"/>
			<point x="0" y="78"/>
			<point x="256" y="-12"/>
			<point x="518" y="-12" type="curve" smooth="yes"/>
			<point x="874" y="-12"/>
			<point x="1148" y="162"/>
			<point x="1148" y="415" type="curve" smooth="yes"/>
			<point x="1148" y="588"/>
			<point x="1011" y="707"/>
			<point x="739" y="741" type="curve"/>
			<point x="739" y="690" type="line"/>
			<point x="1063" y="690"/>
			<point x="1255" y="862"/>
			<point x="1255" y="1058" type="curve" smooth="yes"/>
			<point x="1255" y="1276"/>
			<point x="1037" y="1425"/>
			<point x="747" y="1425" type="curve" smooth="yes"/>
			<point x="495" y="1425"/>
			<point x="254" y="1349"/>
			<point x="254" y="1266" type="curve" smooth="yes"/>
			<point x="254" y="1234"/>
			<point x="288" y="1179"/>
			<point x="323" y="1179" type="curve" smooth="yes"/>
			<point x="339" y="1179"/>
			<point x="413" y="1189"/>
			<point x="452" y="1197" type="curve" smooth="yes"/>
			<point x="486" y="1204"/>
			<point x="581" y="1222"/>
			<point x="716" y="1222" type="curve" smooth="yes"/>
			<point x="899" y="1222"/>
			<point x="1016" y="1166"/>
			<point x="1016" y="1031" type="curve" smooth="yes"/>
			<point x="1016" y="885"/>
			<point x="881" y="809"/>
		</contour>
	</outline>
	<anchor name="bottom" x="481" y="0"/>
	<anchor name="center" x="409" y="712"/>
	<anchor name="top" x="755" y="1380"/>
</glyph>
<glyph name="C" format="2">
	<unicode hex="0043"/>
	<advance width="678"/>
	<outline>
		<contour>
			<point x="615" y="-12" type="curve" smooth="yes"/>
			<point x="684" y="-12"/>
			<point x="751" y="27"/>
			<point x="751" y="111" type="curve" smooth="yes"/>
			<point x="751" y="170"/>
			<point x="718" y="188"/>
			<point x="678" y="188" type="curve" smooth="yes"/>
			<point x="486" y="188"/>
			<point x="370" y="298"/>
			<point x="370" y="564" type="curve" smooth="yes"/>
			<point x="370" y="883"/>
			<point x="580" y="1225"/>
			<point x="828" y="1225" type="curve" smooth="yes"/>
			<point x="912" y="1225"/>
			<point x="967" y="1189"/>
			<point x="1002" y="1166" type="curve" smooth="yes"/>
			<point x="1030" y="1148"/>
			<point x="1046" y="1139"/>
			<point x="1067" y="1139" type="curve" smooth="yes"/>
			<point x="1115" y="1139"/>
			<point x="1167" y="1197"/>
			<point x="1167" y="1248" type="curve" smooth="yes"/>
			<point x="1167" y="1275"/>
			<point x="1153" y="1300"/>
			<point x="1115" y="1331" type="curve" smooth="yes"/>
			<point x="1043" y="1389"/>
			<point x="943" y="1425"/>
			<point x="836" y="1425" type="curve" smooth="yes"/>
			<point x="458" y="1425"/>
			<point x="120" y="1010"/>
			<point x="120" y="567" type="curve" smooth="yes"/>
			<point x="120" y="166"/>
			<point x="344" y="-12"/>
		</contour>
	</outline>
	<anchor name="bottom" x="628" y="0"/>
	<anchor name="top" x="840" y="1400"/>
</glyph>
<glyph name="D" format="2">
	<unicode hex="0044"/>
	<advance width="1424"/>
	<outline>
		<contour>
			<point x="0" y="176" type="curve" smooth="yes"/>
			<point x="0" y="80"/>
			<point x="239" y="-16"/>
			<point x="481" y="-16" type="curve" smooth="yes"/>
			<point x="963" y="-16"/>
			<point x="1324" y="335"/>
			<point x="1324" y="813" type="curve" smooth="yes"/>
			<point x="1324" y="1208"/>
			<point x="1068" y="1425"/>
			<point x="713" y="1425" type="curve" smooth="yes"/>
			<point x="459" y="1425"/>
			<point x="239" y="1347"/>
			<point x="239" y="1262" type="curve" smooth="yes"/>
			<point x="239" y="1231"/>
			<point x="269" y="1170"/>
			<point x="302" y="1170" type="curve" smooth="yes"/>
			<point x="319" y="1170"/>
			<point x="393" y="1183"/>
			<point x="438" y="1192" type="curve" smooth="yes"/>
			<point x="502" y="1205"/>
			<point x="614" y="1222"/>
			<point x="695" y="1222" type="curve" smooth="yes"/>
			<point x="907" y="1222"/>
			<point x="1074" y="1070"/>
			<point x="1074" y="785" type="curve" smooth="yes"/>
			<point x="1074" y="445"/>
			<point x="840" y="185"/>
			<point x="512" y="185" type="curve" smooth="yes"/>
			<point x="415" y="185"/>
			<point x="314" y="208"/>
			<point x="222" y="237" type="curve" smooth="yes"/>
			<point x="153" y="259"/>
			<point x="106" y="279"/>
			<point x="84" y="279" type="curve" smooth="yes"/>
			<point x="48" y="279"/>
			<point x="0" y="220"/>
		</contour>
		<contour>
			<point x="364" y="57" type="line"/>
			<point x="716" y="1354" type="line"/>
			<point x="475" y="1343" type="line"/>
			<point x="147" y="136" type="line"/>
		</contour>
	</outline>
	<anchor name="bottom" x="301" y="0"/>
	<anchor name="center" x="452" y="721"/>
	<anchor name="top" x="767" y="1380"/>
</glyph>
<glyph name="E" format="2">
	<unicode hex="0045"/>
	<advance width="552"/>
	<outline>
		<contour>
			<point x="464" y="-12" type="curve" smooth="yes"/>
			<point x="561" y="-12"/>
			<point x="626" y="40"/>
			<point x="626" y="137" type="curve" smooth="yes"/>
			<point x="626" y="176"/>
			<point x="603" y="188"/>
			<point x="568" y="188" type="curve" smooth="yes"/>
			<point x="407" y="188"/>
			<point x="295" y="264"/>
			<point x="295" y="395" type="curve" smooth="yes"/>
			<point x="295" y="540"/>
			<point x="420" y="634"/>
			<point x="549" y="680" type="curve"/>
			<point x="587" y="664"/>
			<point x="676" y="643"/>
			<point x="726" y="643" type="curve" smooth="yes"/>
			<point x="811" y="643"/>
			<point x="845" y="702"/>
			<point x="856" y="781" type="curve" smooth="yes"/>
			<point x="865" y="847"/>
			<point x="844" y="887"/>
			<point x="782" y="887" type="curve" smooth="yes"/>
			<point x="727" y="887"/>
			<point x="692" y="877"/>
			<point x="577" y="838" type="curve"/>
			<point x="507" y="862"/>
			<point x="447" y="923"/>
			<point x="447" y="1004" type="curve" smooth="yes"/>
			<point x="447" y="1126"/>
			<point x="554" y="1226"/>
			<point x="719" y="1226" type="curve" smooth="yes"/>
			<point x="789" y="1226"/>
			<point x="856" y="1206"/>
			<point x="930" y="1167" type="curve" smooth="yes"/>
			<point x="964" y="1149"/>
			<point x="974" y="1146"/>
			<point x="986" y="1146" type="curve" smooth="yes"/>
			<point x="1033" y="1146"/>
			<point x="1084" y="1208"/>
			<point x="1084" y="1265" type="curve" smooth="yes"/>
			<point x="1084" y="1292"/>
			<point x="1075" y="1305"/>
			<point x="1043" y="1330" type="curve" smooth="yes"/>
			<point x="975" y="1383"/>
			<point x="863" y="1425"/>
			<point x="739" y="1425" type="curve" smooth="yes"/>
			<point x="410" y="1425"/>
			<point x="208" y="1221"/>
			<point x="208" y="1019" type="curve" smooth="yes"/>
			<point x="208" y="907"/>
			<point x="280" y="808"/>
			<point x="399" y="747" type="curve"/>
			<point x="407" y="782" type="line"/>
			<point x="220" y="709"/>
			<point x="60" y="530"/>
			<point x="60" y="334" type="curve" smooth="yes"/>
			<point x="60" y="117"/>
			<point x="279" y="-12"/>
		</contour>
	</outline>
	<anchor name="bottom" x="522" y="20"/>
	<anchor name="ogonek" x="628" y="0"/>
	<anchor name="top" x="739" y="1400"/>
	<anchor name="topleft" x="456" y="1400"/>
</glyph>
<glyph name="F" format="2">
	<unicode hex="0046"/>
	<advance width="1138"/>
	<outline>
		<contour>
			<point x="281" y="84" type="curve" smooth="yes"/>
			<point x="354" y="409"/>
			<point x="472" y="874"/>
			<point x="612" y="1327" type="curve"/>
			<point x="374" y="1327" type="line"/>
			<point x="243" y="928"/>
			<point x="125" y="475"/>
			<point x="55" y="167" type="curve" smooth="yes"/>
			<point x="44" y="119"/>
			<point x="40" y="95"/>
			<point x="40" y="73" type="curve" smooth="yes"/>
			<point x="40" y="18"/>
			<point x="88" y="-12"/>
			<point x="176" y="-12" type="curve" smooth="yes"/>
			<point x="235" y="-12"/>
			<point x="264" y="9"/>
		</contour>
		<contour>
			<point x="256" y="1163" type="curve" smooth="yes"/>
			<point x="303" y="1163"/>
			<point x="986" y="1170"/>
			<point x="1041" y="1172" type="curve" smooth="yes"/>
			<point x="1115" y="1175"/>
			<point x="1148" y="1224"/>
			<point x="1148" y="1312" type="curve" smooth="yes"/>
			<point x="1148" y="1371"/>
			<point x="1118" y="1400"/>
			<point x="1047" y="1400" type="curve" smooth="yes"/>
			<point x="818" y="1400"/>
			<point x="328" y="1393"/>
			<point x="266" y="1388" type="curve" smooth="yes"/>
			<point x="215" y="1384"/>
			<point x="185" y="1335"/>
			<point x="185" y="1269" type="curve" smooth="yes"/>
			<point x="185" y="1210"/>
			<point x="211" y="1163"/>
		</contour>
		<contour>
			<point x="600" y="783" type="curve" smooth="yes"/>
			<point x="356" y="773" type="line"/>
			<point x="322" y="556" type="line"/>
			<point x="394" y="557"/>
			<point x="729" y="563"/>
			<point x="830" y="566" type="curve" smooth="yes"/>
			<point x="897" y="568"/>
			<point x="933" y="609"/>
			<point x="933" y="696" type="curve" smooth="yes"/>
			<point x="933" y="765"/>
			<point x="904" y="792"/>
			<point x="862" y="792" type="curve" smooth="yes"/>
			<point x="814" y="792"/>
			<point x="698" y="787"/>
		</contour>
	</outline>
</glyph>
<glyph name="G" format="2">
	<unicode hex="0047"/>
	<advance width="1020"/>
	<outline>
		<contour>
			<point x="896" y="385" type="curve"/>
			<point x="860" y="394" type="line"/>
			<point x="856" y="251"/>
			<point x="904" y="79"/>
			<point x="851" y="-144" type="curve" smooth="yes"/>
			<point x="823" y="-265"/>
			<point x="738" y="-329"/>
			<point x="668" y="-329" type="curve" smooth="yes"/>
			<point x="619" y="-329"/>
			<point x="585" y="-300"/>
			<point x="585" y="-260" type="curve" smooth="yes"/>
			<point x="585" y="-174"/>
			<point x="649" y="-110"/>
			<point x="932" y="19" type="curve"/>
			<point x="932" y="183" type="line"/>
			<point x="500" y="3"/>
			<point x="375" y="-136"/>
			<point x="375" y="-274" type="curve" smooth="yes"/>
			<point x="375" y="-396"/>
			<point x="482" y="-470"/>
			<point x="626" y="-470" type="curve" smooth="yes"/>
			<point x="846" y="-470"/>
			<point x="1026" y="-334"/>
			<point x="1064" y="-115" type="curve" smooth="yes"/>
			<point x="1097" y="77"/>
			<point x="1046" y="211"/>
			<point x="1072" y="509" type="curve"/>
			<point x="1122" y="619"/>
			<point x="1152" y="715"/>
			<point x="1152" y="744" type="curve" smooth="yes"/>
			<point x="1152" y="786"/>
			<point x="1114" y="826"/>
			<point x="1015" y="826" type="curve" smooth="yes"/>
			<point x="969" y="826"/>
			<point x="944" y="812"/>
			<point x="922" y="739" type="curve" smooth="yes"/>
			<point x="836" y="458"/>
			<point x="722" y="310"/>
			<point x="583" y="310" type="curve" smooth="yes"/>
			<point x="447" y="310"/>
			<point x="370" y="426"/>
			<point x="370" y="607" type="curve" smooth="yes"/>
			<point x="370" y="908"/>
			<point x="565" y="1225"/>
			<point x="795" y="1225" type="curve" smooth="yes"/>
			<point x="877" y="1225"/>
			<point x="946" y="1201"/>
			<point x="1013" y="1160" type="curve" smooth="yes"/>
			<point x="1052" y="1136"/>
			<point x="1061" y="1134"/>
			<point x="1077" y="1134" type="curve" smooth="yes"/>
			<point x="1127" y="1134"/>
			<point x="1177" y="1195"/>
			<point x="1177" y="1241" type="curve" smooth="yes"/>
			<point x="1177" y="1261"/>
			<point x="1171" y="1290"/>
			<point x="1125" y="1326" type="curve" smooth="yes"/>
			<point x="1047" y="1388"/>
			<point x="928" y="1425"/>
			<point x="812" y="1425" type="curve" smooth="yes"/>
			<point x="444" y="1425"/>
			<point x="120" y="1052"/>
			<point x="120" y="583" type="curve" smooth="yes"/>
			<point x="120" y="317"/>
			<point x="288" y="110"/>
			<point x="505" y="110" type="curve" smooth="yes"/>
			<point x="670" y="110"/>
			<point x="832" y="225"/>
		</contour>
	</outline>
	<anchor name="bottom" x="475" y="0"/>
	<anchor name="top" x="812" y="1425"/>
	<guideline x="689" y="-470" angle="0"/>
</glyph>
<glyph name="H" format="2">
	<unicode hex="0048"/>
	<advance width="1409"/>
	<outline>
		<contour>
			<point x="316" y="72" type="curve" smooth="yes"/>
			<point x="645" y="1284" type="line" smooth="yes"/>
			<point x="652" y="1311"/>
			<point x="653" y="1320"/>
			<point x="653" y="1328" type="curve" smooth="yes"/>
			<point x="653" y="1360"/>
			<point x="600" y="1400"/>
			<point x="515" y="1400" type="curve" smooth="yes"/>
			<point x="458" y="1400"/>
			<point x="432" y="1390"/>
			<point x="421" y="1349" type="curve" smooth="yes"/>
			<point x="96" y="157" type="line" smooth="yes"/>
			<point x="86" y="122"/>
			<point x="80" y="94"/>
			<point x="80" y="74" type="curve" smooth="yes"/>
			<point x="80" y="24"/>
			<point x="143" y="-12"/>
			<point x="223" y="-12" type="curve" smooth="yes"/>
			<point x="278" y="-12"/>
			<point x="300" y="14"/>
		</contour>
		<contour>
			<point x="1018" y="72" type="curve" smooth="yes"/>
			<point x="1347" y="1284" type="line" smooth="yes"/>
			<point x="1354" y="1311"/>
			<point x="1355" y="1320"/>
			<point x="1355" y="1328" type="curve" smooth="yes"/>
			<point x="1355" y="1360"/>
			<point x="1302" y="1400"/>
			<point x="1217" y="1400" type="curve" smooth="yes"/>
			<point x="1160" y="1400"/>
			<point x="1134" y="1390"/>
			<point x="1123" y="1349" type="curve" smooth="yes"/>
			<point x="798" y="157" type="line" smooth="yes"/>
			<point x="788" y="122"/>
			<point x="782" y="94"/>
			<point x="782" y="74" type="curve" smooth="yes"/>
			<point x="782" y="24"/>
			<point x="845" y="-12"/>
			<point x="925" y="-12" type="curve" smooth="yes"/>
			<point x="980" y="-12"/>
			<point x="1002" y="14"/>
		</contour>
	</outline>
	<anchor name="bottom" x="565" y="0"/>
	<anchor name="center" x="783" y="830"/>
	<anchor name="top" x="927" y="1400"/>
	<anchor name="topleft" x="486" y="1400"/>
</glyph>
<glyph name="I" format="2">
	<unicode hex="0049"/>
	<advance width="698"/>
	<outline>
		<contour>
			<point x="327" y="116" type="curve" smooth="yes"/>
			<point x="432" y="511"/>
			<point x="521" y="862"/>
			<point x="626" y="1237" type="curve" smooth="yes"/>
			<point x="639" y="1285"/>
			<point x="644" y="1299"/>
			<point x="644" y="1323" type="curve" smooth="yes"/>
			<point x="644" y="1363"/>
			<point x="590" y="1400"/>
			<point x="501" y="1400" type="curve" smooth="yes"/>
			<point x="449" y="1400"/>
			<point x="424" y="1390"/>
			<point x="398" y="1301" type="curve" smooth="yes"/>
			<point x="305" y="983"/>
			<point x="203" y="595"/>
			<point x="116" y="248" type="curve" smooth="yes"/>
			<point x="86" y="129"/>
			<point x="80" y="101"/>
			<point x="80" y="82" type="curve" smooth="yes"/>
			<point x="80" y="27"/>
			<point x="132" y="-12"/>
			<point x="200" y="-12" type="curve" smooth="yes"/>
			<point x="289" y="-12"/>
			<point x="311" y="54"/>
		</contour>
	</outline>
	<anchor name="bottom" x="170" y="0"/>
	<anchor name="ogonek" x="174" y="0"/>
	<anchor name="top" x="547" y="1400"/>
	<anchor name="topleft" x="479" y="1400"/>
</glyph>
<glyph name="J" format="2">
	<unicode hex="004A"/>
	<advance width="488"/>
	<outline>
		<contour>
			<point x="316" y="-1" type="curve"/>
			<point x="360" y="192" type="line"/>
			<point x="-89" y="25"/>
			<point x="-222" y="-143"/>
			<point x="-222" y="-285" type="curve" smooth="yes"/>
			<point x="-222" y="-414"/>
			<point x="-115" y="-481"/>
			<point x="5" y="-481" type="curve" smooth="yes"/>
			<point x="213" y="-481"/>
			<point x="442" y="-324"/>
			<point x="511" y="52" type="curve" smooth="yes"/>
			<point x="573" y="392"/>
			<point x="708" y="915"/>
			<point x="770" y="1107" type="curve" smooth="yes"/>
			<point x="812" y="1238"/>
			<point x="827" y="1291"/>
			<point x="827" y="1323" type="curve" smooth="yes"/>
			<point x="827" y="1370"/>
			<point x="796" y="1400"/>
			<point x="753" y="1400" type="curve" smooth="yes"/>
			<point x="728" y="1400"/>
			<point x="680" y="1396"/>
			<point x="652" y="1395" type="curve" smooth="yes"/>
			<point x="608" y="1393"/>
			<point x="542" y="1391"/>
			<point x="500" y="1391" type="curve" smooth="yes"/>
			<point x="457" y="1391"/>
			<point x="457" y="1391"/>
			<point x="361" y="1394" type="curve" smooth="yes"/>
			<point x="321" y="1395"/>
			<point x="261" y="1400"/>
			<point x="201" y="1400" type="curve" smooth="yes"/>
			<point x="146" y="1400"/>
			<point x="103" y="1368"/>
			<point x="103" y="1264" type="curve" smooth="yes"/>
			<point x="103" y="1219"/>
			<point x="126" y="1189"/>
			<point x="158" y="1181" type="curve" smooth="yes"/>
			<point x="209" y="1168"/>
			<point x="256" y="1167"/>
			<point x="351" y="1167" type="curve" smooth="yes"/>
			<point x="455" y="1167"/>
			<point x="551" y="1170"/>
			<point x="600" y="1178" type="curve"/>
			<point x="556" y="1201" type="line"/>
			<point x="480" y="951"/>
			<point x="370" y="553"/>
			<point x="285" y="69" type="curve" smooth="yes"/>
			<point x="238" y="-199"/>
			<point x="154" y="-311"/>
			<point x="47" y="-311" type="curve" smooth="yes"/>
			<point x="-5" y="-311"/>
			<point x="-32" y="-288"/>
			<point x="-32" y="-249" type="curve" smooth="yes"/>
			<point x="-32" y="-187"/>
			<point x="45" y="-108"/>
		</contour>
	</outline>
	<anchor name="bottom" x="-13" y="-470"/>
	<anchor name="center" x="465" y="717"/>
	<anchor name="top" x="670" y="1395"/>
</glyph>
<glyph name="K" format="2">
	<unicode hex="004B"/>
	<advance width="1029"/>
	<outline>
		<contour>
			<point x="327" y="118" type="curve" smooth="yes"/>
			<point x="418" y="495"/>
			<point x="516" y="878"/>
			<point x="629" y="1257" type="curve" smooth="yes"/>
			<point x="644" y="1306"/>
			<point x="646" y="1321"/>
			<point x="646" y="1334" type="curve" smooth="yes"/>
			<point x="646" y="1366"/>
			<point x="592" y="1406"/>
			<point x="507" y="1406" type="curve" smooth="yes"/>
			<point x="449" y="1406"/>
			<point x="427" y="1397"/>
			<point x="399" y="1305" type="curve" smooth="yes"/>
			<point x="298" y="970"/>
			<point x="199" y="594"/>
			<point x="105" y="210" type="curve" smooth="yes"/>
			<point x="87" y="134"/>
			<point x="80" y="105"/>
			<point x="80" y="85" type="curve" smooth="yes"/>
			<point x="80" y="28"/>
			<point x="135" y="-11"/>
			<point x="202" y="-11" type="curve" smooth="yes"/>
			<point x="270" y="-11"/>
			<point x="305" y="29"/>
		</contour>
		<contour>
			<point x="465" y="868" type="curve"/>
			<point x="402" y="636" type="line"/>
			<point x="439" y="570"/>
			<point x="493" y="472"/>
			<point x="578" y="342" type="curve" smooth="yes"/>
			<point x="769" y="33"/>
			<point x="859" y="-12"/>
			<point x="980" y="-12" type="curve" smooth="yes"/>
			<point x="1046" y="-12"/>
			<point x="1095" y="57"/>
			<point x="1095" y="109" type="curve" smooth="yes"/>
			<point x="1095" y="170"/>
			<point x="1072" y="188"/>
			<point x="1032" y="188" type="curve" smooth="yes"/>
			<point x="969" y="188"/>
			<point x="927" y="233"/>
			<point x="701" y="544" type="curve" smooth="yes"/>
			<point x="580" y="709"/>
			<point x="558" y="742"/>
			<point x="513" y="816" type="curve"/>
			<point x="462" y="674" type="line"/>
			<point x="688" y="789"/>
			<point x="1047" y="1002"/>
			<point x="1277" y="1203" type="curve" smooth="yes"/>
			<point x="1312" y="1236"/>
			<point x="1320" y="1260"/>
			<point x="1320" y="1291" type="curve" smooth="yes"/>
			<point x="1320" y="1345"/>
			<point x="1261" y="1406"/>
			<point x="1199" y="1406" type="curve" smooth="yes"/>
			<point x="1169" y="1406"/>
			<point x="1157" y="1402"/>
			<point x="1096" y="1346" type="curve" smooth="yes"/>
			<point x="923" y="1192"/>
			<point x="720" y="1037"/>
		</contour>
	</outline>
	<anchor name="bottom" x="530" y="0"/>
	<anchor name="top" x="888" y="1400"/>
	<anchor name="topleft" x="473" y="1400"/>
</glyph>
<glyph name="L" format="2">
	<unicode hex="004C"/>
	<advance width="815"/>
	<outline>
		<contour>
			<point x="0" y="144" type="curve" smooth="yes"/>
			<point x="0" y="54"/>
			<point x="83" y="-25"/>
			<point x="180" y="-25" type="curve" smooth="yes"/>
			<point x="260" y="-25"/>
			<point x="400" y="39"/>
			<point x="482" y="214" type="curve" smooth="yes"/>
			<point x="539" y="336"/>
			<point x="593" y="497"/>
			<point x="641" y="761" type="curve" smooth="yes"/>
			<point x="704" y="1107"/>
			<point x="793" y="1220"/>
			<point x="924" y="1220" type="curve" smooth="yes"/>
			<point x="978" y="1220"/>
			<point x="1045" y="1201"/>
			<point x="1119" y="1162" type="curve" smooth="yes"/>
			<point x="1153" y="1144"/>
			<point x="1163" y="1141"/>
			<point x="1175" y="1141" type="curve" smooth="yes"/>
			<point x="1222" y="1141"/>
			<point x="1273" y="1203"/>
			<point x="1273" y="1260" type="curve" smooth="yes"/>
			<point x="1273" y="1284"/>
			<point x="1264" y="1300"/>
			<point x="1232" y="1325" type="curve" smooth="yes"/>
			<point x="1164" y="1378"/>
			<point x="1052" y="1420"/>
			<point x="930" y="1420" type="curve" smooth="yes"/>
			<point x="667" y="1420"/>
			<point x="481" y="1233"/>
			<point x="412" y="808" type="curve" smooth="yes"/>
			<point x="362" y="502"/>
			<point x="340" y="370"/>
			<point x="273" y="200" type="curve" smooth="yes"/>
			<point x="247" y="134"/>
			<point x="208" y="137"/>
			<point x="187" y="137" type="curve" smooth="yes"/>
			<point x="175" y="137"/>
			<point x="155" y="141"/>
			<point x="155" y="162" type="curve" smooth="yes"/>
			<point x="155" y="177"/>
			<point x="169" y="192"/>
			<point x="203" y="192" type="curve" smooth="yes"/>
			<point x="241" y="192"/>
			<point x="268" y="179"/>
			<point x="375" y="121" type="curve" smooth="yes"/>
			<point x="539" y="32"/>
			<point x="653" y="-12"/>
			<point x="746" y="-12" type="curve" smooth="yes"/>
			<point x="794" y="-12"/>
			<point x="846" y="23"/>
			<point x="846" y="103" type="curve" smooth="yes"/>
			<point x="846" y="165"/>
			<point x="827" y="188"/>
			<point x="805" y="188" type="curve" smooth="yes"/>
			<point x="727" y="188"/>
			<point x="639" y="212"/>
			<point x="496" y="280" type="curve" smooth="yes"/>
			<point x="378" y="336"/>
			<point x="313" y="351"/>
			<point x="260" y="351" type="curve" smooth="yes"/>
			<point x="92" y="351"/>
			<point x="0" y="268"/>
		</contour>
	</outline>
	<anchor name="bottom" x="520" y="0"/>
	<anchor name="center" x="564" y="760"/>
	<anchor name="top" x="923" y="1400"/>
	<anchor name="topright" x="1250" y="1373"/>
</glyph>
<glyph name="M" format="2">
	<unicode hex="004D"/>
	<advance width="1745"/>
	<outline>
		<contour>
			<point x="21" y="-11" type="curve" smooth="yes"/>
			<point x="57" y="-11"/>
			<point x="79" y="-3"/>
			<point x="112" y="39" type="curve" smooth="yes"/>
			<point x="453" y="482"/>
			<point x="643" y="755"/>
			<point x="814" y="1047" type="curve"/>
			<point x="802" y="1106" type="line"/>
			<point x="791" y="936"/>
			<point x="773" y="729"/>
			<point x="759" y="595" type="curve" smooth="yes"/>
			<point x="744" y="452"/>
			<point x="735" y="338"/>
			<point x="735" y="290" type="curve" smooth="yes"/>
			<point x="735" y="210"/>
			<point x="811" y="167"/>
			<point x="867" y="167" type="curve" smooth="yes"/>
			<point x="905" y="167"/>
			<point x="949" y="176"/>
			<point x="1027" y="279" type="curve" smooth="yes"/>
			<point x="1105" y="374"/>
			<point x="1342" y="677"/>
			<point x="1650" y="1055" type="curve"/>
			<point x="1646" y="1087" type="line"/>
			<point x="1468" y="570" type="line" smooth="yes"/>
			<point x="1422" y="437"/>
			<point x="1395" y="327"/>
			<point x="1395" y="243" type="curve" smooth="yes"/>
			<point x="1395" y="87"/>
			<point x="1512" y="-12"/>
			<point x="1673" y="-12" type="curve" smooth="yes"/>
			<point x="1735" y="-12"/>
			<point x="1775" y="32"/>
			<point x="1775" y="114" type="curve" smooth="yes"/>
			<point x="1775" y="164"/>
			<point x="1753" y="188"/>
			<point x="1724" y="188" type="curve" smooth="yes"/>
			<point x="1662" y="188"/>
			<point x="1630" y="212"/>
			<point x="1630" y="294" type="curve" smooth="yes"/>
			<point x="1630" y="343"/>
			<point x="1643" y="409"/>
			<point x="1671" y="497" type="curve" smooth="yes"/>
			<point x="1885" y="1160" type="line" smooth="yes"/>
			<point x="1899" y="1205"/>
			<point x="1917" y="1262"/>
			<point x="1917" y="1290" type="curve" smooth="yes"/>
			<point x="1917" y="1350"/>
			<point x="1848" y="1410"/>
			<point x="1762" y="1410" type="curve" smooth="yes"/>
			<point x="1716" y="1410"/>
			<point x="1699" y="1394"/>
			<point x="1629" y="1314" type="curve" smooth="yes"/>
			<point x="1517" y="1193"/>
			<point x="1068" y="613"/>
			<point x="935" y="432" type="curve"/>
			<point x="954" y="399" type="line"/>
			<point x="974" y="580"/>
			<point x="994" y="842"/>
			<point x="1006" y="971" type="curve" smooth="yes"/>
			<point x="1017" y="1087"/>
			<point x="1027" y="1263"/>
			<point x="1027" y="1297" type="curve" smooth="yes"/>
			<point x="1027" y="1363"/>
			<point x="961" y="1406"/>
			<point x="894" y="1406" type="curve" smooth="yes"/>
			<point x="835" y="1406"/>
			<point x="817" y="1387"/>
			<point x="760" y="1294" type="curve" smooth="yes"/>
			<point x="490" y="877"/>
			<point x="341" y="681"/>
			<point x="-1" y="239" type="curve" smooth="yes"/>
			<point x="-58" y="169"/>
			<point x="-90" y="130"/>
			<point x="-90" y="93" type="curve" smooth="yes"/>
			<point x="-90" y="43"/>
			<point x="-29" y="-11"/>
		</contour>
	</outline>
	<anchor name="bottom" x="766" y="0"/>
	<anchor name="top" x="1402" y="1400"/>
</glyph>
<glyph name="N" format="2">
	<unicode hex="004E"/>
	<advance width="1443"/>
	<outline>
		<contour>
			<point x="360" y="1174" type="curve" smooth="yes"/>
			<point x="789" y="194" type="line" smooth="yes"/>
			<point x="857" y="38"/>
			<point x="883" y="-11"/>
			<point x="970" y="-11" type="curve" smooth="yes"/>
			<point x="1047" y="-11"/>
			<point x="1093" y="36"/>
			<point x="1129" y="166" type="curve" smooth="yes"/>
			<point x="1173" y="338"/>
			<point x="1377" y="1102"/>
			<point x="1404" y="1202" type="curve" smooth="yes"/>
			<point x="1427" y="1271"/>
			<point x="1432" y="1301"/>
			<point x="1432" y="1316" type="curve" smooth="yes"/>
			<point x="1432" y="1370"/>
			<point x="1381" y="1406"/>
			<point x="1307" y="1406" type="curve" smooth="yes"/>
			<point x="1248" y="1406"/>
			<point x="1231" y="1367"/>
			<point x="1211" y="1302" type="curve" smooth="yes"/>
			<point x="1168" y="1147"/>
			<point x="976" y="365"/>
			<point x="947" y="203" type="curve"/>
			<point x="1004" y="222" type="line"/>
			<point x="555" y="1286" type="line" smooth="yes"/>
			<point x="514" y="1383"/>
			<point x="493" y="1406"/>
			<point x="434" y="1406" type="curve" smooth="yes"/>
			<point x="372" y="1406"/>
			<point x="319" y="1365"/>
			<point x="319" y="1305" type="curve" smooth="yes"/>
			<point x="319" y="1280"/>
			<point x="331" y="1241"/>
		</contour>
		<contour>
			<point x="553" y="1090" type="curve"/>
			<point x="388" y="1190" type="line"/>
			<point x="288" y="838"/>
			<point x="154" y="367"/>
			<point x="94" y="154" type="curve" smooth="yes"/>
			<point x="83" y="115"/>
			<point x="80" y="96"/>
			<point x="80" y="80" type="curve" smooth="yes"/>
			<point x="80" y="25"/>
			<point x="141" y="-11"/>
			<point x="206" y="-11" type="curve" smooth="yes"/>
			<point x="249" y="-11"/>
			<point x="276" y="25"/>
			<point x="289" y="72" type="curve" smooth="yes"/>
			<point x="351" y="299"/>
			<point x="525" y="972"/>
		</contour>
	</outline>
	<anchor name="bottom" x="603" y="-13"/>
	<anchor name="top" x="902" y="1400"/>
</glyph>
<glyph name="O" format="2">
	<unicode hex="004F"/>
	<advance width="1424"/>
	<outline>
		<contour>
			<point x="528" y="-11" type="curve" smooth="yes"/>
			<point x="965" y="-11"/>
			<point x="1324" y="498"/>
			<point x="1324" y="943" type="curve" smooth="yes"/>
			<point x="1324" y="1285"/>
			<point x="1137" y="1425"/>
			<point x="897" y="1425" type="curve" smooth="yes"/>
			<point x="461" y="1425"/>
			<point x="120" y="936"/>
			<point x="120" y="489" type="curve" smooth="yes"/>
			<point x="120" y="144"/>
			<point x="287" y="-11"/>
		</contour>
		<contour>
			<point x="574" y="204" type="curve" smooth="yes"/>
			<point x="456" y="204"/>
			<point x="370" y="279"/>
			<point x="370" y="503" type="curve" smooth="yes"/>
			<point x="370" y="842"/>
			<point x="612" y="1211"/>
			<point x="851" y="1211" type="curve" smooth="yes"/>
			<point x="965" y="1211"/>
			<point x="1074" y="1148"/>
			<point x="1074" y="929" type="curve" smooth="yes"/>
			<point x="1074" y="583"/>
			<point x="806" y="204"/>
		</contour>
	</outline>
	<anchor name="Qtail" x="655" y="0"/>
	<anchor name="bottom" x="548" y="0"/>
	<anchor name="center" x="718" y="721"/>
	<anchor name="ogonek" x="595" y="9"/>
	<anchor name="top" x="887" y="1400"/>
	<anchor name="topleft" x="320" y="1265"/>
	<anchor name="topright" x="1485" y="1265"/>
</glyph>
<glyph name="P" format="2">
	<unicode hex="0050"/>
	<advance width="1162"/>
	<outline>
		<contour>
			<point x="277" y="115" type="curve" smooth="yes"/>
			<point x="603" y="1344" type="line"/>
			<point x="360" y="1344" type="line"/>
			<point x="54" y="195" type="line" smooth="yes"/>
			<point x="31" y="109"/>
			<point x="30" y="99"/>
			<point x="30" y="86" type="curve" smooth="yes"/>
			<point x="30" y="17"/>
			<point x="94" y="-13"/>
			<point x="165" y="-13" type="curve" smooth="yes"/>
			<point x="232" y="-13"/>
			<point x="250" y="13"/>
		</contour>
		<contour>
			<point x="306" y="703" type="curve"/>
			<point x="258" y="535" type="line"/>
			<point x="342" y="504"/>
			<point x="474" y="478"/>
			<point x="592" y="478" type="curve" smooth="yes"/>
			<point x="924" y="478"/>
			<point x="1177" y="694"/>
			<point x="1177" y="986" type="curve" smooth="yes"/>
			<point x="1177" y="1248"/>
			<point x="957" y="1425"/>
			<point x="617" y="1425" type="curve" smooth="yes"/>
			<point x="364" y="1425"/>
			<point x="126" y="1350"/>
			<point x="126" y="1267" type="curve" smooth="yes"/>
			<point x="126" y="1233"/>
			<point x="160" y="1179"/>
			<point x="198" y="1179" type="curve" smooth="yes"/>
			<point x="211" y="1179"/>
			<point x="249" y="1182"/>
			<point x="325" y="1197" type="curve" smooth="yes"/>
			<point x="388" y="1209"/>
			<point x="479" y="1225"/>
			<point x="577" y="1225" type="curve" smooth="yes"/>
			<point x="811" y="1225"/>
			<point x="942" y="1118"/>
			<point x="942" y="950" type="curve" smooth="yes"/>
			<point x="942" y="782"/>
			<point x="804" y="673"/>
			<point x="546" y="673" type="curve" smooth="yes"/>
			<point x="449" y="673"/>
			<point x="379" y="687"/>
		</contour>
	</outline>
	<anchor name="bottom" x="109" y="0"/>
	<anchor name="top" x="661" y="1400"/>
</glyph>
<glyph name="R" format="2">
	<unicode hex="0052"/>
	<advance width="1023"/>
	<outline>
		<contour>
			<point x="277" y="114" type="curve" smooth="yes"/>
			<point x="597" y="1354" type="line"/>
			<point x="359" y="1354" type="line"/>
			<point x="51" y="193" type="line" smooth="yes"/>
			<point x="31" y="119"/>
			<point x="30" y="106"/>
			<point x="30" y="86" type="curve" smooth="yes"/>
			<point x="30" y="18"/>
			<point x="95" y="-13"/>
			<point x="166" y="-13" type="curve" smooth="yes"/>
			<point x="232" y="-13"/>
			<point x="251" y="13"/>
		</contour>
		<contour>
			<point x="131" y="1271" type="curve" smooth="yes"/>
			<point x="131" y="1236"/>
			<point x="170" y="1178"/>
			<point x="203" y="1178" type="curve" smooth="yes"/>
			<point x="225" y="1178"/>
			<point x="255" y="1182"/>
			<point x="340" y="1196" type="curve" smooth="yes"/>
			<point x="438" y="1212"/>
			<point x="523" y="1224"/>
			<point x="586" y="1224" type="curve" smooth="yes"/>
			<point x="782" y="1224"/>
			<point x="936" y="1129"/>
			<point x="936" y="978" type="curve" smooth="yes"/>
			<point x="936" y="810"/>
			<point x="799" y="722"/>
			<point x="620" y="722" type="curve" smooth="yes"/>
			<point x="540" y="722"/>
			<point x="441" y="736"/>
			<point x="394" y="751" type="curve"/>
			<point x="316" y="627" type="line"/>
			<point x="354" y="551"/>
			<point x="437" y="390"/>
			<point x="597" y="188" type="curve" smooth="yes"/>
			<point x="704" y="53"/>
			<point x="816" y="-12"/>
			<point x="953" y="-12" type="curve" smooth="yes"/>
			<point x="1013" y="-12"/>
			<point x="1050" y="61"/>
			<point x="1050" y="114" type="curve" smooth="yes"/>
			<point x="1050" y="169"/>
			<point x="1021" y="188"/>
			<point x="1002" y="188" type="curve" smooth="yes"/>
			<point x="907" y="188"/>
			<point x="842" y="229"/>
			<point x="698" y="395" type="curve" smooth="yes"/>
			<point x="612" y="494"/>
			<point x="551" y="570"/>
			<point x="529" y="605" type="curve"/>
			<point x="516" y="592" type="line"/>
			<point x="549" y="573"/>
			<point x="599" y="562"/>
			<point x="651" y="562" type="curve" smooth="yes"/>
			<point x="938" y="562"/>
			<point x="1165" y="752"/>
			<point x="1165" y="996" type="curve" smooth="yes"/>
			<point x="1165" y="1253"/>
			<point x="908" y="1425"/>
			<point x="624" y="1425" type="curve" smooth="yes"/>
			<point x="313" y="1425"/>
			<point x="131" y="1353"/>
		</contour>
	</outline>
	<anchor name="bottom" x="449" y="0"/>
	<anchor name="top" x="639" y="1400"/>
</glyph>
<glyph name="S" format="2">
	<unicode hex="0053"/>
	<advance width="1135"/>
	<outline>
		<contour>
			<point x="444" y="-17" type="curve" smooth="yes"/>
			<point x="747" y="-17"/>
			<point x="952" y="157"/>
			<point x="952" y="408" type="curve" smooth="yes"/>
			<point x="952" y="561"/>
			<point x="871" y="700"/>
			<point x="668" y="827" type="curve" smooth="yes"/>
			<point x="505" y="929"/>
			<point x="454" y="990"/>
			<point x="454" y="1055" type="curve" smooth="yes"/>
			<point x="454" y="1134"/>
			<point x="522" y="1205"/>
			<point x="688" y="1205" type="curve" smooth="yes"/>
			<point x="767" y="1205"/>
			<point x="829" y="1189"/>
			<point x="883" y="1173" type="curve" smooth="yes"/>
			<point x="926" y="1160"/>
			<point x="950" y="1153"/>
			<point x="965" y="1153" type="curve" smooth="yes"/>
			<point x="1018" y="1153"/>
			<point x="1056" y="1213"/>
			<point x="1056" y="1270" type="curve" smooth="yes"/>
			<point x="1056" y="1315"/>
			<point x="1020" y="1349"/>
			<point x="959" y="1375" type="curve" smooth="yes"/>
			<point x="882" y="1408"/>
			<point x="795" y="1425"/>
			<point x="704" y="1425" type="curve" smooth="yes"/>
			<point x="417" y="1425"/>
			<point x="224" y="1265"/>
			<point x="224" y="1038" type="curve" smooth="yes"/>
			<point x="224" y="882"/>
			<point x="325" y="756"/>
			<point x="485" y="659" type="curve" smooth="yes"/>
			<point x="668" y="548"/>
			<point x="719" y="476"/>
			<point x="719" y="392" type="curve" smooth="yes"/>
			<point x="719" y="284"/>
			<point x="637" y="203"/>
			<point x="470" y="203" type="curve" smooth="yes"/>
			<point x="378" y="203"/>
			<point x="283" y="226"/>
			<point x="209" y="249" type="curve" smooth="yes"/>
			<point x="162" y="264"/>
			<point x="133" y="273"/>
			<point x="102" y="273" type="curve" smooth="yes"/>
			<point x="48" y="273"/>
			<point x="10" y="199"/>
			<point x="10" y="151" type="curve" smooth="yes"/>
			<point x="10" y="112"/>
			<point x="27" y="88"/>
			<point x="86" y="56" type="curve" smooth="yes"/>
			<point x="153" y="19"/>
			<point x="304" y="-17"/>
		</contour>
	</outline>
	<anchor name="bottom" x="454" y="0"/>
	<anchor name="top" x="702" y="1400"/>
</glyph>
<glyph name="T" format="2">
	<unicode hex="0054"/>
	<advance width="1113"/>
	<outline>
		<contour>
			<point x="888" y="1340" type="curve"/>
			<point x="640" y="1340" type="line"/>
			<point x="531" y="1016"/>
			<point x="383" y="515"/>
			<point x="312" y="188" type="curve" smooth="yes"/>
			<point x="296" y="115"/>
			<point x="293" y="98"/>
			<point x="293" y="75" type="curve" smooth="yes"/>
			<point x="293" y="17"/>
			<point x="364" y="-12"/>
			<point x="434" y="-12" type="curve" smooth="yes"/>
			<point x="500" y="-12"/>
			<point x="522" y="12"/>
			<point x="543" y="107" type="curve" smooth="yes"/>
			<point x="618" y="455"/>
			<point x="773" y="992"/>
		</contour>
		<contour>
			<point x="251" y="1172" type="curve"/>
			<point x="311" y="1172"/>
			<point x="1125" y="1178"/>
			<point x="1206" y="1182" type="curve" smooth="yes"/>
			<point x="1280" y="1185"/>
			<point x="1313" y="1234"/>
			<point x="1313" y="1322" type="curve" smooth="yes"/>
			<point x="1313" y="1381"/>
			<point x="1283" y="1410"/>
			<point x="1212" y="1410" type="curve" smooth="yes"/>
			<point x="860" y="1410"/>
			<point x="345" y="1402"/>
			<point x="263" y="1397" type="curve" smooth="yes"/>
			<point x="209" y="1394"/>
			<point x="180" y="1343"/>
			<point x="180" y="1278" type="curve" smooth="yes"/>
			<point x="180" y="1219"/>
			<point x="206" y="1172"/>
		</contour>
	</outline>
	<anchor name="bottom" x="378" y="0"/>
	<anchor name="center" x="586" y="697"/>
	<anchor name="top" x="770" y="1397"/>
</glyph>
<glyph name="U" format="2">
	<unicode hex="0055"/>
	<advance width="1089"/>
	<outline>
		<contour>
			<point x="1018" y="-12" type="curve" smooth="yes"/>
			<point x="1078" y="-12"/>
			<point x="1116" y="32"/>
			<point x="1116" y="102" type="curve" smooth="yes"/>
			<point x="1116" y="160"/>
			<point x="1100" y="188"/>
			<point x="1069" y="188" type="curve" smooth="yes"/>
			<point x="1036" y="188"/>
			<point x="1020" y="199"/>
			<point x="1020" y="237" type="curve" smooth="yes"/>
			<point x="1020" y="259"/>
			<point x="1025" y="289"/>
			<point x="1051" y="387" type="curve" smooth="yes"/>
			<point x="1092" y="550"/>
			<point x="1187" y="962"/>
			<point x="1233" y="1134" type="curve" smooth="yes"/>
			<point x="1266" y="1256"/>
			<point x="1278" y="1302"/>
			<point x="1278" y="1328" type="curve" smooth="yes"/>
			<point x="1278" y="1361"/>
			<point x="1233" y="1400"/>
			<point x="1139" y="1400" type="curve" smooth="yes"/>
			<point x="1097" y="1400"/>
			<point x="1065" y="1395"/>
			<point x="1051" y="1344" type="curve" smooth="yes"/>
			<point x="988" y="1118"/>
			<point x="980" y="1073"/>
			<point x="910" y="890" type="curve" smooth="yes"/>
			<point x="725" y="403"/>
			<point x="523" y="188"/>
			<point x="393" y="188" type="curve" smooth="yes"/>
			<point x="341" y="188"/>
			<point x="304" y="230"/>
			<point x="304" y="309" type="curve" smooth="yes"/>
			<point x="304" y="379"/>
			<point x="316" y="457"/>
			<point x="357" y="591" type="curve" smooth="yes"/>
			<point x="399" y="728"/>
			<point x="436" y="829"/>
			<point x="482" y="962" type="curve" smooth="yes"/>
			<point x="499" y="1014"/>
			<point x="531" y="1101"/>
			<point x="557" y="1189" type="curve" smooth="yes"/>
			<point x="582" y="1274"/>
			<point x="588" y="1296"/>
			<point x="588" y="1329" type="curve" smooth="yes"/>
			<point x="588" y="1361"/>
			<point x="535" y="1400"/>
			<point x="451" y="1400" type="curve" smooth="yes"/>
			<point x="384" y="1400"/>
			<point x="372" y="1385"/>
			<point x="339" y="1279" type="curve" smooth="yes"/>
			<point x="324" y="1233"/>
			<point x="286" y="1094"/>
			<point x="259" y="1011" type="curve" smooth="yes"/>
			<point x="214" y="868"/>
			<point x="186" y="790"/>
			<point x="141" y="649" type="curve" smooth="yes"/>
			<point x="92" y="497"/>
			<point x="64" y="374"/>
			<point x="64" y="272" type="curve" smooth="yes"/>
			<point x="64" y="102"/>
			<point x="168" y="-12"/>
			<point x="306" y="-12" type="curve" smooth="yes"/>
			<point x="479" y="-12"/>
			<point x="651" y="93"/>
			<point x="922" y="628" type="curve"/>
			<point x="912" y="636" type="line"/>
			<point x="872" y="525"/>
			<point x="842" y="427"/>
			<point x="827" y="377" type="curve" smooth="yes"/>
			<point x="799" y="294"/>
			<point x="789" y="236"/>
			<point x="789" y="188" type="curve" smooth="yes"/>
			<point x="789" y="61"/>
			<point x="874" y="-12"/>
		</contour>
	</outline>
	<anchor name="bottom" x="503" y="0"/>
	<anchor name="ogonek" x="1062" y="-12"/>
	<anchor name="top" x="817" y="1400"/>
	<anchor name="topright" x="1506" y="1234"/>
</glyph>
<glyph name="V" format="2">
	<unicode hex="0056"/>
	<advance width="1304"/>
	<outline>
		<contour>
			<point x="221" y="1238" type="curve" smooth="yes"/>
			<point x="256" y="182" type="line" smooth="yes"/>
			<point x="257" y="150"/>
			<point x="258" y="130"/>
			<point x="259" y="117" type="curve" smooth="yes"/>
			<point x="269" y="20"/>
			<point x="343" y="-11"/>
			<point x="411" y="-11" type="curve" smooth="yes"/>
			<point x="525" y="-11"/>
			<point x="571" y="72"/>
			<point x="601" y="128" type="curve" smooth="yes"/>
			<point x="747" y="400"/>
			<point x="880" y="695"/>
			<point x="1145" y="1030" type="curve" smooth="yes"/>
			<point x="1206" y="1107"/>
			<point x="1244" y="1148"/>
			<point x="1302" y="1206" type="curve" smooth="yes"/>
			<point x="1353" y="1256"/>
			<point x="1359" y="1268"/>
			<point x="1359" y="1298" type="curve" smooth="yes"/>
			<point x="1359" y="1346"/>
			<point x="1307" y="1400"/>
			<point x="1229" y="1400" type="curve" smooth="yes"/>
			<point x="1144" y="1400"/>
			<point x="1076" y="1332"/>
			<point x="1003" y="1240" type="curve" smooth="yes"/>
			<point x="822" y="1012"/>
			<point x="601" y="625"/>
			<point x="426" y="186" type="curve"/>
			<point x="479" y="188" type="line"/>
			<point x="486" y="1195" type="line" smooth="yes"/>
			<point x="486" y="1197"/>
			<point x="488" y="1282"/>
			<point x="488" y="1299" type="curve" smooth="yes"/>
			<point x="488" y="1372"/>
			<point x="453" y="1400"/>
			<point x="365" y="1400" type="curve" smooth="yes"/>
			<point x="270" y="1400"/>
			<point x="220" y="1367"/>
			<point x="220" y="1303" type="curve" smooth="yes"/>
			<point x="220" y="1285"/>
			<point x="220" y="1271"/>
		</contour>
	</outline>
	<anchor name="bottom" x="428" y="0"/>
	<anchor name="top" x="818" y="1400"/>
</glyph>
<glyph name="W" format="2">
	<unicode hex="0057"/>
	<advance width="1910"/>
	<outline>
		<contour>
			<point x="220" y="1251" type="curve" smooth="yes"/>
			<point x="224" y="247" type="line" smooth="yes"/>
			<point x="224" y="210"/>
			<point x="224" y="191"/>
			<point x="225" y="160" type="curve" smooth="yes"/>
			<point x="230" y="56"/>
			<point x="298" y="-12"/>
			<point x="388" y="-12" type="curve" smooth="yes"/>
			<point x="458" y="-12"/>
			<point x="503" y="21"/>
			<point x="549" y="139" type="curve" smooth="yes"/>
			<point x="693" y="508"/>
			<point x="845" y="853"/>
			<point x="976" y="1094" type="curve"/>
			<point x="934" y="1104" type="line"/>
			<point x="929" y="271" type="line" smooth="yes"/>
			<point x="929" y="237"/>
			<point x="929" y="202"/>
			<point x="930" y="156" type="curve" smooth="yes"/>
			<point x="932" y="57"/>
			<point x="998" y="-12"/>
			<point x="1088" y="-12" type="curve" smooth="yes"/>
			<point x="1152" y="-12"/>
			<point x="1184" y="13"/>
			<point x="1239" y="136" type="curve" smooth="yes"/>
			<point x="1458" y="635"/>
			<point x="1639" y="892"/>
			<point x="1751" y="1029" type="curve" smooth="yes"/>
			<point x="1829" y="1125"/>
			<point x="1868" y="1164"/>
			<point x="1913" y="1207" type="curve" smooth="yes"/>
			<point x="1950" y="1242"/>
			<point x="1965" y="1260"/>
			<point x="1965" y="1291" type="curve" smooth="yes"/>
			<point x="1965" y="1343"/>
			<point x="1917" y="1400"/>
			<point x="1832" y="1400" type="curve" smooth="yes"/>
			<point x="1763" y="1400"/>
			<point x="1706" y="1371"/>
			<point x="1616" y="1266" type="curve" smooth="yes"/>
			<point x="1459" y="1075"/>
			<point x="1284" y="753"/>
			<point x="1072" y="149" type="curve"/>
			<point x="1136" y="149" type="line"/>
			<point x="1143" y="1096" type="line" smooth="yes"/>
			<point x="1143" y="1161"/>
			<point x="1144" y="1195"/>
			<point x="1143" y="1222" type="curve" smooth="yes"/>
			<point x="1141" y="1293"/>
			<point x="1075" y="1326"/>
			<point x="1007" y="1326" type="curve" smooth="yes"/>
			<point x="962" y="1326"/>
			<point x="935" y="1317"/>
			<point x="889" y="1248" type="curve" smooth="yes"/>
			<point x="747" y="1034"/>
			<point x="553" y="621"/>
			<point x="396" y="150" type="curve"/>
			<point x="440" y="150" type="line"/>
			<point x="478" y="1214" type="line" smooth="yes"/>
			<point x="479" y="1249"/>
			<point x="480" y="1289"/>
			<point x="480" y="1309" type="curve" smooth="yes"/>
			<point x="480" y="1375"/>
			<point x="443" y="1400"/>
			<point x="365" y="1400" type="curve" smooth="yes"/>
			<point x="271" y="1400"/>
			<point x="220" y="1367"/>
			<point x="220" y="1305" type="curve" smooth="yes"/>
			<point x="220" y="1295"/>
			<point x="220" y="1275"/>
		</contour>
	</outline>
	<anchor name="bottom" x="700" y="0"/>
	<anchor name="top" x="1080" y="1400"/>
</glyph>
<glyph name="X" format="2">
	<unicode hex="0058"/>
	<advance width="1265"/>
	<outline>
		<contour>
			<point x="172" y="64" type="curve" smooth="yes"/>
			<point x="636" y="586" type="line"/>
			<point x="538" y="758" type="line"/>
			<point x="4" y="222" type="line" smooth="yes"/>
			<point x="-51" y="164"/>
			<point x="-60" y="149"/>
			<point x="-60" y="108" type="curve" smooth="yes"/>
			<point x="-60" y="51"/>
			<point x="-3" y="-11"/>
			<point x="65" y="-11" type="curve" smooth="yes"/>
			<point x="101" y="-11"/>
			<point x="116" y="-2"/>
		</contour>
		<contour>
			<point x="1095" y="1343" type="curve" smooth="yes"/>
			<point x="642" y="833" type="line"/>
			<point x="725" y="638" type="line"/>
			<point x="1261" y="1197" type="line" smooth="yes"/>
			<point x="1300" y="1237"/>
			<point x="1315" y="1264"/>
			<point x="1315" y="1296" type="curve" smooth="yes"/>
			<point x="1315" y="1348"/>
			<point x="1251" y="1406"/>
			<point x="1193" y="1406" type="curve" smooth="yes"/>
			<point x="1159" y="1406"/>
			<point x="1140" y="1393"/>
		</contour>
		<contour>
			<point x="941" y="317" type="curve" smooth="yes"/>
			<point x="771" y="633"/>
			<point x="590" y="1007"/>
			<point x="489" y="1266" type="curve" smooth="yes"/>
			<point x="441" y="1389"/>
			<point x="426" y="1406"/>
			<point x="382" y="1406" type="curve" smooth="yes"/>
			<point x="300" y="1406"/>
			<point x="228" y="1359"/>
			<point x="228" y="1304" type="curve" smooth="yes"/>
			<point x="228" y="1270"/>
			<point x="237" y="1243"/>
			<point x="261" y="1182" type="curve" smooth="yes"/>
			<point x="387" y="862"/>
			<point x="601" y="442"/>
			<point x="782" y="112" type="curve" smooth="yes"/>
			<point x="859" y="-29"/>
			<point x="879" y="-50"/>
			<point x="926" y="-50" type="curve" smooth="yes"/>
			<point x="995" y="-50"/>
			<point x="1070" y="5"/>
			<point x="1070" y="63" type="curve" smooth="yes"/>
			<point x="1070" y="76"/>
			<point x="1065" y="95"/>
			<point x="1052" y="118" type="curve" smooth="yes"/>
			<point x="1031" y="154"/>
			<point x="1012" y="186"/>
		</contour>
	</outline>
	<anchor name="bottom" x="492" y="0"/>
	<anchor name="top" x="816" y="1400"/>
	<guideline x="-13" y="79" angle="230.2583"/>
</glyph>
<glyph name="Y" format="2">
	<unicode hex="0059"/>
	<advance width="1166"/>
	<outline>
		<contour>
			<point x="161" y="1210" type="curve" smooth="yes"/>
			<point x="389" y="398" type="line"/>
			<point x="554" y="605" type="line"/>
			<point x="379" y="1312" type="line" smooth="yes"/>
			<point x="361" y="1389"/>
			<point x="333" y="1406"/>
			<point x="290" y="1406" type="curve" smooth="yes"/>
			<point x="217" y="1406"/>
			<point x="141" y="1371"/>
			<point x="141" y="1314" type="curve" smooth="yes"/>
			<point x="141" y="1286"/>
			<point x="147" y="1258"/>
		</contour>
		<contour>
			<point x="494" y="722" type="curve"/>
			<point x="361" y="558" type="line"/>
			<point x="259" y="437"/>
			<point x="156" y="307"/>
			<point x="53" y="155" type="curve" smooth="yes"/>
			<point x="32" y="125"/>
			<point x="30" y="112"/>
			<point x="30" y="91" type="curve" smooth="yes"/>
			<point x="30" y="50"/>
			<point x="91" y="-11"/>
			<point x="159" y="-11" type="curve" smooth="yes"/>
			<point x="190" y="-11"/>
			<point x="206" y="1"/>
			<point x="246" y="64" type="curve" smooth="yes"/>
			<point x="498" y="444"/>
			<point x="827" y="843"/>
			<point x="1166" y="1202" type="curve" smooth="yes"/>
			<point x="1216" y="1257"/>
			<point x="1227" y="1266"/>
			<point x="1226" y="1299" type="curve" smooth="yes"/>
			<point x="1226" y="1356"/>
			<point x="1158" y="1406"/>
			<point x="1104" y="1406" type="curve" smooth="yes"/>
			<point x="1072" y="1406"/>
			<point x="1056" y="1400"/>
			<point x="1012" y="1351" type="curve" smooth="yes"/>
			<point x="814" y="1132"/>
			<point x="609" y="877"/>
		</contour>
	</outline>
	<anchor name="bottom" x="123" y="0"/>
	<anchor name="top" x="703" y="1400"/>
	<anchor name="topleft" x="18" y="1400"/>
</glyph>
<glyph name="Z" format="2">
	<unicode hex="005A"/>
	<advance width="744"/>
	<outline>
		<contour>
			<point x="0" y="151" type="curve" smooth="yes"/>
			<point x="0" y="51"/>
			<point x="73" y="-22"/>
			<point x="155" y="-22" type="curve" smooth="yes"/>
			<point x="229" y="-22"/>
			<point x="304" y="16"/>
			<point x="430" y="147" type="curve" smooth="yes"/>
			<point x="492" y="211"/>
			<point x="451" y="152"/>
			<point x="904" y="743" type="curve" smooth="yes"/>
			<point x="1142" y="1037"/>
			<point x="1222" y="1157"/>
			<point x="1255" y="1212" type="curve" smooth="yes"/>
			<point x="1279" y="1252"/>
			<point x="1284" y="1271"/>
			<point x="1284" y="1309" type="curve" smooth="yes"/>
			<point x="1284" y="1363"/>
			<point x="1233" y="1411"/>
			<point x="1179" y="1411" type="curve" smooth="yes"/>
			<point x="1144" y="1411"/>
			<point x="1111" y="1409"/>
			<point x="1022" y="1399" type="curve" smooth="yes"/>
			<point x="918" y="1388"/>
			<point x="816" y="1377"/>
			<point x="709" y="1377" type="curve" smooth="yes"/>
			<point x="629" y="1377"/>
			<point x="557" y="1383"/>
			<point x="490" y="1393" type="curve" smooth="yes"/>
			<point x="454" y="1398"/>
			<point x="413" y="1405"/>
			<point x="388" y="1405" type="curve" smooth="yes"/>
			<point x="336" y="1405"/>
			<point x="302" y="1374"/>
			<point x="302" y="1309" type="curve" smooth="yes"/>
			<point x="302" y="1232"/>
			<point x="331" y="1182"/>
			<point x="422" y="1164" type="curve" smooth="yes"/>
			<point x="479" y="1153"/>
			<point x="562" y="1147"/>
			<point x="673" y="1147" type="curve" smooth="yes"/>
			<point x="900" y="1147"/>
			<point x="1061" y="1174"/>
			<point x="1186" y="1213" type="curve"/>
			<point x="1109" y="1307" type="line"/>
			<point x="1055" y="1221"/>
			<point x="945" y="1081"/>
			<point x="756" y="841" type="curve" smooth="yes"/>
			<point x="446" y="431"/>
			<point x="345" y="312"/>
			<point x="303" y="266" type="curve" smooth="yes"/>
			<point x="215" y="170"/>
			<point x="173" y="145"/>
			<point x="147" y="145" type="curve" smooth="yes"/>
			<point x="127" y="145"/>
			<point x="114" y="153"/>
			<point x="114" y="163" type="curve" smooth="yes"/>
			<point x="114" y="182"/>
			<point x="130" y="198"/>
			<point x="156" y="198" type="curve" smooth="yes"/>
			<point x="201" y="198"/>
			<point x="268" y="162"/>
			<point x="337" y="125" type="curve" smooth="yes"/>
			<point x="519" y="28"/>
			<point x="622" y="-11"/>
			<point x="733" y="-11" type="curve" smooth="yes"/>
			<point x="799" y="-11"/>
			<point x="862" y="33"/>
			<point x="862" y="132" type="curve" smooth="yes"/>
			<point x="862" y="174"/>
			<point x="831" y="180"/>
			<point x="803" y="180" type="curve" smooth="yes"/>
			<point x="714" y="180"/>
			<point x="605" y="214"/>
			<point x="453" y="283" type="curve" smooth="yes"/>
			<point x="359" y="321"/>
			<point x="289" y="337"/>
			<point x="219" y="337" type="curve" smooth="yes"/>
			<point x="101" y="337"/>
			<point x="0" y="247"/>
		</contour>
	</outline>
	<anchor name="bottom" x="384" y="0"/>
	<anchor name="center" x="723" y="718"/>
	<anchor name="top" x="773" y="1400"/>
	<anchor name="topright" x="1202" y="1400"/>
</glyph>
<glyph name="c" format="2">
	<unicode hex="0063"/>
	<advance width="455"/>
	<outline>
		<contour>
			<point x="398" y="-12" type="curve" smooth="yes"/>
			<point x="468" y="-12"/>
			<point x="505" y="46"/>
			<point x="505" y="113" type="curve" smooth="yes"/>
			<point x="505" y="160"/>
			<point x="487" y="188"/>
			<point x="455" y="188" type="curve" smooth="yes"/>
			<point x="320" y="188"/>
			<point x="254" y="251"/>
			<point x="254" y="411" type="curve" smooth="yes"/>
			<point x="254" y="627"/>
			<point x="403" y="820"/>
			<point x="517" y="820" type="curve" smooth="yes"/>
			<point x="554" y="820"/>
			<point x="586" y="811"/>
			<point x="617" y="798" type="curve" smooth="yes"/>
			<point x="653" y="783"/>
			<point x="662" y="780"/>
			<point x="683" y="780" type="curve" smooth="yes"/>
			<point x="721" y="780"/>
			<point x="763" y="829"/>
			<point x="763" y="883" type="curve" smooth="yes"/>
			<point x="763" y="940"/>
			<point x="649" y="1020"/>
			<point x="528" y="1020" type="curve" smooth="yes"/>
			<point x="241" y="1020"/>
			<point x="9" y="705"/>
			<point x="9" y="387" type="curve" smooth="yes"/>
			<point x="9" y="133"/>
			<point x="186" y="-12"/>
		</contour>
	</outline>
	<anchor name="bottom" x="352" y="0"/>
	<anchor name="top" x="560" y="1005"/>
</glyph>
<glyph name="e" format="2">
	<unicode hex="0065"/>
	<advance width="534"/>
	<outline>
		<contour>
			<point x="236" y="489" type="curve"/>
			<point x="236" y="343" type="line"/>
			<point x="596" y="388"/>
			<point x="865" y="564"/>
			<point x="865" y="797" type="curve" smooth="yes"/>
			<point x="865" y="935"/>
			<point x="762" y="1020"/>
			<point x="612" y="1020" type="curve" smooth="yes"/>
			<point x="310" y="1020"/>
			<point x="60" y="736"/>
			<point x="60" y="393" type="curve" smooth="yes"/>
			<point x="60" y="148"/>
			<point x="228" y="-12"/>
			<point x="484" y="-12" type="curve" smooth="yes"/>
			<point x="569" y="-12"/>
			<point x="600" y="58"/>
			<point x="600" y="122" type="curve" smooth="yes"/>
			<point x="600" y="165"/>
			<point x="575" y="188"/>
			<point x="534" y="188" type="curve" smooth="yes"/>
			<point x="379" y="188"/>
			<point x="292" y="252"/>
			<point x="292" y="426" type="curve" smooth="yes"/>
			<point x="292" y="649"/>
			<point x="422" y="840"/>
			<point x="553" y="840" type="curve" smooth="yes"/>
			<point x="605" y="840"/>
			<point x="633" y="806"/>
			<point x="633" y="751" type="curve" smooth="yes"/>
			<point x="633" y="637"/>
			<point x="509" y="530"/>
		</contour>
	</outline>
	<anchor name="bottom" x="411" y="0"/>
	<anchor name="ogonek" x="482" y="0"/>
	<anchor name="top" x="597" y="1005"/>
</glyph>
<glyph name="o" format="2">
	<unicode hex="006F"/>
	<advance width="983"/>
	<outline>
		<contour>
			<point x="391" y="864" type="curve" smooth="yes"/>
			<point x="391" y="837"/>
			<point x="420" y="822"/>
			<point x="444" y="822" type="curve" smooth="yes"/>
			<point x="453" y="822"/>
			<point x="469" y="826"/>
			<point x="488" y="831" type="curve" smooth="yes"/>
			<point x="506" y="836"/>
			<point x="522" y="839"/>
			<point x="541" y="839" type="curve" smooth="yes"/>
			<point x="607" y="839"/>
			<point x="651" y="773"/>
			<point x="651" y="657" type="curve" smooth="yes"/>
			<point x="651" y="398"/>
			<point x="496" y="168"/>
			<point x="359" y="168" type="curve" smooth="yes"/>
			<point x="282" y="168"/>
			<point x="249" y="236"/>
			<point x="249" y="354" type="curve" smooth="yes"/>
			<point x="249" y="464"/>
			<point x="278" y="577"/>
			<point x="336" y="682" type="curve" smooth="yes"/>
			<point x="360" y="725"/>
			<point x="368" y="748"/>
			<point x="368" y="780" type="curve" smooth="yes"/>
			<point x="368" y="847"/>
			<point x="313" y="902"/>
			<point x="268" y="902" type="curve" smooth="yes"/>
			<point x="230" y="902"/>
			<point x="208" y="878"/>
			<point x="178" y="839" type="curve" smooth="yes"/>
			<point x="75" y="705"/>
			<point x="9" y="485"/>
			<point x="9" y="320" type="curve" smooth="yes"/>
			<point x="9" y="129"/>
			<point x="137" y="-12"/>
			<point x="315" y="-12" type="curve" smooth="yes"/>
			<point x="645" y="-12"/>
			<point x="891" y="327"/>
			<point x="891" y="687" type="curve" smooth="yes"/>
			<point x="891" y="877"/>
			<point x="765" y="1019"/>
			<point x="585" y="1019" type="curve" smooth="yes"/>
			<point x="473" y="1019"/>
			<point x="391" y="936"/>
		</contour>
	</outline>
	<anchor name="bottom" x="315" y="0"/>
	<anchor name="center" x="452" y="526"/>
	<anchor name="ogonek" x="387" y="0"/>
	<anchor name="top" x="574" y="1005"/>
	<anchor name="topright" x="852" y="1005"/>
</glyph>
<glyph name="w" format="2">
	<unicode hex="0077"/>
	<advance width="1458"/>
	<outline>
		<contour>
			<point x="135" y="894" type="curve" smooth="yes"/>
			<point x="135" y="859"/>
			<point x="137" y="783"/>
			<point x="141" y="679" type="curve" smooth="yes"/>
			<point x="144" y="604"/>
			<point x="144" y="482"/>
			<point x="144" y="370" type="curve" smooth="yes"/>
			<point x="144" y="267"/>
			<point x="145" y="267"/>
			<point x="146" y="235" type="curve" smooth="yes"/>
			<point x="154" y="60"/>
			<point x="213" y="-12"/>
			<point x="321" y="-12" type="curve" smooth="yes"/>
			<point x="475" y="-12"/>
			<point x="641" y="198"/>
			<point x="795" y="635" type="curve"/>
			<point x="734" y="656" type="line"/>
			<point x="728" y="590"/>
			<point x="724" y="501"/>
			<point x="721" y="452" type="curve" smooth="yes"/>
			<point x="717" y="386"/>
			<point x="715" y="316"/>
			<point x="715" y="251" type="curve" smooth="yes"/>
			<point x="715" y="89"/>
			<point x="774" y="-12"/>
			<point x="891" y="-12" type="curve" smooth="yes"/>
			<point x="1054" y="-12"/>
			<point x="1254" y="150"/>
			<point x="1511" y="821" type="curve" smooth="yes"/>
			<point x="1528" y="865"/>
			<point x="1539" y="904"/>
			<point x="1539" y="934" type="curve" smooth="yes"/>
			<point x="1539" y="977"/>
			<point x="1467" y="1020"/>
			<point x="1395" y="1020" type="curve" smooth="yes"/>
			<point x="1370" y="1020"/>
			<point x="1350" y="1011"/>
			<point x="1328" y="948" type="curve" smooth="yes"/>
			<point x="1100" y="293"/>
			<point x="1006" y="188"/>
			<point x="958" y="188" type="curve" smooth="yes"/>
			<point x="936" y="188"/>
			<point x="927" y="200"/>
			<point x="927" y="299" type="curve" smooth="yes"/>
			<point x="927" y="486"/>
			<point x="936" y="632"/>
			<point x="943" y="710" type="curve" smooth="yes"/>
			<point x="949" y="780"/>
			<point x="952" y="843"/>
			<point x="950" y="902" type="curve" smooth="yes"/>
			<point x="950" y="951"/>
			<point x="915" y="1008"/>
			<point x="810" y="1009" type="curve" smooth="yes"/>
			<point x="761" y="1008"/>
			<point x="745" y="982"/>
			<point x="727" y="917" type="curve" smooth="yes"/>
			<point x="703" y="830"/>
			<point x="680" y="761"/>
			<point x="589" y="529" type="curve" smooth="yes"/>
			<point x="471" y="229"/>
			<point x="419" y="188"/>
			<point x="390" y="188" type="curve" smooth="yes"/>
			<point x="370" y="188"/>
			<point x="362" y="209"/>
			<point x="362" y="281" type="curve" smooth="yes"/>
			<point x="362" y="351"/>
			<point x="366" y="482"/>
			<point x="370" y="583" type="curve" smooth="yes"/>
			<point x="374" y="681"/>
			<point x="377" y="765"/>
			<point x="377" y="814" type="curve" smooth="yes"/>
			<point x="377" y="868"/>
			<point x="377" y="916"/>
			<point x="375" y="943" type="curve" smooth="yes"/>
			<point x="371" y="1001"/>
			<point x="320" y="1020"/>
			<point x="249" y="1020" type="curve" smooth="yes"/>
			<point x="172" y="1020"/>
			<point x="135" y="981"/>
		</contour>
	</outline>
	<anchor name="bottom" x="712" y="0"/>
	<anchor name="top" x="838" y="1005"/>
</glyph>
<glyph name="y" format="2">
	<unicode hex="0079"/>
	<advance width="761"/>
	<outline>
		<contour>
			<point x="531" y="-100" type="curve"/>
			<point x="571" y="91" type="line"/>
			<point x="103" y="-154"/>
			<point x="-37" y="-305"/>
			<point x="-37" y="-486" type="curve" smooth="yes"/>
			<point x="-37" y="-605"/>
			<point x="64" y="-690"/>
			<point x="205" y="-690" type="curve" smooth="yes"/>
			<point x="408" y="-690"/>
			<point x="628" y="-531"/>
			<point x="692" y="-223" type="curve" smooth="yes"/>
			<point x="717" y="-104"/>
			<point x="732" y="-40"/>
			<point x="757" y="84" type="curve" smooth="yes"/>
			<point x="781" y="204"/>
			<point x="811" y="328"/>
			<point x="871" y="573" type="curve" smooth="yes"/>
			<point x="929" y="808"/>
			<point x="951" y="914"/>
			<point x="951" y="936" type="curve" smooth="yes"/>
			<point x="951" y="986"/>
			<point x="879" y="1020"/>
			<point x="788" y="1020" type="curve" smooth="yes"/>
			<point x="736" y="1020"/>
			<point x="728" y="998"/>
			<point x="713" y="935" type="curve" smooth="yes"/>
			<point x="687" y="826"/>
			<point x="658" y="731"/>
			<point x="584" y="552" type="curve" smooth="yes"/>
			<point x="496" y="340"/>
			<point x="378" y="228"/>
			<point x="290" y="228" type="curve" smooth="yes"/>
			<point x="260" y="228"/>
			<point x="241" y="248"/>
			<point x="241" y="291" type="curve" smooth="yes"/>
			<point x="241" y="332"/>
			<point x="250" y="391"/>
			<point x="313" y="591" type="curve" smooth="yes"/>
			<point x="374" y="785"/>
			<point x="409" y="902"/>
			<point x="409" y="935" type="curve" smooth="yes"/>
			<point x="409" y="995"/>
			<point x="340" y="1020"/>
			<point x="265" y="1020" type="curve" smooth="yes"/>
			<point x="225" y="1020"/>
			<point x="192" y="1000"/>
			<point x="178" y="938" type="curve" smooth="yes"/>
			<point x="170" y="904"/>
			<point x="130" y="776"/>
			<point x="58" y="521" type="curve" smooth="yes"/>
			<point x="18" y="380"/>
			<point x="1" y="316"/>
			<point x="1" y="238" type="curve" smooth="yes"/>
			<point x="1" y="109"/>
			<point x="84" y="28"/>
			<point x="196" y="28" type="curve" smooth="yes"/>
			<point x="351" y="28"/>
			<point x="523" y="161"/>
			<point x="713" y="567" type="curve"/>
			<point x="679" y="612" type="line"/>
			<point x="632" y="468"/>
			<point x="588" y="307"/>
			<point x="553" y="158" type="curve" smooth="yes"/>
			<point x="517" y="6"/>
			<point x="483" y="-149"/>
			<point x="460" y="-232" type="curve" smooth="yes"/>
			<point x="405" y="-430"/>
			<point x="321" y="-510"/>
			<point x="231" y="-510" type="curve" smooth="yes"/>
			<point x="197" y="-510"/>
			<point x="173" y="-488"/>
			<point x="173" y="-440" type="curve" smooth="yes"/>
			<point x="173" y="-355"/>
			<point x="251" y="-239"/>
		</contour>
	</outline>
	<anchor name="top" x="584" y="1005"/>
	<anchor name="topright" x="980" y="1005"/>
</glyph>
<glyph name="bar" format="2">
	<unicode hex="007C"/>
	<advance width="975"/>
	<outline>
		<contour>
			<point x="482" y="-535" type="curve" smooth="yes"/>
			<point x="548" y="-535"/>
			<point x="605" y="-516"/>
			<point x="605" y="-418" type="curve" smooth="yes"/>
			<point x="605" y="1789" type="line" smooth="yes"/>
			<point x="605" y="1886"/>
			<point x="567" y="1907"/>
			<point x="488" y="1907" type="curve" smooth="yes"/>
			<point x="417" y="1907"/>
			<point x="370" y="1884"/>
			<point x="370" y="1804" type="curve" smooth="yes"/>
			<point x="370" y="-433" type="line" smooth="yes"/>
			<point x="370" y="-507"/>
			<point x="405" y="-535"/>
		</contour>
	</outline>
</glyph>
<glyph name="cent" format="2">
	<unicode hex="00A2"/>
	<advance width="1200"/>
	<outline>
		<contour>
			<point x="566" y="200" type="curve" smooth="yes"/>
			<point x="688" y="200"/>
			<point x="824" y="252"/>
			<point x="920" y="324" type="curve" smooth="yes"/>
			<point x="966" y="359"/>
			<point x="985" y="388"/>
			<point x="985" y="418" type="curve" smooth="yes"/>
			<point x="985" y="453"/>
			<point x="944" y="496"/>
			<point x="913" y="496" type="curve" smooth="yes"/>
			<point x="895" y="496"/>
			<point x="879" y="489"/>
			<point x="840" y="464" type="curve" smooth="yes"/>
			<point x="773" y="422"/>
			<point x="697" y="380"/>
			<point x="615" y="380" type="curve" smooth="yes"/>
			<point x="505" y="380"/>
			<point x="445" y="437"/>
			<point x="445" y="600" type="curve" smooth="yes"/>
			<point x="445" y="842"/>
			<point x="589" y="1038"/>
			<point x="762" y="1038" type="curve" smooth="yes"/>
			<point x="826" y="1038"/>
			<point x="883" y="1012"/>
			<point x="935" y="981" type="curve" smooth="yes"/>
			<point x="965" y="963"/>
			<point x="980" y="955"/>
			<point x="1002" y="955" type="curve" smooth="yes"/>
			<point x="1048" y="955"/>
			<point x="1080" y="1008"/>
			<point x="1080" y="1045" type="curve" smooth="yes"/>
			<point x="1080" y="1074"/>
			<point x="1064" y="1096"/>
			<point x="1036" y="1119" type="curve" smooth="yes"/>
			<point x="971" y="1172"/>
			<point x="893" y="1212"/>
			<point x="784" y="1212" type="curve" smooth="yes"/>
			<point x="473" y="1212"/>
			<point x="220" y="927"/>
			<point x="220" y="581" type="curve" smooth="yes"/>
			<point x="220" y="356"/>
			<point x="379" y="200"/>
		</contour>
		<contour>
			<point x="538" y="10" type="curve" smooth="yes"/>
			<point x="585" y="10"/>
			<point x="608" y="27"/>
			<point x="621" y="79" type="curve" smooth="yes"/>
			<point x="923" y="1258" type="line" smooth="yes"/>
			<point x="931" y="1289"/>
			<point x="937" y="1309"/>
			<point x="937" y="1334" type="curve" smooth="yes"/>
			<point x="937" y="1371"/>
			<point x="884" y="1400"/>
			<point x="810" y="1400" type="curve" smooth="yes"/>
			<point x="769" y="1400"/>
			<point x="749" y="1382"/>
			<point x="734" y="1323" type="curve" smooth="yes"/>
			<point x="434" y="154" type="line" smooth="yes"/>
			<point x="425" y="120"/>
			<point x="420" y="101"/>
			<point x="420" y="86" type="curve" smooth="yes"/>
			<point x="420" y="46"/>
			<point x="478" y="10"/>
		</contour>
	</outline>
</glyph>
<glyph name="sterling" format="2">
	<unicode hex="00A3"/>
	<advance width="1200"/>
	<outline>
		<contour>
			<point x="0" y="144" type="curve" smooth="yes"/>
			<point x="0" y="57"/>
			<point x="68" y="-21"/>
			<point x="169" y="-21" type="curve" smooth="yes"/>
			<point x="341" y="-21"/>
			<point x="558" y="184"/>
			<point x="621" y="765" type="curve" smooth="yes"/>
			<point x="656" y="1090"/>
			<point x="748" y="1199"/>
			<point x="865" y="1199" type="curve" smooth="yes"/>
			<point x="901" y="1199"/>
			<point x="923" y="1192"/>
			<point x="970" y="1172" type="curve" smooth="yes"/>
			<point x="1005" y="1157"/>
			<point x="1024" y="1150"/>
			<point x="1040" y="1150" type="curve" smooth="yes"/>
			<point x="1091" y="1150"/>
			<point x="1145" y="1209"/>
			<point x="1145" y="1272" type="curve" smooth="yes"/>
			<point x="1145" y="1303"/>
			<point x="1126" y="1329"/>
			<point x="1084" y="1360" type="curve" smooth="yes"/>
			<point x="1034" y="1396"/>
			<point x="957" y="1419"/>
			<point x="882" y="1419" type="curve" smooth="yes"/>
			<point x="616" y="1419"/>
			<point x="406" y="1208"/>
			<point x="363" y="795" type="curve" smooth="yes"/>
			<point x="300" y="194"/>
			<point x="251" y="148"/>
			<point x="182" y="148" type="curve" smooth="yes"/>
			<point x="161" y="148"/>
			<point x="153" y="155"/>
			<point x="153" y="168" type="curve" smooth="yes"/>
			<point x="153" y="182"/>
			<point x="172" y="194"/>
			<point x="209" y="194" type="curve" smooth="yes"/>
			<point x="400" y="194"/>
			<point x="546" y="-21"/>
			<point x="772" y="-21" type="curve" smooth="yes"/>
			<point x="884" y="-21"/>
			<point x="979" y="33"/>
			<point x="1054" y="133" type="curve" smooth="yes"/>
			<point x="1096" y="190"/>
			<point x="1104" y="217"/>
			<point x="1104" y="246" type="curve" smooth="yes"/>
			<point x="1104" y="299"/>
			<point x="1043" y="340"/>
			<point x="1005" y="340" type="curve" smooth="yes"/>
			<point x="978" y="340"/>
			<point x="958" y="329"/>
			<point x="924" y="295" type="curve" smooth="yes"/>
			<point x="879" y="250"/>
			<point x="844" y="226"/>
			<point x="782" y="226" type="curve" smooth="yes"/>
			<point x="620" y="226"/>
			<point x="485" y="367"/>
			<point x="298" y="367" type="curve" smooth="yes"/>
			<point x="109" y="367"/>
			<point x="0" y="272"/>
		</contour>
		<contour>
			<point x="300" y="811" type="curve" smooth="yes"/>
			<point x="206" y="811"/>
			<point x="170" y="770"/>
			<point x="170" y="714" type="curve" smooth="yes"/>
			<point x="170" y="639"/>
			<point x="217" y="610"/>
			<point x="283" y="610" type="curve" smooth="yes"/>
			<point x="516" y="610"/>
			<point x="674" y="614"/>
			<point x="848" y="629" type="curve" smooth="yes"/>
			<point x="923" y="635"/>
			<point x="985" y="674"/>
			<point x="985" y="758" type="curve" smooth="yes"/>
			<point x="985" y="801"/>
			<point x="965" y="826"/>
			<point x="911" y="826" type="curve" smooth="yes"/>
			<point x="889" y="826"/>
			<point x="844" y="824"/>
			<point x="761" y="820" type="curve" smooth="yes"/>
			<point x="660" y="815"/>
			<point x="366" y="811"/>
		</contour>
	</outline>
</glyph>
<glyph name="yen" format="2">
	<unicode hex="00A5"/>
	<advance width="1200"/>
	<outline>
		<contour>
			<point x="466" y="-11" type="curve" smooth="yes"/>
			<point x="513" y="-11"/>
			<point x="557" y="4"/>
			<point x="573" y="65" type="curve" smooth="yes"/>
			<point x="706" y="559" type="line"/>
			<point x="1219" y="1172" type="line" smooth="yes"/>
			<point x="1272" y="1235"/>
			<point x="1285" y="1257"/>
			<point x="1285" y="1288" type="curve" smooth="yes"/>
			<point x="1285" y="1353"/>
			<point x="1215" y="1400"/>
			<point x="1165" y="1400" type="curve" smooth="yes"/>
			<point x="1129" y="1400"/>
			<point x="1106" y="1389"/>
			<point x="1069" y="1340" type="curve" smooth="yes"/>
			<point x="626" y="765" type="line"/>
			<point x="472" y="1287" type="line" smooth="yes"/>
			<point x="445" y="1379"/>
			<point x="421" y="1400"/>
			<point x="376" y="1400" type="curve" smooth="yes"/>
			<point x="295" y="1400"/>
			<point x="225" y="1354"/>
			<point x="225" y="1295" type="curve" smooth="yes"/>
			<point x="225" y="1261"/>
			<point x="234" y="1233"/>
			<point x="251" y="1182" type="curve" smooth="yes"/>
			<point x="460" y="557" type="line"/>
			<point x="349" y="180" type="line" smooth="yes"/>
			<point x="339" y="146"/>
			<point x="329" y="106"/>
			<point x="329" y="76" type="curve" smooth="yes"/>
			<point x="329" y="26"/>
			<point x="378" y="-11"/>
		</contour>
		<contour>
			<point x="215" y="618" type="curve" smooth="yes"/>
			<point x="512" y="618" type="line"/>
			<point x="451" y="828" type="line"/>
			<point x="242" y="828" type="line" smooth="yes"/>
			<point x="177" y="828"/>
			<point x="116" y="781"/>
			<point x="116" y="705" type="curve" smooth="yes"/>
			<point x="116" y="637"/>
			<point x="156" y="618"/>
		</contour>
		<contour>
			<point x="1040" y="828" type="curve" smooth="yes"/>
			<point x="851" y="828" type="line"/>
			<point x="712" y="618" type="line"/>
			<point x="1004" y="618" type="line" smooth="yes"/>
			<point x="1084" y="618"/>
			<point x="1140" y="657"/>
			<point x="1140" y="743" type="curve" smooth="yes"/>
			<point x="1140" y="808"/>
			<point x="1104" y="828"/>
		</contour>
		<contour>
			<point x="144" y="281" type="curve" smooth="yes"/>
			<point x="913" y="281" type="line" smooth="yes"/>
			<point x="992" y="281"/>
			<point x="1049" y="319"/>
			<point x="1049" y="405" type="curve" smooth="yes"/>
			<point x="1049" y="472"/>
			<point x="1012" y="491"/>
			<point x="948" y="491" type="curve" smooth="yes"/>
			<point x="170" y="491" type="line" smooth="yes"/>
			<point x="107" y="491"/>
			<point x="45" y="444"/>
			<point x="45" y="366" type="curve" smooth="yes"/>
			<point x="45" y="299"/>
			<point x="85" y="281"/>
		</contour>
	</outline>
</glyph>
<glyph name="brokenbar" format="2">
	<unicode hex="00A6"/>
	<advance width="978"/>
	<outline>
		<contour>
			<point x="490" y="904" type="curve" smooth="yes"/>
			<point x="553" y="904"/>
			<point x="607" y="927"/>
			<point x="607" y="1020" type="curve" smooth="yes"/>
			<point x="606" y="1789" type="line" smooth="yes"/>
			<point x="606" y="1886"/>
			<point x="569" y="1907"/>
			<point x="489" y="1907" type="curve" smooth="yes"/>
			<point x="418" y="1907"/>
			<point x="371" y="1884"/>
			<point x="371" y="1804" type="curve" smooth="yes"/>
			<point x="370" y="1011" type="line" smooth="yes"/>
			<point x="370" y="935"/>
			<point x="400" y="904"/>
		</contour>
		<contour>
			<point x="491" y="-535" type="curve" smooth="yes"/>
			<point x="554" y="-535"/>
			<point x="608" y="-512"/>
			<point x="608" y="-419" type="curve" smooth="yes"/>
			<point x="607" y="350" type="line" smooth="yes"/>
			<point x="607" y="447"/>
			<point x="570" y="468"/>
			<point x="490" y="468" type="curve" smooth="yes"/>
			<point x="419" y="468"/>
			<point x="372" y="445"/>
			<point x="372" y="365" type="curve" smooth="yes"/>
			<point x="371" y="-428" type="line" smooth="yes"/>
			<point x="371" y="-504"/>
			<point x="401" y="-535"/>
		</contour>
	</outline>
</glyph>
<glyph name="section" format="2">
	<unicode hex="00A7"/>
	<advance width="1063"/>
	<outline>
		<contour>
			<point x="395" y="172" type="curve"/>
			<point x="483" y="21" type="line"/>
			<point x="742" y="88"/>
			<point x="916" y="258"/>
			<point x="916" y="482" type="curve" smooth="yes"/>
			<point x="916" y="626"/>
			<point x="808" y="766"/>
			<point x="673" y="889" type="curve" smooth="yes"/>
			<point x="553" y="999"/>
			<point x="521" y="1041"/>
			<point x="521" y="1096" type="curve" smooth="yes"/>
			<point x="521" y="1165"/>
			<point x="581" y="1206"/>
			<point x="689" y="1206" type="curve" smooth="yes"/>
			<point x="754" y="1206"/>
			<point x="796" y="1191"/>
			<point x="856" y="1167" type="curve" smooth="yes"/>
			<point x="891" y="1153"/>
			<point x="908" y="1147"/>
			<point x="930" y="1147" type="curve" smooth="yes"/>
			<point x="968" y="1147"/>
			<point x="1018" y="1200"/>
			<point x="1018" y="1266" type="curve" smooth="yes"/>
			<point x="1018" y="1294"/>
			<point x="998" y="1322"/>
			<point x="951" y="1349" type="curve" smooth="yes"/>
			<point x="881" y="1389"/>
			<point x="791" y="1411"/>
			<point x="697" y="1411" type="curve" smooth="yes"/>
			<point x="447" y="1411"/>
			<point x="281" y="1265"/>
			<point x="281" y="1060" type="curve" smooth="yes"/>
			<point x="281" y="938"/>
			<point x="347" y="841"/>
			<point x="489" y="720" type="curve" smooth="yes"/>
			<point x="588" y="636"/>
			<point x="677" y="558"/>
			<point x="677" y="425" type="curve" smooth="yes"/>
			<point x="677" y="293"/>
			<point x="547" y="212"/>
		</contour>
		<contour>
			<point x="620" y="795" type="curve"/>
			<point x="531" y="946" type="line"/>
			<point x="273" y="879"/>
			<point x="99" y="709"/>
			<point x="99" y="485" type="curve" smooth="yes"/>
			<point x="99" y="341"/>
			<point x="207" y="201"/>
			<point x="342" y="78" type="curve" smooth="yes"/>
			<point x="462" y="-32"/>
			<point x="494" y="-74"/>
			<point x="494" y="-129" type="curve" smooth="yes"/>
			<point x="494" y="-198"/>
			<point x="434" y="-239"/>
			<point x="326" y="-239" type="curve" smooth="yes"/>
			<point x="254" y="-239"/>
			<point x="220" y="-226"/>
			<point x="159" y="-201" type="curve" smooth="yes"/>
			<point x="120" y="-185"/>
			<point x="105" y="-179"/>
			<point x="85" y="-179" type="curve" smooth="yes"/>
			<point x="47" y="-179"/>
			<point x="-3" y="-233"/>
			<point x="-3" y="-298" type="curve" smooth="yes"/>
			<point x="-3" y="-324"/>
			<point x="13" y="-351"/>
			<point x="58" y="-378" type="curve" smooth="yes"/>
			<point x="132" y="-422"/>
			<point x="224" y="-444"/>
			<point x="317" y="-444" type="curve" smooth="yes"/>
			<point x="567" y="-444"/>
			<point x="733" y="-299"/>
			<point x="733" y="-92" type="curve" smooth="yes"/>
			<point x="733" y="70"/>
			<point x="628" y="161"/>
			<point x="530" y="244" type="curve" smooth="yes"/>
			<point x="386" y="365"/>
			<point x="338" y="440"/>
			<point x="338" y="543" type="curve" smooth="yes"/>
			<point x="338" y="674"/>
			<point x="468" y="755"/>
		</contour>
	</outline>
	<anchor name="bottom" x="414" y="0"/>
</glyph>
<glyph name="twosuperior" format="2">
	<unicode hex="00B2"/>
	<advance width="799"/>
	<outline>
		<contour>
			<point x="128" y="999" type="curve" smooth="yes"/>
			<point x="589" y="999" type="line" smooth="yes"/>
			<point x="649" y="999"/>
			<point x="695" y="1064"/>
			<point x="695" y="1143" type="curve" smooth="yes"/>
			<point x="695" y="1173"/>
			<point x="682" y="1192"/>
			<point x="649" y="1192" type="curve" smooth="yes"/>
			<point x="103" y="1192" type="line"/>
			<point x="101" y="1140" type="line"/>
			<point x="588" y="1294"/>
			<point x="779" y="1455"/>
			<point x="779" y="1654" type="curve" smooth="yes"/>
			<point x="779" y="1772"/>
			<point x="689" y="1837"/>
			<point x="546" y="1837" type="curve" smooth="yes"/>
			<point x="437" y="1837"/>
			<point x="309" y="1802"/>
			<point x="216" y="1744" type="curve" smooth="yes"/>
			<point x="176" y="1719"/>
			<point x="154" y="1689"/>
			<point x="154" y="1655" type="curve" smooth="yes"/>
			<point x="154" y="1618"/>
			<point x="179" y="1581"/>
			<point x="223" y="1581" type="curve" smooth="yes"/>
			<point x="241" y="1581"/>
			<point x="256" y="1587"/>
			<point x="283" y="1599" type="curve" smooth="yes"/>
			<point x="368" y="1636"/>
			<point x="429" y="1654"/>
			<point x="481" y="1654" type="curve" smooth="yes"/>
			<point x="535" y="1654"/>
			<point x="562" y="1633"/>
			<point x="562" y="1593" type="curve" smooth="yes"/>
			<point x="562" y="1469"/>
			<point x="400" y="1396"/>
			<point x="179" y="1291" type="curve" smooth="yes"/>
			<point x="116" y="1261"/>
			<point x="10" y="1216"/>
			<point x="10" y="1103" type="curve" smooth="yes"/>
			<point x="10" y="1042"/>
			<point x="51" y="999"/>
		</contour>
	</outline>
</glyph>
<glyph name="paragraph" format="2">
	<unicode hex="00B6"/>
	<advance width="1251"/>
	<outline>
		<contour>
			<point x="96" y="851" type="curve" smooth="yes"/>
			<point x="96" y="622"/>
			<point x="324" y="415"/>
			<point x="662" y="415" type="curve" smooth="yes"/>
			<point x="796" y="415"/>
			<point x="953" y="452"/>
			<point x="1077" y="524" type="curve" smooth="yes"/>
			<point x="1161" y="573"/>
			<point x="1182" y="611"/>
			<point x="1182" y="638" type="curve" smooth="yes"/>
			<point x="1182" y="679"/>
			<point x="1137" y="738"/>
			<point x="1093" y="738" type="curve" smooth="yes"/>
			<point x="1074" y="738"/>
			<point x="1055" y="728"/>
			<point x="1031" y="715" type="curve" smooth="yes"/>
			<point x="935" y="664"/>
			<point x="820" y="636"/>
			<point x="696" y="636" type="curve" smooth="yes"/>
			<point x="467" y="636"/>
			<point x="346" y="716"/>
			<point x="346" y="882" type="curve" smooth="yes"/>
			<point x="346" y="1060"/>
			<point x="486" y="1191"/>
			<point x="724" y="1191" type="curve" smooth="yes"/>
			<point x="825" y="1191"/>
			<point x="936" y="1164"/>
			<point x="985" y="1138" type="curve"/>
			<point x="1082" y="1325" type="line"/>
			<point x="1000" y="1371"/>
			<point x="897" y="1403"/>
			<point x="765" y="1403" type="curve" smooth="yes"/>
			<point x="373" y="1403"/>
			<point x="96" y="1158"/>
		</contour>
		<contour>
			<point x="510" y="-220" type="curve"/>
			<point x="376" y="-388" type="line"/>
			<point x="418" y="-421"/>
			<point x="504" y="-449"/>
			<point x="568" y="-449" type="curve" smooth="yes"/>
			<point x="763" y="-449"/>
			<point x="906" y="-294"/>
			<point x="917" y="62" type="curve" smooth="yes"/>
			<point x="932" y="547"/>
			<point x="1021" y="865"/>
			<point x="1222" y="1245" type="curve" smooth="yes"/>
			<point x="1251" y="1300"/>
			<point x="1257" y="1321"/>
			<point x="1257" y="1339" type="curve" smooth="yes"/>
			<point x="1257" y="1384"/>
			<point x="1199" y="1425"/>
			<point x="1134" y="1425" type="curve" smooth="yes"/>
			<point x="1094" y="1425"/>
			<point x="1080" y="1407"/>
			<point x="1049" y="1347" type="curve" smooth="yes"/>
			<point x="836" y="934"/>
			<point x="736" y="589"/>
			<point x="711" y="77" type="curve" smooth="yes"/>
			<point x="699" y="-171"/>
			<point x="652" y="-233"/>
			<point x="581" y="-233" type="curve" smooth="yes"/>
			<point x="560" y="-233"/>
			<point x="540" y="-231"/>
		</contour>
		<contour>
			<point x="221" y="-449" type="curve" smooth="yes"/>
			<point x="452" y="-449"/>
			<point x="606" y="-259"/>
			<point x="619" y="73" type="curve" smooth="yes"/>
			<point x="640" y="621"/>
			<point x="748" y="976"/>
			<point x="946" y="1342" type="curve"/>
			<point x="747" y="1349" type="line"/>
			<point x="551" y="997"/>
			<point x="450" y="637"/>
			<point x="415" y="95" type="curve" smooth="yes"/>
			<point x="398" y="-166"/>
			<point x="340" y="-233"/>
			<point x="244" y="-233" type="curve" smooth="yes"/>
			<point x="191" y="-233"/>
			<point x="144" y="-213"/>
			<point x="111" y="-190" type="curve" smooth="yes"/>
			<point x="84" y="-171"/>
			<point x="68" y="-161"/>
			<point x="45" y="-161" type="curve" smooth="yes"/>
			<point x="-3" y="-161"/>
			<point x="-61" y="-232"/>
			<point x="-61" y="-282" type="curve" smooth="yes"/>
			<point x="-61" y="-359"/>
			<point x="94" y="-449"/>
		</contour>
	</outline>
</glyph>
<glyph name="onesuperior" format="2">
	<unicode hex="00B9"/>
	<advance width="624"/>
	<outline>
		<contour>
			<point x="302" y="985" type="curve" smooth="yes"/>
			<point x="351" y="985"/>
			<point x="381" y="1004"/>
			<point x="396" y="1060" type="curve" smooth="yes"/>
			<point x="576" y="1732" type="line" smooth="yes"/>
			<point x="579" y="1743"/>
			<point x="582" y="1755"/>
			<point x="583" y="1762" type="curve" smooth="yes"/>
			<point x="589" y="1801"/>
			<point x="554" y="1837"/>
			<point x="511" y="1837" type="curve" smooth="yes"/>
			<point x="493" y="1837"/>
			<point x="479" y="1834"/>
			<point x="450" y="1819" type="curve" smooth="yes"/>
			<point x="373" y="1781"/>
			<point x="226" y="1708"/>
			<point x="151" y="1671" type="curve" smooth="yes"/>
			<point x="110" y="1650"/>
			<point x="76" y="1634"/>
			<point x="76" y="1590" type="curve" smooth="yes"/>
			<point x="76" y="1535"/>
			<point x="114" y="1496"/>
			<point x="150" y="1496" type="curve" smooth="yes"/>
			<point x="167" y="1496"/>
			<point x="179" y="1500"/>
			<point x="217" y="1517" type="curve" smooth="yes"/>
			<point x="258" y="1535"/>
			<point x="364" y="1584"/>
			<point x="387" y="1603" type="curve"/>
			<point x="350" y="1599" type="line"/>
			<point x="209" y="1123" type="line" smooth="yes"/>
			<point x="204" y="1104"/>
			<point x="195" y="1074"/>
			<point x="195" y="1061" type="curve" smooth="yes"/>
			<point x="195" y="1009"/>
			<point x="224" y="985"/>
		</contour>
	</outline>
</glyph>
<glyph name="ordmasculine" format="2">
	<unicode hex="00BA"/>
	<advance width="842"/>
	<outline>
		<contour>
			<point x="100" y="1061" type="curve" smooth="yes"/>
			<point x="100" y="914"/>
			<point x="207" y="795"/>
			<point x="359" y="795" type="curve" smooth="yes"/>
			<point x="639" y="795"/>
			<point x="842" y="1060"/>
			<point x="842" y="1343" type="curve" smooth="yes"/>
			<point x="842" y="1493"/>
			<point x="735" y="1608"/>
			<point x="582" y="1608" type="curve" smooth="yes"/>
			<point x="306" y="1608"/>
			<point x="100" y="1345"/>
		</contour>
		<contour>
			<point x="310" y="1091" type="curve" smooth="yes"/>
			<point x="310" y="1291"/>
			<point x="434" y="1452"/>
			<point x="544" y="1452" type="curve" smooth="yes"/>
			<point x="596" y="1452"/>
			<point x="632" y="1407"/>
			<point x="632" y="1319" type="curve" smooth="yes"/>
			<point x="632" y="1118"/>
			<point x="510" y="950"/>
			<point x="398" y="950" type="curve" smooth="yes"/>
			<point x="346" y="950"/>
			<point x="310" y="1001"/>
		</contour>
	</outline>
</glyph>
<glyph name="AE" format="2">
	<unicode hex="00C6"/>
	<advance width="1886"/>
	<outline>
		<contour>
			<point x="954" y="1277" type="curve" smooth="yes"/>
			<point x="620" y="909"/>
			<point x="254" y="566"/>
			<point x="-167" y="213" type="curve" smooth="yes"/>
			<point x="-227" y="163"/>
			<point x="-240" y="142"/>
			<point x="-240" y="105" type="curve" smooth="yes"/>
			<point x="-240" y="54"/>
			<point x="-188" y="-10"/>
			<point x="-136" y="-10" type="curve" smooth="yes"/>
			<point x="-105" y="-10"/>
			<point x="-87" y="-3"/>
			<point x="-56" y="23" type="curve" smooth="yes"/>
			<point x="385" y="394"/>
			<point x="793" y="807"/>
			<point x="1145" y="1242" type="curve"/>
			<point x="1109" y="1280" type="line"/>
			<point x="1070" y="1175"/>
			<point x="1017" y="1005"/>
			<point x="980" y="863" type="curve" smooth="yes"/>
			<point x="855" y="386" type="line" smooth="yes"/>
			<point x="840" y="331"/>
			<point x="830" y="285"/>
			<point x="830" y="240" type="curve" smooth="yes"/>
			<point x="830" y="107"/>
			<point x="939" y="0"/>
			<point x="1080" y="0" type="curve" smooth="yes"/>
			<point x="1533" y="0" type="line" smooth="yes"/>
			<point x="1608" y="0"/>
			<point x="1653" y="50"/>
			<point x="1653" y="124" type="curve" smooth="yes"/>
			<point x="1653" y="208"/>
			<point x="1610" y="230"/>
			<point x="1552" y="230" type="curve" smooth="yes"/>
			<point x="1106" y="230" type="line" smooth="yes"/>
			<point x="1063" y="230"/>
			<point x="1044" y="246"/>
			<point x="1044" y="281" type="curve" smooth="yes"/>
			<point x="1044" y="311"/>
			<point x="1052" y="346"/>
			<point x="1061" y="387" type="curve" smooth="yes"/>
			<point x="1244" y="1178" type="line"/>
			<point x="1348" y="1178"/>
			<point x="1647" y="1182"/>
			<point x="1733" y="1185" type="curve" smooth="yes"/>
			<point x="1803" y="1187"/>
			<point x="1836" y="1233"/>
			<point x="1836" y="1315" type="curve" smooth="yes"/>
			<point x="1836" y="1386"/>
			<point x="1805" y="1413"/>
			<point x="1731" y="1413" type="curve" smooth="yes"/>
			<point x="1661" y="1413"/>
			<point x="1222" y="1408"/>
			<point x="1155" y="1403" type="curve" smooth="yes"/>
			<point x="1082" y="1398"/>
			<point x="1043" y="1375"/>
		</contour>
		<contour>
			<point x="304" y="560" type="curve" smooth="yes"/>
			<point x="410" y="557"/>
			<point x="1427" y="563"/>
			<point x="1523" y="566" type="curve" smooth="yes"/>
			<point x="1590" y="568"/>
			<point x="1632" y="616"/>
			<point x="1632" y="685" type="curve" smooth="yes"/>
			<point x="1632" y="763"/>
			<point x="1600" y="784"/>
			<point x="1557" y="784" type="curve" smooth="yes"/>
			<point x="1509" y="784"/>
			<point x="1357" y="781"/>
			<point x="1304" y="780" type="curve" smooth="yes"/>
			<point x="280" y="762" type="line" smooth="yes"/>
			<point x="215" y="761"/>
			<point x="190" y="731"/>
			<point x="190" y="689" type="curve" smooth="yes"/>
			<point x="190" y="618"/>
			<point x="238" y="562"/>
		</contour>
	</outline>
	<anchor name="bottom" x="822" y="0"/>
	<anchor name="top" x="1430" y="1400"/>
</glyph>
<glyph name="Thorn" format="2">
	<unicode hex="00DE"/>
	<advance width="1431"/>
	<outline>
		<contour>
			<point x="576" y="253" type="curve" smooth="yes"/>
			<point x="515" y="253"/>
			<point x="472" y="192"/>
			<point x="472" y="158" type="curve" smooth="yes"/>
			<point x="472" y="140"/>
			<point x="478" y="110"/>
			<point x="515" y="73" type="curve" smooth="yes"/>
			<point x="577" y="10"/>
			<point x="650" y="-22"/>
			<point x="743" y="-22" type="curve" smooth="yes"/>
			<point x="1001" y="-22"/>
			<point x="1261" y="310"/>
			<point x="1261" y="716" type="curve" smooth="yes"/>
			<point x="1261" y="1009"/>
			<point x="1143" y="1144"/>
			<point x="980" y="1144" type="curve" smooth="yes"/>
			<point x="800" y="1144"/>
			<point x="647" y="1012"/>
			<point x="413" y="529" type="curve"/>
			<point x="437" y="471" type="line"/>
			<point x="562" y="818"/>
			<point x="624" y="1022"/>
			<point x="668" y="1169" type="curve" smooth="yes"/>
			<point x="694" y="1257"/>
			<point x="701" y="1297"/>
			<point x="701" y="1323" type="curve" smooth="yes"/>
			<point x="701" y="1375"/>
			<point x="649" y="1410"/>
			<point x="554" y="1410" type="curve" smooth="yes"/>
			<point x="490" y="1410"/>
			<point x="465" y="1386"/>
			<point x="446" y="1319" type="curve" smooth="yes"/>
			<point x="408" y="1179"/>
			<point x="296" y="579"/>
			<point x="260" y="373" type="curve"/>
			<point x="140" y="25"/>
			<point x="80" y="-227"/>
			<point x="80" y="-363" type="curve" smooth="yes"/>
			<point x="80" y="-442"/>
			<point x="115" y="-470"/>
			<point x="210" y="-470" type="curve" smooth="yes"/>
			<point x="272" y="-470"/>
			<point x="308" y="-438"/>
			<point x="323" y="-321" type="curve" smooth="yes"/>
			<point x="341" y="-172"/>
			<point x="367" y="10"/>
			<point x="407" y="250" type="curve"/>
			<point x="446" y="356"/>
			<point x="476" y="430"/>
			<point x="548" y="576" type="curve" smooth="yes"/>
			<point x="674" y="834"/>
			<point x="788" y="944"/>
			<point x="894" y="944" type="curve" smooth="yes"/>
			<point x="972" y="944"/>
			<point x="1021" y="873"/>
			<point x="1021" y="693" type="curve" smooth="yes"/>
			<point x="1021" y="386"/>
			<point x="860" y="178"/>
			<point x="747" y="178" type="curve" smooth="yes"/>
			<point x="702" y="178"/>
			<point x="662" y="198"/>
			<point x="626" y="229" type="curve" smooth="yes"/>
			<point x="606" y="247"/>
			<point x="591" y="253"/>
		</contour>
	</outline>
</glyph>
<glyph name="thorn" format="2">
	<unicode hex="00FE"/>
	<advance width="1082"/>
	<outline>
		<contour>
			<point x="369" y="158" type="curve" smooth="yes"/>
			<point x="299" y="153"/>
			<point x="260" y="123"/>
			<point x="260" y="66" type="curve" smooth="yes"/>
			<point x="260" y="8"/>
			<point x="290" y="-22"/>
			<point x="352" y="-22" type="curve" smooth="yes"/>
			<point x="674" y="-22"/>
			<point x="990" y="327"/>
			<point x="990" y="698" type="curve" smooth="yes"/>
			<point x="990" y="920"/>
			<point x="892" y="1020"/>
			<point x="745" y="1020" type="curve" smooth="yes"/>
			<point x="569" y="1020"/>
			<point x="425" y="849"/>
			<point x="265" y="501" type="curve"/>
			<point x="275" y="478" type="line"/>
			<point x="309" y="633"/>
			<point x="343" y="778"/>
			<point x="400" y="1005" type="curve"/>
			<point x="514" y="1276"/>
			<point x="568" y="1415"/>
			<point x="568" y="1517" type="curve" smooth="yes"/>
			<point x="568" y="1580"/>
			<point x="496" y="1625"/>
			<point x="408" y="1625" type="curve" smooth="yes"/>
			<point x="363" y="1625"/>
			<point x="337" y="1599"/>
			<point x="315" y="1517" type="curve" smooth="yes"/>
			<point x="270" y="1347"/>
			<point x="225" y="1152"/>
			<point x="188" y="978" type="curve" smooth="yes"/>
			<point x="120" y="657"/>
			<point x="52" y="326"/>
			<point x="-4" y="45" type="curve"/>
			<point x="-102" y="-265"/>
			<point x="-147" y="-497"/>
			<point x="-147" y="-588" type="curve" smooth="yes"/>
			<point x="-147" y="-666"/>
			<point x="-91" y="-690"/>
			<point x="-20" y="-690" type="curve" smooth="yes"/>
			<point x="42" y="-690"/>
			<point x="85" y="-663"/>
			<point x="93" y="-611" type="curve" smooth="yes"/>
			<point x="102" y="-554"/>
			<point x="116" y="-452"/>
			<point x="131" y="-340" type="curve" smooth="yes"/>
			<point x="153" y="-172"/>
			<point x="184" y="-10"/>
			<point x="245" y="216" type="curve" smooth="yes"/>
			<point x="347" y="593"/>
			<point x="533" y="833"/>
			<point x="656" y="833" type="curve" smooth="yes"/>
			<point x="714" y="833"/>
			<point x="745" y="780"/>
			<point x="745" y="661" type="curve" smooth="yes"/>
			<point x="745" y="391"/>
			<point x="580" y="173"/>
		</contour>
	</outline>
</glyph>
<glyph name="Aogonek" format="2">
	<unicode hex="0104"/>
	<advance width="1655"/>
	<outline>
		<contour>
			<point x="1239" y="1324" type="curve" smooth="yes"/>
			<point x="845" y="930"/>
			<point x="393" y="531"/>
			<point x="16" y="207" type="curve" smooth="yes"/>
			<point x="-54" y="147"/>
			<point x="-58" y="127"/>
			<point x="-58" y="104" type="curve" smooth="yes"/>
			<point x="-58" y="38"/>
			<point x="4" y="-12"/>
			<point x="54" y="-12" type="curve" smooth="yes"/>
			<point x="85" y="-12"/>
			<point x="105" y="-3"/>
			<point x="135" y="23" type="curve" smooth="yes"/>
			<point x="542" y="376"/>
			<point x="980" y="781"/>
			<point x="1410" y="1245" type="curve"/>
			<point x="1320" y="1297" type="line"/>
			<point x="1034" y="114" type="line" smooth="yes"/>
			<point x="1028" y="90"/>
			<point x="1027" y="79"/>
			<point x="1027" y="64" type="curve" smooth="yes"/>
			<point x="1027" y="42"/>
			<point x="1044" y="18"/>
			<point x="1074" y="8" type="curve"/>
			<point x="919" y="-105"/>
			<point x="835" y="-189"/>
			<point x="835" y="-300" type="curve" smooth="yes"/>
			<point x="835" y="-385"/>
			<point x="912" y="-444"/>
			<point x="1010" y="-444" type="curve" smooth="yes"/>
			<point x="1095" y="-444"/>
			<point x="1171" y="-407"/>
			<point x="1226" y="-341" type="curve" smooth="yes"/>
			<point x="1255" y="-306"/>
			<point x="1260" y="-285"/>
			<point x="1260" y="-268" type="curve" smooth="yes"/>
			<point x="1260" y="-230"/>
			<point x="1231" y="-211"/>
			<point x="1204" y="-211" type="curve" smooth="yes"/>
			<point x="1193" y="-211"/>
			<point x="1185" y="-214"/>
			<point x="1167" y="-224" type="curve" smooth="yes"/>
			<point x="1130" y="-245"/>
			<point x="1096" y="-259"/>
			<point x="1073" y="-259" type="curve" smooth="yes"/>
			<point x="1049" y="-259"/>
			<point x="1035" y="-244"/>
			<point x="1035" y="-222" type="curve" smooth="yes"/>
			<point x="1035" y="-175"/>
			<point x="1081" y="-116"/>
			<point x="1194" y="-21" type="curve" smooth="yes"/>
			<point x="1250" y="27"/>
			<point x="1271" y="51"/>
			<point x="1282" y="109" type="curve" smooth="yes"/>
			<point x="1496" y="1248" type="line" smooth="yes"/>
			<point x="1505" y="1291"/>
			<point x="1507" y="1306"/>
			<point x="1507" y="1322" type="curve" smooth="yes"/>
			<point x="1507" y="1376"/>
			<point x="1452" y="1420"/>
			<point x="1383" y="1420" type="curve" smooth="yes"/>
			<point x="1345" y="1420"/>
			<point x="1310" y="1395"/>
		</contour>
	</outline>
	<anchor name="bottom" x="663" y="0"/>
	<anchor name="top" x="1417" y="1400"/>
</glyph>
<glyph name="aogonek" format="2">
	<unicode hex="0105"/>
	<advance width="1326"/>
	<outline>
		<contour>
			<point x="696" y="758" type="curve"/>
			<point x="744" y="935" type="line"/>
			<point x="632" y="997"/>
			<point x="566" y="1020"/>
			<point x="495" y="1020" type="curve" smooth="yes"/>
			<point x="237" y="1020"/>
			<point x="9" y="687"/>
			<point x="9" y="306" type="curve" smooth="yes"/>
			<point x="9" y="91"/>
			<point x="114" y="-12"/>
			<point x="219" y="-12" type="curve" smooth="yes"/>
			<point x="347" y="-12"/>
			<point x="491" y="124"/>
			<point x="621" y="380" type="curve"/>
			<point x="607" y="389" type="line"/>
			<point x="581" y="297" type="line" smooth="yes"/>
			<point x="570" y="259"/>
			<point x="561" y="221"/>
			<point x="561" y="188" type="curve" smooth="yes"/>
			<point x="561" y="67"/>
			<point x="651" y="-12"/>
			<point x="791" y="-12" type="curve" smooth="yes"/>
			<point x="813" y="-12"/>
			<point x="841" y="-5"/>
			<point x="857" y="9" type="curve"/>
			<point x="845" y="18" type="line"/>
			<point x="683" y="-94"/>
			<point x="594" y="-182"/>
			<point x="594" y="-300" type="curve" smooth="yes"/>
			<point x="594" y="-385"/>
			<point x="671" y="-444"/>
			<point x="769" y="-444" type="curve" smooth="yes"/>
			<point x="854" y="-444"/>
			<point x="930" y="-407"/>
			<point x="985" y="-341" type="curve" smooth="yes"/>
			<point x="1014" y="-306"/>
			<point x="1019" y="-285"/>
			<point x="1019" y="-268" type="curve" smooth="yes"/>
			<point x="1019" y="-230"/>
			<point x="990" y="-211"/>
			<point x="963" y="-211" type="curve" smooth="yes"/>
			<point x="952" y="-211"/>
			<point x="944" y="-214"/>
			<point x="926" y="-224" type="curve" smooth="yes"/>
			<point x="889" y="-245"/>
			<point x="855" y="-259"/>
			<point x="832" y="-259" type="curve" smooth="yes"/>
			<point x="808" y="-259"/>
			<point x="794" y="-244"/>
			<point x="794" y="-222" type="curve" smooth="yes"/>
			<point x="794" y="-173"/>
			<point x="842" y="-109"/>
			<point x="984" y="5" type="curve" smooth="yes"/>
			<point x="1096" y="95" type="line" smooth="yes"/>
			<point x="1155" y="142"/>
			<point x="1166" y="174"/>
			<point x="1166" y="199" type="curve" smooth="yes"/>
			<point x="1166" y="241"/>
			<point x="1118" y="290"/>
			<point x="1076" y="290" type="curve" smooth="yes"/>
			<point x="1064" y="290"/>
			<point x="1051" y="284"/>
			<point x="1031" y="269" type="curve" smooth="yes"/>
			<point x="956" y="213"/>
			<point x="887" y="188"/>
			<point x="841" y="188" type="curve" smooth="yes"/>
			<point x="815" y="188"/>
			<point x="801" y="196"/>
			<point x="801" y="219" type="curve" smooth="yes"/>
			<point x="801" y="244"/>
			<point x="807" y="268"/>
			<point x="824" y="335" type="curve" smooth="yes"/>
			<point x="958" y="855" type="line" smooth="yes"/>
			<point x="970" y="900"/>
			<point x="973" y="924"/>
			<point x="973" y="936" type="curve" smooth="yes"/>
			<point x="973" y="986"/>
			<point x="911" y="1020"/>
			<point x="831" y="1020" type="curve" smooth="yes"/>
			<point x="770" y="1020"/>
			<point x="748" y="1005"/>
			<point x="728" y="931" type="curve" smooth="yes"/>
			<point x="675" y="732" type="line" smooth="yes"/>
			<point x="607" y="478"/>
			<point x="416" y="188"/>
			<point x="323" y="188" type="curve" smooth="yes"/>
			<point x="283" y="188"/>
			<point x="254" y="229"/>
			<point x="254" y="346" type="curve" smooth="yes"/>
			<point x="254" y="591"/>
			<point x="379" y="820"/>
			<point x="502" y="820" type="curve" smooth="yes"/>
			<point x="546" y="820"/>
			<point x="600" y="802"/>
		</contour>
	</outline>
	<anchor name="bottom" x="329" y="0"/>
	<anchor name="top" x="623" y="1005"/>
</glyph>
<glyph name="eogonek" format="2">
	<unicode hex="0119"/>
	<advance width="1019"/>
	<outline>
		<contour>
			<point x="236" y="489" type="curve"/>
			<point x="236" y="343" type="line"/>
			<point x="596" y="388"/>
			<point x="865" y="564"/>
			<point x="865" y="797" type="curve" smooth="yes"/>
			<point x="865" y="935"/>
			<point x="762" y="1020"/>
			<point x="612" y="1020" type="curve" smooth="yes"/>
			<point x="310" y="1020"/>
			<point x="60" y="736"/>
			<point x="60" y="393" type="curve" smooth="yes"/>
			<point x="60" y="148"/>
			<point x="228" y="-12"/>
			<point x="440" y="-12" type="curve" smooth="yes"/>
			<point x="499" y="-12"/>
			<point x="553" y="8"/>
			<point x="584" y="29" type="curve"/>
			<point x="569" y="43" type="line"/>
			<point x="347" y="-120"/>
			<point x="288" y="-198"/>
			<point x="288" y="-300" type="curve" smooth="yes"/>
			<point x="288" y="-385"/>
			<point x="365" y="-444"/>
			<point x="463" y="-444" type="curve" smooth="yes"/>
			<point x="548" y="-444"/>
			<point x="624" y="-407"/>
			<point x="679" y="-341" type="curve" smooth="yes"/>
			<point x="708" y="-306"/>
			<point x="713" y="-285"/>
			<point x="713" y="-268" type="curve" smooth="yes"/>
			<point x="713" y="-230"/>
			<point x="684" y="-211"/>
			<point x="657" y="-211" type="curve" smooth="yes"/>
			<point x="646" y="-211"/>
			<point x="638" y="-214"/>
			<point x="620" y="-224" type="curve" smooth="yes"/>
			<point x="583" y="-245"/>
			<point x="549" y="-259"/>
			<point x="526" y="-259" type="curve" smooth="yes"/>
			<point x="502" y="-259"/>
			<point x="488" y="-244"/>
			<point x="488" y="-222" type="curve" smooth="yes"/>
			<point x="488" y="-173"/>
			<point x="536" y="-114"/>
			<point x="678" y="1" type="curve" smooth="yes"/>
			<point x="773" y="78" type="line" smooth="yes"/>
			<point x="848" y="139"/>
			<point x="859" y="170"/>
			<point x="859" y="195" type="curve" smooth="yes"/>
			<point x="859" y="237"/>
			<point x="811" y="290"/>
			<point x="769" y="290" type="curve" smooth="yes"/>
			<point x="757" y="290"/>
			<point x="744" y="283"/>
			<point x="724" y="269" type="curve" smooth="yes"/>
			<point x="653" y="219"/>
			<point x="580" y="188"/>
			<point x="498" y="188" type="curve" smooth="yes"/>
			<point x="379" y="188"/>
			<point x="292" y="252"/>
			<point x="292" y="426" type="curve" smooth="yes"/>
			<point x="292" y="649"/>
			<point x="422" y="840"/>
			<point x="553" y="840" type="curve" smooth="yes"/>
			<point x="605" y="840"/>
			<point x="633" y="806"/>
			<point x="633" y="751" type="curve" smooth="yes"/>
			<point x="633" y="637"/>
			<point x="509" y="530"/>
		</contour>
	</outline>
	<anchor name="bottom" x="411" y="0"/>
	<anchor name="top" x="597" y="1005"/>
</glyph>
<glyph name="Iogonek" format="2">
	<unicode hex="012E"/>
	<advance width="655"/>
	<outline>
		<contour>
			<point x="71" y="11" type="curve"/>
			<point x="-85" y="-103"/>
			<point x="-168" y="-187"/>
			<point x="-168" y="-300" type="curve" smooth="yes"/>
			<point x="-168" y="-385"/>
			<point x="-91" y="-444"/>
			<point x="7" y="-444" type="curve" smooth="yes"/>
			<point x="92" y="-444"/>
			<point x="168" y="-407"/>
			<point x="223" y="-341" type="curve" smooth="yes"/>
			<point x="252" y="-306"/>
			<point x="257" y="-285"/>
			<point x="257" y="-268" type="curve" smooth="yes"/>
			<point x="257" y="-230"/>
			<point x="228" y="-211"/>
			<point x="201" y="-211" type="curve" smooth="yes"/>
			<point x="190" y="-211"/>
			<point x="182" y="-214"/>
			<point x="164" y="-224" type="curve" smooth="yes"/>
			<point x="127" y="-245"/>
			<point x="93" y="-259"/>
			<point x="70" y="-259" type="curve" smooth="yes"/>
			<point x="46" y="-259"/>
			<point x="32" y="-244"/>
			<point x="32" y="-222" type="curve" smooth="yes"/>
			<point x="32" y="-177"/>
			<point x="68" y="-114"/>
			<point x="192" y="-12" type="curve" smooth="yes"/>
			<point x="209" y="2"/>
			<point x="230" y="17"/>
			<point x="241" y="28" type="curve" smooth="yes"/>
			<point x="259" y="45"/>
			<point x="268" y="74"/>
			<point x="279" y="117" type="curve" smooth="yes"/>
			<point x="372" y="487"/>
			<point x="478" y="903"/>
			<point x="583" y="1246" type="curve" smooth="yes"/>
			<point x="598" y="1295"/>
			<point x="601" y="1312"/>
			<point x="601" y="1326" type="curve" smooth="yes"/>
			<point x="601" y="1358"/>
			<point x="548" y="1398"/>
			<point x="463" y="1398" type="curve" smooth="yes"/>
			<point x="406" y="1398"/>
			<point x="382" y="1388"/>
			<point x="356" y="1302" type="curve" smooth="yes"/>
			<point x="257" y="976"/>
			<point x="150" y="571"/>
			<point x="63" y="228" type="curve" smooth="yes"/>
			<point x="38" y="129"/>
			<point x="32" y="101"/>
			<point x="32" y="81" type="curve" smooth="yes"/>
			<point x="32" y="52"/>
			<point x="47" y="28"/>
		</contour>
	</outline>
	<anchor name="top" x="509" y="1398"/>
	<anchor name="topleft" x="426" y="1398"/>
</glyph>
<glyph name="IJ" format="2">
	<unicode hex="0132"/>
	<advance width="962"/>
	<outline>
		<contour>
			<point x="763" y="-10" type="curve"/>
			<point x="801" y="173" type="line"/>
			<point x="250" y="-23"/>
			<point x="159" y="-134"/>
			<point x="159" y="-276" type="curve" smooth="yes"/>
			<point x="159" y="-390"/>
			<point x="268" y="-470"/>
			<point x="427" y="-470" type="curve" smooth="yes"/>
			<point x="725" y="-470"/>
			<point x="982" y="-286"/>
			<point x="993" y="156" type="curve" smooth="yes"/>
			<point x="999" y="414"/>
			<point x="1021" y="612"/>
			<point x="1102" y="904" type="curve" smooth="yes"/>
			<point x="1131" y="1009"/>
			<point x="1144" y="1046"/>
			<point x="1179" y="1163" type="curve" smooth="yes"/>
			<point x="1206" y="1253"/>
			<point x="1220" y="1300"/>
			<point x="1220" y="1330" type="curve" smooth="yes"/>
			<point x="1220" y="1370"/>
			<point x="1167" y="1400"/>
			<point x="1082" y="1400" type="curve" smooth="yes"/>
			<point x="1023" y="1400"/>
			<point x="999" y="1393"/>
			<point x="979" y="1319" type="curve" smooth="yes"/>
			<point x="937" y="1158"/>
			<point x="905" y="1055"/>
			<point x="844" y="904" type="curve" smooth="yes"/>
			<point x="680" y="493"/>
			<point x="514" y="318"/>
			<point x="389" y="318" type="curve" smooth="yes"/>
			<point x="327" y="318"/>
			<point x="296" y="354"/>
			<point x="296" y="430" type="curve" smooth="yes"/>
			<point x="296" y="503"/>
			<point x="313" y="577"/>
			<point x="364" y="729" type="curve" smooth="yes"/>
			<point x="431" y="930"/>
			<point x="482" y="1056"/>
			<point x="516" y="1175" type="curve" smooth="yes"/>
			<point x="542" y="1265"/>
			<point x="551" y="1299"/>
			<point x="551" y="1328" type="curve" smooth="yes"/>
			<point x="551" y="1362"/>
			<point x="498" y="1400"/>
			<point x="413" y="1400" type="curve" smooth="yes"/>
			<point x="352" y="1400"/>
			<point x="330" y="1389"/>
			<point x="306" y="1294" type="curve" smooth="yes"/>
			<point x="269" y="1149"/>
			<point x="221" y="971"/>
			<point x="164" y="805" type="curve" smooth="yes"/>
			<point x="103" y="627"/>
			<point x="64" y="504"/>
			<point x="64" y="400" type="curve" smooth="yes"/>
			<point x="64" y="227"/>
			<point x="161" y="118"/>
			<point x="319" y="118" type="curve" smooth="yes"/>
			<point x="528" y="118"/>
			<point x="734" y="338"/>
			<point x="923" y="832" type="curve"/>
			<point x="911" y="872" type="line"/>
			<point x="820" y="573"/>
			<point x="772" y="318"/>
			<point x="763" y="65" type="curve" smooth="yes"/>
			<point x="753" y="-207"/>
			<point x="636" y="-290"/>
			<point x="468" y="-290" type="curve" smooth="yes"/>
			<point x="394" y="-290"/>
			<point x="369" y="-259"/>
			<point x="369" y="-238" type="curve" smooth="yes"/>
			<point x="369" y="-168"/>
			<point x="448" y="-104"/>
		</contour>
	</outline>
</glyph>
<glyph name="ij" format="2">
	<unicode hex="0133"/>
	<advance width="764"/>
	<outline>
		<contour>
			<point x="551" y="-100" type="curve"/>
			<point x="591" y="91" type="line"/>
			<point x="123" y="-154"/>
			<point x="-17" y="-305"/>
			<point x="-17" y="-486" type="curve" smooth="yes"/>
			<point x="-17" y="-605"/>
			<point x="84" y="-690"/>
			<point x="225" y="-690" type="curve" smooth="yes"/>
			<point x="428" y="-690"/>
			<point x="648" y="-531"/>
			<point x="710" y="-223" type="curve" smooth="yes"/>
			<point x="751" y="-21"/>
			<point x="776" y="102"/>
			<point x="802" y="217" type="curve" smooth="yes"/>
			<point x="825" y="320"/>
			<point x="849" y="417"/>
			<point x="885" y="559" type="curve" smooth="yes"/>
			<point x="964" y="874"/>
			<point x="966" y="905"/>
			<point x="966" y="925" type="curve" smooth="yes"/>
			<point x="966" y="980"/>
			<point x="891" y="1020"/>
			<point x="812" y="1020" type="curve" smooth="yes"/>
			<point x="766" y="1020"/>
			<point x="746" y="999"/>
			<point x="732" y="944" type="curve" smooth="yes"/>
			<point x="674" y="712"/>
			<point x="633" y="583"/>
			<point x="577" y="464" type="curve" smooth="yes"/>
			<point x="502" y="305"/>
			<point x="402" y="218"/>
			<point x="313" y="218" type="curve" smooth="yes"/>
			<point x="268" y="218"/>
			<point x="245" y="242"/>
			<point x="245" y="296" type="curve" smooth="yes"/>
			<point x="245" y="345"/>
			<point x="256" y="393"/>
			<point x="317" y="591" type="curve" smooth="yes"/>
			<point x="377" y="785"/>
			<point x="412" y="903"/>
			<point x="412" y="935" type="curve" smooth="yes"/>
			<point x="412" y="990"/>
			<point x="342" y="1020"/>
			<point x="273" y="1020" type="curve" smooth="yes"/>
			<point x="224" y="1020"/>
			<point x="192" y="997"/>
			<point x="179" y="935" type="curve" smooth="yes"/>
			<point x="171" y="898"/>
			<point x="132" y="752"/>
			<point x="62" y="521" type="curve" smooth="yes"/>
			<point x="21" y="386"/>
			<point x="5" y="301"/>
			<point x="5" y="248" type="curve" smooth="yes"/>
			<point x="5" y="117"/>
			<point x="93" y="18"/>
			<point x="218" y="18" type="curve" smooth="yes"/>
			<point x="363" y="18"/>
			<point x="547" y="157"/>
			<point x="643" y="398" type="curve"/>
			<point x="620" y="393" type="line"/>
			<point x="595" y="293"/>
			<point x="571" y="189"/>
			<point x="551" y="90" type="curve" smooth="yes"/>
			<point x="526" y="-31"/>
			<point x="502" y="-142"/>
			<point x="480" y="-232" type="curve" smooth="yes"/>
			<point x="431" y="-431"/>
			<point x="341" y="-510"/>
			<point x="251" y="-510" type="curve" smooth="yes"/>
			<point x="217" y="-510"/>
			<point x="193" y="-488"/>
			<point x="193" y="-440" type="curve" smooth="yes"/>
			<point x="193" y="-355"/>
			<point x="271" y="-239"/>
		</contour>
		<contour>
			<point x="373" y="1153" type="curve" smooth="yes"/>
			<point x="459" y="1153"/>
			<point x="541" y="1231"/>
			<point x="541" y="1320" type="curve" smooth="yes"/>
			<point x="541" y="1384"/>
			<point x="493" y="1432"/>
			<point x="426" y="1432" type="curve" smooth="yes"/>
			<point x="342" y="1432"/>
			<point x="268" y="1358"/>
			<point x="268" y="1265" type="curve" smooth="yes"/>
			<point x="268" y="1194"/>
			<point x="316" y="1153"/>
		</contour>
		<contour>
			<point x="913" y="1153" type="curve" smooth="yes"/>
			<point x="999" y="1153"/>
			<point x="1081" y="1231"/>
			<point x="1081" y="1320" type="curve" smooth="yes"/>
			<point x="1081" y="1384"/>
			<point x="1033" y="1432"/>
			<point x="966" y="1432" type="curve" smooth="yes"/>
			<point x="882" y="1432"/>
			<point x="808" y="1358"/>
			<point x="808" y="1265" type="curve" smooth="yes"/>
			<point x="808" y="1194"/>
			<point x="856" y="1153"/>
		</contour>
	</outline>
	<anchor name="top" x="685" y="1430"/>
</glyph>
<glyph name="Eng" format="2">
	<unicode hex="014A"/>
	<advance width="1453"/>
	<outline>
		<contour>
			<point x="206" y="-11" type="curve" smooth="yes"/>
			<point x="249" y="-11"/>
			<point x="276" y="25"/>
			<point x="289" y="72" type="curve" smooth="yes"/>
			<point x="351" y="299"/>
			<point x="525" y="972"/>
			<point x="553" y="1090" type="curve"/>
			<point x="388" y="1190" type="line"/>
			<point x="288" y="838"/>
			<point x="154" y="367"/>
			<point x="94" y="154" type="curve" smooth="yes"/>
			<point x="83" y="115"/>
			<point x="80" y="96"/>
			<point x="80" y="80" type="curve" smooth="yes"/>
			<point x="80" y="25"/>
			<point x="141" y="-11"/>
		</contour>
		<contour>
			<point x="1070" y="-180" type="curve" smooth="yes"/>
			<point x="1414" y="1202" type="line" smooth="yes"/>
			<point x="1432" y="1273"/>
			<point x="1442" y="1301"/>
			<point x="1442" y="1316" type="curve" smooth="yes"/>
			<point x="1442" y="1370"/>
			<point x="1391" y="1406"/>
			<point x="1317" y="1406" type="curve" smooth="yes"/>
			<point x="1258" y="1406"/>
			<point x="1237" y="1368"/>
			<point x="1221" y="1302" type="curve" smooth="yes"/>
			<point x="974" y="273" type="line"/>
			<point x="992" y="273" type="line"/>
			<point x="565" y="1286" type="line" smooth="yes"/>
			<point x="524" y="1383"/>
			<point x="503" y="1406"/>
			<point x="444" y="1406" type="curve" smooth="yes"/>
			<point x="382" y="1406"/>
			<point x="329" y="1365"/>
			<point x="329" y="1305" type="curve" smooth="yes"/>
			<point x="329" y="1280"/>
			<point x="341" y="1241"/>
			<point x="370" y="1174" type="curve" smooth="yes"/>
			<point x="899" y="-36" type="line"/>
			<point x="874" y="-126" type="line" smooth="yes"/>
			<point x="816" y="-336"/>
			<point x="732" y="-416"/>
			<point x="628" y="-416" type="curve" smooth="yes"/>
			<point x="565" y="-416"/>
			<point x="502" y="-390"/>
			<point x="463" y="-365" type="curve" smooth="yes"/>
			<point x="443" y="-353"/>
			<point x="430" y="-347"/>
			<point x="419" y="-347" type="curve" smooth="yes"/>
			<point x="372" y="-347"/>
			<point x="330" y="-405"/>
			<point x="330" y="-462" type="curve" smooth="yes"/>
			<point x="330" y="-509"/>
			<point x="452" y="-604"/>
			<point x="635" y="-604" type="curve" smooth="yes"/>
			<point x="838" y="-604"/>
			<point x="996" y="-479"/>
		</contour>
	</outline>
</glyph>
<glyph name="OE" format="2">
	<unicode hex="0152"/>
	<advance width="2072"/>
	<outline>
		<contour>
			<point x="120" y="489" type="curve" smooth="yes"/>
			<point x="120" y="144"/>
			<point x="287" y="-11"/>
			<point x="528" y="-11" type="curve" smooth="yes"/>
			<point x="744" y="-11"/>
			<point x="953" y="135"/>
			<point x="1048" y="342" type="curve"/>
			<point x="1038" y="345" type="line"/>
			<point x="1032" y="356" type="line"/>
			<point x="1015" y="317"/>
			<point x="1007" y="253"/>
			<point x="1007" y="216" type="curve" smooth="yes"/>
			<point x="1007" y="106"/>
			<point x="1104" y="0"/>
			<point x="1230" y="0" type="curve" smooth="yes"/>
			<point x="1759" y="0" type="line" smooth="yes"/>
			<point x="1837" y="0"/>
			<point x="1882" y="52"/>
			<point x="1882" y="132" type="curve" smooth="yes"/>
			<point x="1882" y="208"/>
			<point x="1843" y="230"/>
			<point x="1785" y="230" type="curve" smooth="yes"/>
			<point x="1284" y="230" type="line" smooth="yes"/>
			<point x="1245" y="230"/>
			<point x="1232" y="240"/>
			<point x="1232" y="274" type="curve" smooth="yes"/>
			<point x="1232" y="299"/>
			<point x="1241" y="353"/>
			<point x="1246" y="377" type="curve" smooth="yes"/>
			<point x="1414" y="1179" type="line"/>
			<point x="1605" y="1179"/>
			<point x="1888" y="1183"/>
			<point x="1917" y="1185" type="curve" smooth="yes"/>
			<point x="1985" y="1189"/>
			<point x="2022" y="1237"/>
			<point x="2022" y="1318" type="curve" smooth="yes"/>
			<point x="2022" y="1386"/>
			<point x="1995" y="1414"/>
			<point x="1920" y="1414" type="curve" smooth="yes"/>
			<point x="1705" y="1414"/>
			<point x="1567" y="1410"/>
			<point x="1353" y="1404" type="curve" smooth="yes"/>
			<point x="1261" y="1402"/>
			<point x="1222" y="1348"/>
			<point x="1193" y="1188" type="curve"/>
			<point x="1198" y="1189" type="line"/>
			<point x="1217" y="1206" type="line"/>
			<point x="1193" y="1329"/>
			<point x="1065" y="1425"/>
			<point x="897" y="1425" type="curve" smooth="yes"/>
			<point x="461" y="1425"/>
			<point x="120" y="936"/>
		</contour>
		<contour>
			<point x="370" y="503" type="curve" smooth="yes"/>
			<point x="370" y="842"/>
			<point x="612" y="1211"/>
			<point x="851" y="1211" type="curve" smooth="yes"/>
			<point x="965" y="1211"/>
			<point x="1057" y="1127"/>
			<point x="1057" y="930" type="curve" smooth="yes"/>
			<point x="1057" y="587"/>
			<point x="812" y="204"/>
			<point x="574" y="204" type="curve" smooth="yes"/>
			<point x="456" y="204"/>
			<point x="370" y="279"/>
		</contour>
		<contour>
			<point x="1487" y="833" type="curve" smooth="yes"/>
			<point x="1257" y="823" type="line"/>
			<point x="1225" y="608" type="line"/>
			<point x="1289" y="608"/>
			<point x="1663" y="613"/>
			<point x="1725" y="618" type="curve" smooth="yes"/>
			<point x="1793" y="623"/>
			<point x="1827" y="656"/>
			<point x="1827" y="743" type="curve" smooth="yes"/>
			<point x="1827" y="815"/>
			<point x="1802" y="842"/>
			<point x="1744" y="842" type="curve" smooth="yes"/>
			<point x="1716" y="842"/>
			<point x="1556" y="836"/>
		</contour>
	</outline>
	<anchor name="bottom" x="1026" y="0"/>
	<anchor name="top" x="1239" y="1402"/>
</glyph>
<glyph name="oe" format="2">
	<unicode hex="0153"/>
	<advance width="1117"/>
	<outline>
		<contour>
			<point x="819" y="489" type="curve"/>
			<point x="819" y="343" type="line"/>
			<point x="1253" y="394"/>
			<point x="1448" y="571"/>
			<point x="1448" y="797" type="curve" smooth="yes"/>
			<point x="1448" y="935"/>
			<point x="1345" y="1020"/>
			<point x="1195" y="1020" type="curve" smooth="yes"/>
			<point x="1038" y="1020"/>
			<point x="910" y="937"/>
			<point x="815" y="821" type="curve"/>
			<point x="833" y="814" type="line"/>
			<point x="815" y="941"/>
			<point x="698" y="1020"/>
			<point x="569" y="1020" type="curve" smooth="yes"/>
			<point x="433" y="1020"/>
			<point x="351" y="947"/>
			<point x="351" y="897" type="curve" smooth="yes"/>
			<point x="351" y="862"/>
			<point x="365" y="837"/>
			<point x="392" y="837" type="curve" smooth="yes"/>
			<point x="400" y="837"/>
			<point x="410" y="840"/>
			<point x="423" y="844" type="curve" smooth="yes"/>
			<point x="444" y="851"/>
			<point x="472" y="860"/>
			<point x="506" y="860" type="curve" smooth="yes"/>
			<point x="594" y="860"/>
			<point x="651" y="801"/>
			<point x="651" y="657" type="curve" smooth="yes"/>
			<point x="651" y="380"/>
			<point x="499" y="168"/>
			<point x="359" y="168" type="curve" smooth="yes"/>
			<point x="284" y="168"/>
			<point x="249" y="223"/>
			<point x="249" y="341" type="curve" smooth="yes"/>
			<point x="249" y="475"/>
			<point x="290" y="598"/>
			<point x="344" y="684" type="curve" smooth="yes"/>
			<point x="372" y="729"/>
			<point x="376" y="757"/>
			<point x="376" y="780" type="curve" smooth="yes"/>
			<point x="376" y="827"/>
			<point x="318" y="875"/>
			<point x="272" y="875" type="curve" smooth="yes"/>
			<point x="240" y="875"/>
			<point x="214" y="858"/>
			<point x="165" y="790" type="curve" smooth="yes"/>
			<point x="86" y="679"/>
			<point x="9" y="491"/>
			<point x="9" y="310" type="curve" smooth="yes"/>
			<point x="9" y="114"/>
			<point x="131" y="-12"/>
			<point x="315" y="-12" type="curve" smooth="yes"/>
			<point x="498" y="-12"/>
			<point x="635" y="102"/>
			<point x="702" y="232" type="curve"/>
			<point x="651" y="257" type="line"/>
			<point x="715" y="76"/>
			<point x="873" y="-12"/>
			<point x="1067" y="-12" type="curve" smooth="yes"/>
			<point x="1152" y="-12"/>
			<point x="1183" y="58"/>
			<point x="1183" y="122" type="curve" smooth="yes"/>
			<point x="1183" y="161"/>
			<point x="1158" y="188"/>
			<point x="1117" y="188" type="curve" smooth="yes"/>
			<point x="962" y="188"/>
			<point x="875" y="252"/>
			<point x="875" y="426" type="curve" smooth="yes"/>
			<point x="875" y="649"/>
			<point x="1005" y="840"/>
			<point x="1136" y="840" type="curve" smooth="yes"/>
			<point x="1188" y="840"/>
			<point x="1216" y="806"/>
			<point x="1216" y="751" type="curve" smooth="yes"/>
			<point x="1216" y="624"/>
			<point x="1109" y="539"/>
		</contour>
	</outline>
	<anchor name="bottom" x="672" y="0"/>
	<anchor name="center" x="444" y="515"/>
	<anchor name="top" x="854" y="1005"/>
</glyph>
<glyph name="Uogonek" format="2">
	<unicode hex="0172"/>
	<advance width="1550"/>
	<outline>
		<contour>
			<point x="1018" y="-12" type="curve" smooth="yes"/>
			<point x="1070" y="-12"/>
			<point x="1097" y="0"/>
			<point x="1139" y="13" type="curve"/>
			<point x="1129" y="22" type="line"/>
			<point x="905" y="-122"/>
			<point x="829" y="-224"/>
			<point x="829" y="-312" type="curve" smooth="yes"/>
			<point x="829" y="-397"/>
			<point x="907" y="-456"/>
			<point x="1008" y="-456" type="curve" smooth="yes"/>
			<point x="1099" y="-456"/>
			<point x="1178" y="-417"/>
			<point x="1233" y="-353" type="curve" smooth="yes"/>
			<point x="1263" y="-318"/>
			<point x="1268" y="-297"/>
			<point x="1268" y="-280" type="curve" smooth="yes"/>
			<point x="1268" y="-242"/>
			<point x="1239" y="-223"/>
			<point x="1212" y="-223" type="curve" smooth="yes"/>
			<point x="1200" y="-223"/>
			<point x="1191" y="-226"/>
			<point x="1172" y="-236" type="curve" smooth="yes"/>
			<point x="1134" y="-256"/>
			<point x="1097" y="-271"/>
			<point x="1071" y="-271" type="curve" smooth="yes"/>
			<point x="1045" y="-271"/>
			<point x="1030" y="-256"/>
			<point x="1030" y="-234" type="curve" smooth="yes"/>
			<point x="1030" y="-195"/>
			<point x="1080" y="-122"/>
			<point x="1229" y="-10" type="curve" smooth="yes"/>
			<point x="1354" y="84" type="line" smooth="yes"/>
			<point x="1427" y="139"/>
			<point x="1440" y="172"/>
			<point x="1440" y="199" type="curve" smooth="yes"/>
			<point x="1440" y="241"/>
			<point x="1392" y="290"/>
			<point x="1350" y="290" type="curve" smooth="yes"/>
			<point x="1337" y="290"/>
			<point x="1322" y="283"/>
			<point x="1300" y="268" type="curve" smooth="yes"/>
			<point x="1231" y="221"/>
			<point x="1135" y="188"/>
			<point x="1073" y="188" type="curve" smooth="yes"/>
			<point x="1038" y="188"/>
			<point x="1021" y="199"/>
			<point x="1021" y="237" type="curve" smooth="yes"/>
			<point x="1021" y="259"/>
			<point x="1026" y="286"/>
			<point x="1053" y="385" type="curve" smooth="yes"/>
			<point x="1105" y="575"/>
			<point x="1141" y="793"/>
			<point x="1233" y="1134" type="curve" smooth="yes"/>
			<point x="1266" y="1256"/>
			<point x="1278" y="1302"/>
			<point x="1278" y="1328" type="curve" smooth="yes"/>
			<point x="1278" y="1361"/>
			<point x="1233" y="1400"/>
			<point x="1139" y="1400" type="curve" smooth="yes"/>
			<point x="1065" y="1400"/>
			<point x="1058" y="1369"/>
			<point x="1051" y="1344" type="curve" smooth="yes"/>
			<point x="980" y="1073"/>
			<point x="943" y="978"/>
			<point x="910" y="890" type="curve" smooth="yes"/>
			<point x="725" y="403"/>
			<point x="523" y="188"/>
			<point x="393" y="188" type="curve" smooth="yes"/>
			<point x="341" y="188"/>
			<point x="304" y="230"/>
			<point x="304" y="309" type="curve" smooth="yes"/>
			<point x="304" y="379"/>
			<point x="316" y="457"/>
			<point x="357" y="591" type="curve" smooth="yes"/>
			<point x="399" y="728"/>
			<point x="440" y="843"/>
			<point x="482" y="962" type="curve" smooth="yes"/>
			<point x="531" y="1101"/>
			<point x="531" y="1101"/>
			<point x="557" y="1189" type="curve" smooth="yes"/>
			<point x="582" y="1274"/>
			<point x="588" y="1296"/>
			<point x="588" y="1329" type="curve" smooth="yes"/>
			<point x="588" y="1361"/>
			<point x="535" y="1400"/>
			<point x="452" y="1400" type="curve" smooth="yes"/>
			<point x="384" y="1400"/>
			<point x="372" y="1385"/>
			<point x="339" y="1279" type="curve" smooth="yes"/>
			<point x="295" y="1138"/>
			<point x="296" y="1129"/>
			<point x="259" y="1011" type="curve" smooth="yes"/>
			<point x="214" y="868"/>
			<point x="186" y="790"/>
			<point x="141" y="649" type="curve" smooth="yes"/>
			<point x="92" y="497"/>
			<point x="64" y="374"/>
			<point x="64" y="272" type="curve" smooth="yes"/>
			<point x="64" y="102"/>
			<point x="168" y="-12"/>
			<point x="306" y="-12" type="curve" smooth="yes"/>
			<point x="479" y="-12"/>
			<point x="651" y="93"/>
			<point x="922" y="628" type="curve"/>
			<point x="912" y="636" type="line"/>
			<point x="872" y="525"/>
			<point x="844" y="426"/>
			<point x="827" y="377" type="curve" smooth="yes"/>
			<point x="799" y="294"/>
			<point x="789" y="236"/>
			<point x="789" y="188" type="curve" smooth="yes"/>
			<point x="789" y="61"/>
			<point x="874" y="-12"/>
		</contour>
	</outline>
	<anchor name="bottom" x="522" y="0"/>
	<anchor name="top" x="960" y="1600"/>
	<anchor name="topright" x="1677" y="1434"/>
</glyph>
<glyph name="Schwa" format="2">
	<unicode hex="018F"/>
	<advance width="1212"/>
	<outline>
		<contour>
			<point x="682" y="1415" type="curve" smooth="yes"/>
			<point x="553" y="1415"/>
			<point x="410" y="1373"/>
			<point x="314" y="1323" type="curve" smooth="yes"/>
			<point x="263" y="1296"/>
			<point x="231" y="1269"/>
			<point x="231" y="1223" type="curve" smooth="yes"/>
			<point x="231" y="1173"/>
			<point x="271" y="1117"/>
			<point x="328" y="1117" type="curve" smooth="yes"/>
			<point x="351" y="1117"/>
			<point x="374" y="1126"/>
			<point x="417" y="1144" type="curve" smooth="yes"/>
			<point x="444" y="1155"/>
			<point x="556" y="1202"/>
			<point x="652" y="1202" type="curve" smooth="yes"/>
			<point x="769" y="1202"/>
			<point x="862" y="1131"/>
			<point x="862" y="872" type="curve" smooth="yes"/>
			<point x="862" y="451"/>
			<point x="605" y="187"/>
			<point x="412" y="187" type="curve" smooth="yes"/>
			<point x="335" y="187"/>
			<point x="280" y="227"/>
			<point x="280" y="303" type="curve" smooth="yes"/>
			<point x="280" y="458"/>
			<point x="519" y="653"/>
			<point x="868" y="653" type="curve" smooth="yes"/>
			<point x="921" y="653"/>
			<point x="964" y="695"/>
			<point x="964" y="765" type="curve" smooth="yes"/>
			<point x="964" y="811"/>
			<point x="942" y="843"/>
			<point x="913" y="843" type="curve" smooth="yes"/>
			<point x="428" y="843"/>
			<point x="40" y="554"/>
			<point x="40" y="270" type="curve" smooth="yes"/>
			<point x="40" y="100"/>
			<point x="171" y="-12"/>
			<point x="375" y="-12" type="curve" smooth="yes"/>
			<point x="744" y="-12"/>
			<point x="1112" y="379"/>
			<point x="1112" y="893" type="curve" smooth="yes"/>
			<point x="1112" y="1251"/>
			<point x="932" y="1415"/>
		</contour>
	</outline>
	<anchor name="top" x="684" y="1400"/>
</glyph>
<glyph name="jdotless" format="2">
	<unicode hex="0237"/>
	<advance width="243"/>
	<outline>
		<contour>
			<point x="-475" y="-509" type="curve" smooth="yes"/>
			<point x="-475" y="-619"/>
			<point x="-404" y="-690"/>
			<point x="-292" y="-690" type="curve" smooth="yes"/>
			<point x="-79" y="-690"/>
			<point x="127" y="-440"/>
			<point x="203" y="-38" type="curve" smooth="yes"/>
			<point x="217" y="37"/>
			<point x="228" y="93"/>
			<point x="244" y="158" type="curve" smooth="yes"/>
			<point x="415" y="866" type="line" smooth="yes"/>
			<point x="421" y="892"/>
			<point x="427" y="924"/>
			<point x="427" y="936" type="curve" smooth="yes"/>
			<point x="427" y="986"/>
			<point x="355" y="1020"/>
			<point x="264" y="1020" type="curve" smooth="yes"/>
			<point x="227" y="1020"/>
			<point x="201" y="1001"/>
			<point x="190" y="954" type="curve" smooth="yes"/>
			<point x="14" y="157" type="line" smooth="yes"/>
			<point x="-15" y="24"/>
			<point x="-41" y="-137"/>
			<point x="-52" y="-200" type="curve" smooth="yes"/>
			<point x="-91" y="-423"/>
			<point x="-188" y="-510"/>
			<point x="-249" y="-510" type="curve" smooth="yes"/>
			<point x="-269" y="-510"/>
			<point x="-285" y="-499"/>
			<point x="-285" y="-458" type="curve" smooth="yes"/>
			<point x="-285" y="-352"/>
			<point x="-195" y="-227"/>
			<point x="-19" y="-115" type="curve"/>
			<point x="26" y="90" type="line"/>
			<point x="-331" y="-133"/>
			<point x="-475" y="-329"/>
		</contour>
	</outline>
	<anchor name="top" x="323" y="1005"/>
</glyph>
<glyph name="macroncomb" format="2">
	<unicode hex="0304"/>
	<outline>
		<contour>
			<point x="303" y="1160" type="curve" smooth="yes"/>
			<point x="459" y="1160"/>
			<point x="537" y="1168"/>
			<point x="580" y="1184" type="curve" smooth="yes"/>
			<point x="613" y="1196"/>
			<point x="628" y="1226"/>
			<point x="628" y="1279" type="curve" smooth="yes"/>
			<point x="628" y="1313"/>
			<point x="615" y="1357"/>
			<point x="585" y="1357" type="curve" smooth="yes"/>
			<point x="550" y="1357"/>
			<point x="438" y="1353"/>
			<point x="339" y="1353" type="curve" smooth="yes"/>
			<point x="254" y="1353"/>
			<point x="138" y="1359"/>
			<point x="117" y="1359" type="curve" smooth="yes"/>
			<point x="68" y="1359"/>
			<point x="50" y="1322"/>
			<point x="50" y="1272" type="curve" smooth="yes"/>
			<point x="50" y="1220"/>
			<point x="72" y="1182"/>
			<point x="118" y="1171" type="curve" smooth="yes"/>
			<point x="153" y="1163"/>
			<point x="238" y="1160"/>
		</contour>
	</outline>
	<anchor name="_center" x="317" y="1271"/>
	<anchor name="_top" x="260" y="1005"/>
	<anchor name="top" x="339" y="1353"/>
	<guideline x="-837" y="1110" angle="0"/>
</glyph>
<glyph name="dotaccentcomb" format="2">
	<unicode hex="0307"/>
	<outline>
		<contour>
			<point x="155" y="1157" type="curve" smooth="yes"/>
			<point x="241" y="1157"/>
			<point x="323" y="1235"/>
			<point x="323" y="1324" type="curve" smooth="yes"/>
			<point x="323" y="1388"/>
			<point x="275" y="1436"/>
			<point x="208" y="1436" type="curve" smooth="yes"/>
			<point x="124" y="1436"/>
			<point x="50" y="1362"/>
			<point x="50" y="1269" type="curve" smooth="yes"/>
			<point x="50" y="1198"/>
			<point x="98" y="1157"/>
		</contour>
	</outline>
	<anchor name="_top" x="116" y="1005"/>
	<anchor name="top" x="208" y="1436"/>
</glyph>
<glyph name="dieresiscomb" format="2">
	<unicode hex="0308"/>
	<outline>
		<contour>
			<point x="157" y="1157" type="curve" smooth="yes"/>
			<point x="234" y="1157"/>
			<point x="306" y="1221"/>
			<point x="306" y="1310" type="curve" smooth="yes"/>
			<point x="306" y="1378"/>
			<point x="265" y="1422"/>
			<point x="197" y="1422" type="curve" smooth="yes"/>
			<point x="119" y="1422"/>
			<point x="50" y="1361"/>
			<point x="50" y="1272" type="curve" smooth="yes"/>
			<point x="50" y="1207"/>
			<point x="88" y="1157"/>
		</contour>
		<contour>
			<point x="520" y="1157" type="curve" smooth="yes"/>
			<point x="599" y="1157"/>
			<point x="671" y="1222"/>
			<point x="671" y="1310" type="curve" smooth="yes"/>
			<point x="671" y="1378"/>
			<point x="629" y="1422"/>
			<point x="561" y="1422" type="curve" smooth="yes"/>
			<point x="483" y="1422"/>
			<point x="415" y="1362"/>
			<point x="415" y="1272" type="curve" smooth="yes"/>
			<point x="415" y="1207"/>
			<point x="451" y="1157"/>
		</contour>
	</outline>
	<anchor name="_top" x="291" y="1005"/>
	<anchor name="top" x="375" y="1422"/>
</glyph>
<glyph name="ringcomb" format="2">
	<unicode hex="030A"/>
	<outline>
		<contour>
			<point x="232" y="1115" type="curve" smooth="yes"/>
			<point x="373" y="1115"/>
			<point x="495" y="1229"/>
			<point x="495" y="1365" type="curve" smooth="yes"/>
			<point x="495" y="1471"/>
			<point x="430" y="1538"/>
			<point x="314" y="1538" type="curve" smooth="yes"/>
			<point x="169" y="1538"/>
			<point x="50" y="1425"/>
			<point x="50" y="1288" type="curve" smooth="yes"/>
			<point x="50" y="1182"/>
			<point x="115" y="1115"/>
		</contour>
		<contour>
			<point x="251" y="1243" type="curve" smooth="yes"/>
			<point x="208" y="1243"/>
			<point x="184" y="1268"/>
			<point x="184" y="1307" type="curve" smooth="yes"/>
			<point x="184" y="1361"/>
			<point x="231" y="1410"/>
			<point x="290" y="1410" type="curve" smooth="yes"/>
			<point x="333" y="1410"/>
			<point x="361" y="1387"/>
			<point x="361" y="1345" type="curve" smooth="yes"/>
			<point x="361" y="1286"/>
			<point x="308" y="1243"/>
		</contour>
	</outline>
	<anchor name="_top" x="200" y="1005"/>
	<anchor name="top" x="314" y="1538"/>
</glyph>
<glyph name="hungarumlautcomb" format="2">
	<unicode hex="030B"/>
	<outline>
		<contour>
			<point x="120" y="1115" type="curve" smooth="yes"/>
			<point x="148" y="1115"/>
			<point x="204" y="1148"/>
			<point x="281" y="1265" type="curve" smooth="yes"/>
			<point x="351" y="1372"/>
			<point x="365" y="1427"/>
			<point x="365" y="1454" type="curve" smooth="yes"/>
			<point x="365" y="1506"/>
			<point x="307" y="1530"/>
			<point x="266" y="1530" type="curve" smooth="yes"/>
			<point x="226" y="1530"/>
			<point x="199" y="1528"/>
			<point x="150" y="1399" type="curve" smooth="yes"/>
			<point x="89" y="1238"/>
			<point x="50" y="1207"/>
			<point x="50" y="1170" type="curve" smooth="yes"/>
			<point x="50" y="1145"/>
			<point x="85" y="1115"/>
		</contour>
		<contour>
			<point x="390" y="1115" type="curve" smooth="yes"/>
			<point x="418" y="1115"/>
			<point x="475" y="1148"/>
			<point x="551" y="1265" type="curve" smooth="yes"/>
			<point x="621" y="1372"/>
			<point x="635" y="1428"/>
			<point x="635" y="1454" type="curve" smooth="yes"/>
			<point x="635" y="1506"/>
			<point x="577" y="1530"/>
			<point x="536" y="1530" type="curve" smooth="yes"/>
			<point x="496" y="1530"/>
			<point x="470" y="1528"/>
			<point x="420" y="1399" type="curve" smooth="yes"/>
			<point x="359" y="1238"/>
			<point x="320" y="1207"/>
			<point x="320" y="1170" type="curve" smooth="yes"/>
			<point x="320" y="1145"/>
			<point x="355" y="1115"/>
		</contour>
	</outline>
	<anchor name="_top" x="248" y="1005"/>
	<anchor name="top" x="406" y="1530"/>
</glyph>
<glyph name="Germandbls" format="2">
	<unicode hex="1E9E"/>
	<advance width="1352"/>
	<outline>
		<contour>
			<point x="219" y="-11" type="curve" smooth="yes"/>
			<point x="278" y="-11"/>
			<point x="299" y="11"/>
			<point x="313" y="63" type="curve" smooth="yes"/>
			<point x="625" y="1217" type="line"/>
			<point x="1091" y="1217" type="line"/>
			<point x="1095" y="1250" type="line"/>
			<point x="789" y="1095"/>
			<point x="704" y="984"/>
			<point x="704" y="828" type="curve" smooth="yes"/>
			<point x="704" y="697"/>
			<point x="801" y="605"/>
			<point x="888" y="522" type="curve" smooth="yes"/>
			<point x="962" y="452"/>
			<point x="1029" y="388"/>
			<point x="1029" y="312" type="curve" smooth="yes"/>
			<point x="1029" y="224"/>
			<point x="960" y="168"/>
			<point x="850" y="168" type="curve" smooth="yes"/>
			<point x="766" y="168"/>
			<point x="705" y="185"/>
			<point x="630" y="210" type="curve" smooth="yes"/>
			<point x="589" y="224"/>
			<point x="558" y="233"/>
			<point x="545" y="233" type="curve" smooth="yes"/>
			<point x="487" y="233"/>
			<point x="453" y="172"/>
			<point x="453" y="129" type="curve" smooth="yes"/>
			<point x="453" y="101"/>
			<point x="466" y="83"/>
			<point x="506" y="62" type="curve" smooth="yes"/>
			<point x="593" y="16"/>
			<point x="719" y="-14"/>
			<point x="834" y="-14" type="curve" smooth="yes"/>
			<point x="1066" y="-14"/>
			<point x="1235" y="126"/>
			<point x="1235" y="330" type="curve" smooth="yes"/>
			<point x="1235" y="479"/>
			<point x="1133" y="576"/>
			<point x="1043" y="661" type="curve" smooth="yes"/>
			<point x="973" y="727"/>
			<point x="910" y="787"/>
			<point x="910" y="859" type="curve" smooth="yes"/>
			<point x="910" y="937"/>
			<point x="953" y="984"/>
			<point x="1099" y="1072" type="curve" smooth="yes"/>
			<point x="1234" y="1154"/>
			<point x="1273" y="1198"/>
			<point x="1273" y="1276" type="curve" smooth="yes"/>
			<point x="1273" y="1361"/>
			<point x="1231" y="1400"/>
			<point x="1148" y="1400" type="curve" smooth="yes"/>
			<point x="558" y="1400" type="line" smooth="yes"/>
			<point x="458" y="1400"/>
			<point x="435" y="1391"/>
			<point x="416" y="1323" type="curve" smooth="yes"/>
			<point x="93" y="140" type="line" smooth="yes"/>
			<point x="88" y="122"/>
			<point x="80" y="87"/>
			<point x="80" y="70" type="curve" smooth="yes"/>
			<point x="80" y="22"/>
			<point x="147" y="-11"/>
		</contour>
	</outline>
</glyph>
<glyph name="endash" format="2">
	<unicode hex="2013"/>
	<advance width="1608"/>
	<outline>
		<contour>
			<point x="208" y="560" type="curve" smooth="yes"/>
			<point x="586" y="560"/>
			<point x="1026" y="561"/>
			<point x="1347" y="575" type="curve" smooth="yes"/>
			<point x="1455" y="580"/>
			<point x="1493" y="626"/>
			<point x="1493" y="694" type="curve" smooth="yes"/>
			<point x="1493" y="745"/>
			<point x="1459" y="780"/>
			<point x="1408" y="780" type="curve" smooth="yes"/>
			<point x="1340" y="780"/>
			<point x="1277" y="778"/>
			<point x="1160" y="776" type="curve" smooth="yes"/>
			<point x="988" y="773"/>
			<point x="386" y="766"/>
			<point x="227" y="766" type="curve" smooth="yes"/>
			<point x="142" y="766"/>
			<point x="115" y="706"/>
			<point x="115" y="641" type="curve" smooth="yes"/>
			<point x="115" y="590"/>
			<point x="142" y="560"/>
		</contour>
	</outline>
</glyph>
<glyph name="quoteright" format="2">
	<unicode hex="2019"/>
	<advance width="484"/>
	<outline>
		<contour>
			<point x="255" y="1117" type="curve" smooth="yes"/>
			<point x="282" y="1117"/>
			<point x="324" y="1130"/>
			<point x="380" y="1178" type="curve" smooth="yes"/>
			<point x="507" y="1289"/>
			<point x="564" y="1427"/>
			<point x="564" y="1593" type="curve" smooth="yes"/>
			<point x="564" y="1698"/>
			<point x="515" y="1717"/>
			<point x="457" y="1717" type="curve" smooth="yes"/>
			<point x="366" y="1717"/>
			<point x="323" y="1691"/>
			<point x="323" y="1637" type="curve" smooth="yes"/>
			<point x="323" y="1629"/>
			<point x="324" y="1618"/>
			<point x="325" y="1607" type="curve" smooth="yes"/>
			<point x="327" y="1589"/>
			<point x="330" y="1568"/>
			<point x="330" y="1532" type="curve" smooth="yes"/>
			<point x="330" y="1448"/>
			<point x="288" y="1351"/>
			<point x="233" y="1284" type="curve" smooth="yes"/>
			<point x="190" y="1232"/>
			<point x="180" y="1216"/>
			<point x="180" y="1198" type="curve" smooth="yes"/>
			<point x="180" y="1154"/>
			<point x="218" y="1117"/>
		</contour>
	</outline>
</glyph>
<glyph name="sixsuperior" format="2">
	<unicode hex="2076"/>
	<advance width="807"/>
	<outline>
		<contour>
			<point x="358" y="985" type="curve" smooth="yes"/>
			<point x="553" y="985"/>
			<point x="743" y="1159"/>
			<point x="743" y="1341" type="curve" smooth="yes"/>
			<point x="743" y="1471"/>
			<point x="665" y="1546"/>
			<point x="555" y="1546" type="curve" smooth="yes"/>
			<point x="424" y="1546"/>
			<point x="288" y="1473"/>
			<point x="211" y="1379" type="curve"/>
			<point x="258" y="1316" type="line"/>
			<point x="328" y="1372"/>
			<point x="405" y="1401"/>
			<point x="464" y="1401" type="curve" smooth="yes"/>
			<point x="521" y="1401"/>
			<point x="552" y="1372"/>
			<point x="552" y="1310" type="curve" smooth="yes"/>
			<point x="552" y="1231"/>
			<point x="473" y="1150"/>
			<point x="378" y="1150" type="curve" smooth="yes"/>
			<point x="303" y="1150"/>
			<point x="264" y="1194"/>
			<point x="264" y="1279" type="curve" smooth="yes"/>
			<point x="264" y="1494"/>
			<point x="400" y="1663"/>
			<point x="572" y="1663" type="curve" smooth="yes"/>
			<point x="603" y="1663"/>
			<point x="627" y="1659"/>
			<point x="654" y="1652" type="curve" smooth="yes"/>
			<point x="683" y="1644"/>
			<point x="696" y="1641"/>
			<point x="712" y="1641" type="curve" smooth="yes"/>
			<point x="760" y="1641"/>
			<point x="793" y="1691"/>
			<point x="793" y="1739" type="curve" smooth="yes"/>
			<point x="793" y="1762"/>
			<point x="784" y="1783"/>
			<point x="754" y="1801" type="curve" smooth="yes"/>
			<point x="719" y="1822"/>
			<point x="665" y="1837"/>
			<point x="613" y="1837" type="curve" smooth="yes"/>
			<point x="321" y="1837"/>
			<point x="70" y="1571"/>
			<point x="70" y="1276" type="curve" smooth="yes"/>
			<point x="70" y="1098"/>
			<point x="182" y="985"/>
		</contour>
	</outline>
</glyph>
<glyph name="eightsuperior" format="2">
	<unicode hex="2078"/>
	<advance width="860"/>
	<outline>
		<contour>
			<point x="346" y="985" type="curve" smooth="yes"/>
			<point x="572" y="985"/>
			<point x="759" y="1115"/>
			<point x="759" y="1271" type="curve" smooth="yes"/>
			<point x="759" y="1341"/>
			<point x="715" y="1390"/>
			<point x="631" y="1426" type="curve"/>
			<point x="760" y="1476"/>
			<point x="840" y="1558"/>
			<point x="840" y="1663" type="curve" smooth="yes"/>
			<point x="840" y="1758"/>
			<point x="751" y="1837"/>
			<point x="586" y="1837" type="curve" smooth="yes"/>
			<point x="365" y="1837"/>
			<point x="175" y="1696"/>
			<point x="175" y="1533" type="curve" smooth="yes"/>
			<point x="175" y="1475"/>
			<point x="204" y="1432"/>
			<point x="263" y="1396" type="curve"/>
			<point x="139" y="1348"/>
			<point x="60" y="1261"/>
			<point x="60" y="1166" type="curve" smooth="yes"/>
			<point x="60" y="1067"/>
			<point x="157" y="985"/>
		</contour>
		<contour>
			<point x="252" y="1219" type="curve" smooth="yes"/>
			<point x="252" y="1266"/>
			<point x="296" y="1314"/>
			<point x="356" y="1345" type="curve"/>
			<point x="517" y="1297"/>
			<point x="562" y="1269"/>
			<point x="562" y="1236" type="curve" smooth="yes"/>
			<point x="562" y="1186"/>
			<point x="497" y="1149"/>
			<point x="395" y="1149" type="curve" smooth="yes"/>
			<point x="302" y="1149"/>
			<point x="252" y="1173"/>
		</contour>
		<contour>
			<point x="373" y="1574" type="curve" smooth="yes"/>
			<point x="373" y="1630"/>
			<point x="443" y="1673"/>
			<point x="532" y="1673" type="curve" smooth="yes"/>
			<point x="607" y="1673"/>
			<point x="648" y="1644"/>
			<point x="648" y="1605" type="curve" smooth="yes"/>
			<point x="648" y="1556"/>
			<point x="607" y="1515"/>
			<point x="524" y="1477" type="curve"/>
			<point x="405" y="1513"/>
			<point x="373" y="1541"/>
		</contour>
	</outline>
	<guideline x="470" y="596" angle="262.8409"/>
</glyph>
<glyph name="n.sups" format="2">
	<unicode hex="207F"/>
	<advance width="975"/>
	<outline>
		<contour>
			<point x="684" y="795" type="curve" smooth="yes"/>
			<point x="803" y="795"/>
			<point x="955" y="914"/>
			<point x="955" y="978" type="curve" smooth="yes"/>
			<point x="955" y="1006"/>
			<point x="913" y="1046"/>
			<point x="875" y="1046" type="curve" smooth="yes"/>
			<point x="861" y="1046"/>
			<point x="849" y="1036"/>
			<point x="832" y="1022" type="curve" smooth="yes"/>
			<point x="796" y="993"/>
			<point x="769" y="970"/>
			<point x="743" y="970" type="curve" smooth="yes"/>
			<point x="727" y="970"/>
			<point x="713" y="979"/>
			<point x="713" y="999" type="curve" smooth="yes"/>
			<point x="713" y="1032"/>
			<point x="731" y="1075"/>
			<point x="791" y="1197" type="curve" smooth="yes"/>
			<point x="840" y="1296"/>
			<point x="862" y="1365"/>
			<point x="862" y="1432" type="curve" smooth="yes"/>
			<point x="862" y="1531"/>
			<point x="801" y="1609"/>
			<point x="700" y="1609" type="curve" smooth="yes"/>
			<point x="577" y="1609"/>
			<point x="437" y="1491"/>
			<point x="263" y="1140" type="curve"/>
			<point x="287" y="1129" type="line"/>
			<point x="401" y="1454" type="line" smooth="yes"/>
			<point x="417" y="1500"/>
			<point x="421" y="1523"/>
			<point x="421" y="1539" type="curve" smooth="yes"/>
			<point x="421" y="1575"/>
			<point x="377" y="1609"/>
			<point x="300" y="1609" type="curve" smooth="yes"/>
			<point x="258" y="1609"/>
			<point x="240" y="1591"/>
			<point x="221" y="1524" type="curve" smooth="yes"/>
			<point x="49" y="920" type="line" smooth="yes"/>
			<point x="40" y="888"/>
			<point x="40" y="876"/>
			<point x="40" y="866" type="curve" smooth="yes"/>
			<point x="40" y="828"/>
			<point x="95" y="795"/>
			<point x="162" y="795" type="curve" smooth="yes"/>
			<point x="202" y="795"/>
			<point x="220" y="810"/>
			<point x="241" y="879" type="curve" smooth="yes"/>
			<point x="270" y="975"/>
			<point x="308" y="1068"/>
			<point x="350" y="1148" type="curve" smooth="yes"/>
			<point x="445" y="1330"/>
			<point x="546" y="1434"/>
			<point x="618" y="1434" type="curve" smooth="yes"/>
			<point x="644" y="1434"/>
			<point x="662" y="1419"/>
			<point x="662" y="1385" type="curve" smooth="yes"/>
			<point x="662" y="1353"/>
			<point x="646" y="1300"/>
			<point x="591" y="1179" type="curve" smooth="yes"/>
			<point x="534" y="1054"/>
			<point x="519" y="1002"/>
			<point x="519" y="947" type="curve" smooth="yes"/>
			<point x="519" y="863"/>
			<point x="562" y="795"/>
		</contour>
	</outline>
</glyph>
<glyph name="euro" format="2">
	<unicode hex="20AC"/>
	<advance width="1200"/>
	<outline>
		<contour>
			<point x="944" y="1425" type="curve" smooth="yes"/>
			<point x="568" y="1425"/>
			<point x="230" y="1008"/>
			<point x="230" y="514" type="curve" smooth="yes"/>
			<point x="230" y="199"/>
			<point x="427" y="-11"/>
			<point x="683" y="-11" type="curve" smooth="yes"/>
			<point x="791" y="-11"/>
			<point x="905" y="17"/>
			<point x="1005" y="89" type="curve" smooth="yes"/>
			<point x="1073" y="138"/>
			<point x="1109" y="194"/>
			<point x="1109" y="235" type="curve" smooth="yes"/>
			<point x="1109" y="280"/>
			<point x="1059" y="324"/>
			<point x="1019" y="324" type="curve" smooth="yes"/>
			<point x="999" y="324"/>
			<point x="980" y="313"/>
			<point x="938" y="281" type="curve" smooth="yes"/>
			<point x="883" y="239"/>
			<point x="807" y="209"/>
			<point x="729" y="209" type="curve" smooth="yes"/>
			<point x="568" y="209"/>
			<point x="472" y="293"/>
			<point x="472" y="527" type="curve" smooth="yes"/>
			<point x="472" y="903"/>
			<point x="677" y="1205"/>
			<point x="922" y="1205" type="curve" smooth="yes"/>
			<point x="986" y="1205"/>
			<point x="1038" y="1181"/>
			<point x="1085" y="1154" type="curve" smooth="yes"/>
			<point x="1105" y="1142"/>
			<point x="1120" y="1135"/>
			<point x="1142" y="1135" type="curve" smooth="yes"/>
			<point x="1197" y="1135"/>
			<point x="1249" y="1197"/>
			<point x="1249" y="1248" type="curve" smooth="yes"/>
			<point x="1249" y="1273"/>
			<point x="1240" y="1302"/>
			<point x="1199" y="1336" type="curve" smooth="yes"/>
			<point x="1146" y="1380"/>
			<point x="1068" y="1425"/>
		</contour>
		<contour>
			<point x="134" y="851" type="curve" smooth="yes"/>
			<point x="134" y="781"/>
			<point x="191" y="751"/>
			<point x="305" y="751" type="curve" smooth="yes"/>
			<point x="447" y="751"/>
			<point x="725" y="756"/>
			<point x="813" y="765" type="curve" smooth="yes"/>
			<point x="910" y="775"/>
			<point x="986" y="811"/>
			<point x="986" y="907" type="curve" smooth="yes"/>
			<point x="986" y="958"/>
			<point x="961" y="969"/>
			<point x="913" y="969" type="curve" smooth="yes"/>
			<point x="885" y="969"/>
			<point x="835" y="966"/>
			<point x="789" y="964" type="curve" smooth="yes"/>
			<point x="721" y="961"/>
			<point x="482" y="957"/>
			<point x="278" y="957" type="curve" smooth="yes"/>
			<point x="185" y="957"/>
			<point x="134" y="923"/>
		</contour>
		<contour>
			<point x="49" y="530" type="curve" smooth="yes"/>
			<point x="49" y="460"/>
			<point x="105" y="430"/>
			<point x="221" y="430" type="curve" smooth="yes"/>
			<point x="289" y="430"/>
			<point x="609" y="432"/>
			<point x="721" y="443" type="curve" smooth="yes"/>
			<point x="823" y="453"/>
			<point x="900" y="490"/>
			<point x="900" y="584" type="curve" smooth="yes"/>
			<point x="900" y="637"/>
			<point x="868" y="646"/>
			<point x="821" y="646" type="curve" smooth="yes"/>
			<point x="798" y="646"/>
			<point x="738" y="644"/>
			<point x="686" y="642" type="curve" smooth="yes"/>
			<point x="610" y="639"/>
			<point x="332" y="636"/>
			<point x="193" y="636" type="curve" smooth="yes"/>
			<point x="100" y="636"/>
			<point x="49" y="602"/>
		</contour>
	</outline>
</glyph>
<glyph name="arrowleft" format="2">
	<unicode hex="2190"/>
	<advance width="1843"/>
	<outline>
		<contour>
			<point x="1621" y="713" type="line"/>
			<point x="1671" y="713"/>
			<point x="1703" y="745"/>
			<point x="1703" y="828" type="curve" smooth="yes"/>
			<point x="1703" y="909"/>
			<point x="1665" y="943"/>
			<point x="1615" y="943" type="curve" smooth="yes"/>
			<point x="484" y="943" type="line"/>
			<point x="744" y="1201" type="line" smooth="yes"/>
			<point x="799" y="1255"/>
			<point x="804" y="1267"/>
			<point x="804" y="1290" type="curve" smooth="yes"/>
			<point x="804" y="1350"/>
			<point x="727" y="1421"/>
			<point x="677" y="1421" type="curve" smooth="yes"/>
			<point x="651" y="1421"/>
			<point x="638" y="1414"/>
			<point x="588" y="1361" type="curve" smooth="yes"/>
			<point x="247" y="998" type="line" smooth="yes"/>
			<point x="160" y="905"/>
			<point x="140" y="873"/>
			<point x="140" y="828" type="curve" smooth="yes"/>
			<point x="140" y="783"/>
			<point x="160" y="751"/>
			<point x="247" y="658" type="curve" smooth="yes"/>
			<point x="588" y="295" type="line" smooth="yes"/>
			<point x="638" y="242"/>
			<point x="651" y="235"/>
			<point x="677" y="235" type="curve" smooth="yes"/>
			<point x="727" y="235"/>
			<point x="804" y="306"/>
			<point x="804" y="366" type="curve" smooth="yes"/>
			<point x="804" y="385"/>
			<point x="798" y="399"/>
			<point x="773" y="424" type="curve" smooth="yes"/>
			<point x="484" y="713" type="line"/>
		</contour>
	</outline>
</glyph>
<glyph name="approxequal" format="2">
	<unicode hex="2248"/>
	<advance width="1200"/>
	<outline>
		<contour>
			<point x="306" y="839" type="curve" smooth="yes"/>
			<point x="328" y="839"/>
			<point x="343" y="848"/>
			<point x="370" y="884" type="curve" smooth="yes"/>
			<point x="403" y="929"/>
			<point x="437" y="952"/>
			<point x="485" y="952" type="curve" smooth="yes"/>
			<point x="600" y="952"/>
			<point x="667" y="848"/>
			<point x="810" y="848" type="curve" smooth="yes"/>
			<point x="917" y="848"/>
			<point x="1004" y="906"/>
			<point x="1058" y="988" type="curve" smooth="yes"/>
			<point x="1087" y="1032"/>
			<point x="1093" y="1063"/>
			<point x="1093" y="1082" type="curve" smooth="yes"/>
			<point x="1093" y="1138"/>
			<point x="1042" y="1159"/>
			<point x="1005" y="1159" type="curve" smooth="yes"/>
			<point x="983" y="1159"/>
			<point x="966" y="1147"/>
			<point x="942" y="1114" type="curve" smooth="yes"/>
			<point x="900" y="1056"/>
			<point x="873" y="1036"/>
			<point x="826" y="1036" type="curve" smooth="yes"/>
			<point x="718" y="1036"/>
			<point x="640" y="1151"/>
			<point x="497" y="1151" type="curve" smooth="yes"/>
			<point x="392" y="1151"/>
			<point x="304" y="1090"/>
			<point x="252" y="1009" type="curve" smooth="yes"/>
			<point x="225" y="967"/>
			<point x="218" y="936"/>
			<point x="218" y="916" type="curve" smooth="yes"/>
			<point x="218" y="862"/>
			<point x="267" y="839"/>
		</contour>
		<contour>
			<point x="219" y="447" type="curve" smooth="yes"/>
			<point x="241" y="447"/>
			<point x="256" y="456"/>
			<point x="283" y="492" type="curve" smooth="yes"/>
			<point x="316" y="537"/>
			<point x="350" y="560"/>
			<point x="398" y="560" type="curve" smooth="yes"/>
			<point x="513" y="560"/>
			<point x="580" y="456"/>
			<point x="723" y="456" type="curve" smooth="yes"/>
			<point x="830" y="456"/>
			<point x="917" y="514"/>
			<point x="971" y="596" type="curve" smooth="yes"/>
			<point x="1000" y="640"/>
			<point x="1006" y="671"/>
			<point x="1006" y="690" type="curve" smooth="yes"/>
			<point x="1006" y="746"/>
			<point x="955" y="767"/>
			<point x="918" y="767" type="curve" smooth="yes"/>
			<point x="896" y="767"/>
			<point x="879" y="755"/>
			<point x="855" y="722" type="curve" smooth="yes"/>
			<point x="813" y="664"/>
			<point x="786" y="644"/>
			<point x="739" y="644" type="curve" smooth="yes"/>
			<point x="631" y="644"/>
			<point x="553" y="759"/>
			<point x="410" y="759" type="curve" smooth="yes"/>
			<point x="305" y="759"/>
			<point x="217" y="698"/>
			<point x="165" y="617" type="curve" smooth="yes"/>
			<point x="138" y="575"/>
			<point x="131" y="544"/>
			<point x="131" y="524" type="curve" smooth="yes"/>
			<point x="131" y="470"/>
			<point x="180" y="447"/>
		</contour>
	</outline>
</glyph>
<glyph name="ballotBox" format="2">
	<unicode hex="2610"/>
	<advance width="1731"/>
	<outline>
		<contour>
			<point x="260" y="47" type="curve" smooth="yes"/>
			<point x="1471" y="47" type="line" smooth="yes"/>
			<point x="1575" y="47"/>
			<point x="1631" y="103"/>
			<point x="1631" y="207" type="curve" smooth="yes"/>
			<point x="1631" y="1417" type="line" smooth="yes"/>
			<point x="1631" y="1521"/>
			<point x="1575" y="1577"/>
			<point x="1471" y="1577" type="curve" smooth="yes"/>
			<point x="260" y="1577" type="line" smooth="yes"/>
			<point x="156" y="1577"/>
			<point x="100" y="1521"/>
			<point x="100" y="1417" type="curve" smooth="yes"/>
			<point x="100" y="207" type="line" smooth="yes"/>
			<point x="100" y="103"/>
			<point x="156" y="47"/>
		</contour>
		<contour>
			<point x="320" y="267" type="line"/>
			<point x="320" y="1357" type="line"/>
			<point x="1411" y="1357" type="line"/>
			<point x="1411" y="267" type="line"/>
		</contour>
	</outline>
	<anchor name="check" x="720" y="390"/>
</glyph>
